<?xml version="1.0" encoding="utf-8"?>
<svg xmlns="http://www.w3.org/2000/svg" xmlns:xlink="http://www.w3.org/1999/xlink" style="background: rgb(22, 40, 55); display: block; position: relative; shape-rendering: auto;" width="174" height="174" preserveAspectRatio="xMidYMid" viewBox="0 0 174 174"><g transform="scale(0.6799999999999999)"><g>
  <line x1="255.99610117921844" x2="236.50877379126104" y1="50.66963354957152" y2="70.15696093752894" stroke-width="1" stroke="#304e68" stroke-linecap="round"></line><line x1="255.99610117921844" x2="236.50877379126104" y1="-461.33036645042847" y2="-441.84303906247106" stroke-width="1" stroke="#304e68" stroke-linecap="round"></line><line x1="511.99610117921844" x2="492.50877379126104" y1="-461.33036645042847" y2="-441.84303906247106" stroke-width="1" stroke="#304e68" stroke-linecap="round"></line><line x1="767.9961011792184" x2="748.5087737912611" y1="-461.33036645042847" y2="-441.84303906247106" stroke-width="1" stroke="#304e68" stroke-linecap="round"></line><line x1="255.99610117921844" x2="236.50877379126104" y1="-205.33036645042847" y2="-185.84303906247106" stroke-width="1" stroke="#304e68" stroke-linecap="round"></line><line x1="511.99610117921844" x2="492.50877379126104" y1="-205.33036645042847" y2="-185.84303906247106" stroke-width="1" stroke="#304e68" stroke-linecap="round"></line><line x1="767.9961011792184" x2="748.5087737912611" y1="-205.33036645042847" y2="-185.84303906247106" stroke-width="1" stroke="#304e68" stroke-linecap="round"></line><line x1="255.99610117921844" x2="236.50877379126104" y1="50.66963354957152" y2="70.15696093752894" stroke-width="1" stroke="#304e68" stroke-linecap="round"></line><line x1="511.99610117921844" x2="492.50877379126104" y1="50.66963354957152" y2="70.15696093752894" stroke-width="1" stroke="#304e68" stroke-linecap="round"></line><line x1="767.9961011792184" x2="748.5087737912611" y1="50.66963354957152" y2="70.15696093752894" stroke-width="1" stroke="#304e68" stroke-linecap="round"></line><line x1="219.9383848913471" x2="207.4995453332347" y1="102.05781368214272" y2="114.49665324025514" stroke-width="1" stroke="#304e68" stroke-linecap="round"></line><line x1="219.9383848913471" x2="207.4995453332347" y1="-409.94218631785725" y2="-397.5033467597449" stroke-width="1" stroke="#304e68" stroke-linecap="round"></line><line x1="475.93838489134714" x2="463.49954533323466" y1="-409.94218631785725" y2="-397.5033467597449" stroke-width="1" stroke="#304e68" stroke-linecap="round"></line><line x1="731.9383848913471" x2="719.4995453332347" y1="-409.94218631785725" y2="-397.5033467597449" stroke-width="1" stroke="#304e68" stroke-linecap="round"></line><line x1="219.9383848913471" x2="207.4995453332347" y1="-153.94218631785728" y2="-141.50334675974486" stroke-width="1" stroke="#304e68" stroke-linecap="round"></line><line x1="475.93838489134714" x2="463.49954533323466" y1="-153.94218631785728" y2="-141.50334675974486" stroke-width="1" stroke="#304e68" stroke-linecap="round"></line><line x1="731.9383848913471" x2="719.4995453332347" y1="-153.94218631785728" y2="-141.50334675974486" stroke-width="1" stroke="#304e68" stroke-linecap="round"></line><line x1="219.9383848913471" x2="207.4995453332347" y1="102.05781368214272" y2="114.49665324025514" stroke-width="1" stroke="#304e68" stroke-linecap="round"></line><line x1="475.93838489134714" x2="463.49954533323466" y1="102.05781368214272" y2="114.49665324025514" stroke-width="1" stroke="#304e68" stroke-linecap="round"></line><line x1="731.9383848913471" x2="719.4995453332347" y1="102.05781368214272" y2="114.49665324025514" stroke-width="1" stroke="#304e68" stroke-linecap="round"></line><line x1="224.74636772249067" x2="205.7614793648499" y1="89.46048318928354" y2="108.44537154692432" stroke-width="1" stroke="#304e68" stroke-linecap="round"></line><line x1="224.74636772249067" x2="205.7614793648499" y1="-422.53951681071646" y2="-403.5546284530757" stroke-width="1" stroke="#304e68" stroke-linecap="round"></line><line x1="480.7463677224907" x2="461.7614793648499" y1="-422.53951681071646" y2="-403.5546284530757" stroke-width="1" stroke="#304e68" stroke-linecap="round"></line><line x1="736.7463677224907" x2="717.76147936485" y1="-422.53951681071646" y2="-403.5546284530757" stroke-width="1" stroke="#304e68" stroke-linecap="round"></line><line x1="224.74636772249067" x2="205.7614793648499" y1="-166.53951681071646" y2="-147.55462845307568" stroke-width="1" stroke="#304e68" stroke-linecap="round"></line><line x1="480.7463677224907" x2="461.7614793648499" y1="-166.53951681071646" y2="-147.55462845307568" stroke-width="1" stroke="#304e68" stroke-linecap="round"></line><line x1="736.7463677224907" x2="717.76147936485" y1="-166.53951681071646" y2="-147.55462845307568" stroke-width="1" stroke="#304e68" stroke-linecap="round"></line><line x1="224.74636772249067" x2="205.7614793648499" y1="89.46048318928354" y2="108.44537154692432" stroke-width="1" stroke="#304e68" stroke-linecap="round"></line><line x1="480.7463677224907" x2="461.7614793648499" y1="89.46048318928354" y2="108.44537154692432" stroke-width="1" stroke="#304e68" stroke-linecap="round"></line><line x1="736.7463677224907" x2="717.76147936485" y1="89.46048318928354" y2="108.44537154692432" stroke-width="1" stroke="#304e68" stroke-linecap="round"></line><line x1="162.8682563275427" x2="149.29730986639262" y1="228.70643308813388" y2="242.27737954928395" stroke-width="1" stroke="#304e68" stroke-linecap="round"></line><line x1="162.8682563275427" x2="149.29730986639262" y1="-283.29356691186615" y2="-269.722620450716" stroke-width="1" stroke="#304e68" stroke-linecap="round"></line><line x1="418.86825632754267" x2="405.29730986639265" y1="-283.29356691186615" y2="-269.722620450716" stroke-width="1" stroke="#304e68" stroke-linecap="round"></line><line x1="674.8682563275427" x2="661.2973098663927" y1="-283.29356691186615" y2="-269.722620450716" stroke-width="1" stroke="#304e68" stroke-linecap="round"></line><line x1="162.8682563275427" x2="149.29730986639262" y1="-27.293566911866122" y2="-13.72262045071605" stroke-width="1" stroke="#304e68" stroke-linecap="round"></line><line x1="418.86825632754267" x2="405.29730986639265" y1="-27.293566911866122" y2="-13.72262045071605" stroke-width="1" stroke="#304e68" stroke-linecap="round"></line><line x1="674.8682563275427" x2="661.2973098663927" y1="-27.293566911866122" y2="-13.72262045071605" stroke-width="1" stroke="#304e68" stroke-linecap="round"></line><line x1="162.8682563275427" x2="149.29730986639262" y1="228.70643308813388" y2="242.27737954928395" stroke-width="1" stroke="#304e68" stroke-linecap="round"></line><line x1="418.86825632754267" x2="405.29730986639265" y1="228.70643308813388" y2="242.27737954928395" stroke-width="1" stroke="#304e68" stroke-linecap="round"></line><line x1="674.8682563275427" x2="661.2973098663927" y1="228.70643308813388" y2="242.27737954928395" stroke-width="1" stroke="#304e68" stroke-linecap="round"></line><line x1="146.50705965918954" x2="129.45889690267754" y1="90.10105767244184" y2="107.14922042895384" stroke-width="1" stroke="#304e68" stroke-linecap="round"></line><line x1="146.50705965918954" x2="129.45889690267754" y1="-421.8989423275582" y2="-404.85077957104613" stroke-width="1" stroke="#304e68" stroke-linecap="round"></line><line x1="402.5070596591895" x2="385.45889690267757" y1="-421.8989423275582" y2="-404.85077957104613" stroke-width="1" stroke="#304e68" stroke-linecap="round"></line><line x1="658.5070596591895" x2="641.4588969026776" y1="-421.8989423275582" y2="-404.85077957104613" stroke-width="1" stroke="#304e68" stroke-linecap="round"></line><line x1="146.50705965918954" x2="129.45889690267754" y1="-165.89894232755816" y2="-148.85077957104616" stroke-width="1" stroke="#304e68" stroke-linecap="round"></line><line x1="402.5070596591895" x2="385.45889690267757" y1="-165.89894232755816" y2="-148.85077957104616" stroke-width="1" stroke="#304e68" stroke-linecap="round"></line><line x1="658.5070596591895" x2="641.4588969026776" y1="-165.89894232755816" y2="-148.85077957104616" stroke-width="1" stroke="#304e68" stroke-linecap="round"></line><line x1="146.50705965918954" x2="129.45889690267754" y1="90.10105767244184" y2="107.14922042895384" stroke-width="1" stroke="#304e68" stroke-linecap="round"></line><line x1="402.5070596591895" x2="385.45889690267757" y1="90.10105767244184" y2="107.14922042895384" stroke-width="1" stroke="#304e68" stroke-linecap="round"></line><line x1="658.5070596591895" x2="641.4588969026776" y1="90.10105767244184" y2="107.14922042895384" stroke-width="1" stroke="#304e68" stroke-linecap="round"></line><line x1="239.27937653704214" x2="219.63631095980816" y1="154.09580702961154" y2="173.73887260684552" stroke-width="1" stroke="#304e68" stroke-linecap="round"></line><line x1="239.27937653704214" x2="219.63631095980816" y1="-357.90419297038846" y2="-338.2611273931545" stroke-width="1" stroke="#304e68" stroke-linecap="round"></line><line x1="495.27937653704214" x2="475.63631095980816" y1="-357.90419297038846" y2="-338.2611273931545" stroke-width="1" stroke="#304e68" stroke-linecap="round"></line><line x1="751.2793765370421" x2="731.6363109598082" y1="-357.90419297038846" y2="-338.2611273931545" stroke-width="1" stroke="#304e68" stroke-linecap="round"></line><line x1="239.27937653704214" x2="219.63631095980816" y1="-101.90419297038846" y2="-82.26112739315448" stroke-width="1" stroke="#304e68" stroke-linecap="round"></line><line x1="495.27937653704214" x2="475.63631095980816" y1="-101.90419297038846" y2="-82.26112739315448" stroke-width="1" stroke="#304e68" stroke-linecap="round"></line><line x1="751.2793765370421" x2="731.6363109598082" y1="-101.90419297038846" y2="-82.26112739315448" stroke-width="1" stroke="#304e68" stroke-linecap="round"></line><line x1="239.27937653704214" x2="219.63631095980816" y1="154.09580702961154" y2="173.73887260684552" stroke-width="1" stroke="#304e68" stroke-linecap="round"></line><line x1="495.27937653704214" x2="475.63631095980816" y1="154.09580702961154" y2="173.73887260684552" stroke-width="1" stroke="#304e68" stroke-linecap="round"></line><line x1="751.2793765370421" x2="731.6363109598082" y1="154.09580702961154" y2="173.73887260684552" stroke-width="1" stroke="#304e68" stroke-linecap="round"></line><line x1="83.05110999248708" x2="63.59832493807326" y1="230.60587125438585" y2="250.05865630879967" stroke-width="1" stroke="#304e68" stroke-linecap="round"></line><line x1="83.05110999248708" x2="63.59832493807326" y1="-281.3941287456141" y2="-261.94134369120036" stroke-width="1" stroke="#304e68" stroke-linecap="round"></line><line x1="339.0511099924871" x2="319.59832493807323" y1="-281.3941287456141" y2="-261.94134369120036" stroke-width="1" stroke="#304e68" stroke-linecap="round"></line><line x1="595.0511099924871" x2="575.5983249380732" y1="-281.3941287456141" y2="-261.94134369120036" stroke-width="1" stroke="#304e68" stroke-linecap="round"></line><line x1="83.05110999248708" x2="63.59832493807326" y1="-25.394128745614154" y2="-5.941343691200331" stroke-width="1" stroke="#304e68" stroke-linecap="round"></line><line x1="339.0511099924871" x2="319.59832493807323" y1="-25.394128745614154" y2="-5.941343691200331" stroke-width="1" stroke="#304e68" stroke-linecap="round"></line><line x1="595.0511099924871" x2="575.5983249380732" y1="-25.394128745614154" y2="-5.941343691200331" stroke-width="1" stroke="#304e68" stroke-linecap="round"></line><line x1="83.05110999248708" x2="63.59832493807326" y1="230.60587125438585" y2="250.05865630879967" stroke-width="1" stroke="#304e68" stroke-linecap="round"></line><line x1="339.0511099924871" x2="319.59832493807323" y1="230.60587125438585" y2="250.05865630879967" stroke-width="1" stroke="#304e68" stroke-linecap="round"></line><line x1="595.0511099924871" x2="575.5983249380732" y1="230.60587125438585" y2="250.05865630879967" stroke-width="1" stroke="#304e68" stroke-linecap="round"></line>
  <animateTransform attributeName="transform" type="translate" values="0 0;-256 256" keyTimes="0;1" repeatCount="indefinite" dur="4s"></animateTransform>
</g><g>
  <line x1="11.118660608130659" x2="-9.795442641977962" y1="158.36560051053203" y2="179.27970376064064" stroke-width="1" stroke="#304e68" stroke-linecap="round"></line><line x1="11.118660608130659" x2="-9.795442641977962" y1="-353.63439948946797" y2="-332.72029623935936" stroke-width="1" stroke="#304e68" stroke-linecap="round"></line><line x1="267.11866060813065" x2="246.20455735802204" y1="-353.63439948946797" y2="-332.72029623935936" stroke-width="1" stroke="#304e68" stroke-linecap="round"></line><line x1="523.1186606081307" x2="502.20455735802204" y1="-353.63439948946797" y2="-332.72029623935936" stroke-width="1" stroke="#304e68" stroke-linecap="round"></line><line x1="11.118660608130659" x2="-9.795442641977962" y1="-97.63439948946797" y2="-76.72029623935936" stroke-width="1" stroke="#304e68" stroke-linecap="round"></line><line x1="267.11866060813065" x2="246.20455735802204" y1="-97.63439948946797" y2="-76.72029623935936" stroke-width="1" stroke="#304e68" stroke-linecap="round"></line><line x1="523.1186606081307" x2="502.20455735802204" y1="-97.63439948946797" y2="-76.72029623935936" stroke-width="1" stroke="#304e68" stroke-linecap="round"></line><line x1="11.118660608130659" x2="-9.795442641977962" y1="158.36560051053203" y2="179.27970376064064" stroke-width="1" stroke="#304e68" stroke-linecap="round"></line><line x1="267.11866060813065" x2="246.20455735802204" y1="158.36560051053203" y2="179.27970376064064" stroke-width="1" stroke="#304e68" stroke-linecap="round"></line><line x1="523.1186606081307" x2="502.20455735802204" y1="158.36560051053203" y2="179.27970376064064" stroke-width="1" stroke="#304e68" stroke-linecap="round"></line><line x1="169.12840618392232" x2="155.88962282771223" y1="117.66695766542746" y2="130.90574102163754" stroke-width="1" stroke="#304e68" stroke-linecap="round"></line><line x1="169.12840618392232" x2="155.88962282771223" y1="-394.33304233457255" y2="-381.09425897836246" stroke-width="1" stroke="#304e68" stroke-linecap="round"></line><line x1="425.1284061839223" x2="411.88962282771223" y1="-394.33304233457255" y2="-381.09425897836246" stroke-width="1" stroke="#304e68" stroke-linecap="round"></line><line x1="681.1284061839224" x2="667.8896228277122" y1="-394.33304233457255" y2="-381.09425897836246" stroke-width="1" stroke="#304e68" stroke-linecap="round"></line><line x1="169.12840618392232" x2="155.88962282771223" y1="-138.33304233457255" y2="-125.09425897836246" stroke-width="1" stroke="#304e68" stroke-linecap="round"></line><line x1="425.1284061839223" x2="411.88962282771223" y1="-138.33304233457255" y2="-125.09425897836246" stroke-width="1" stroke="#304e68" stroke-linecap="round"></line><line x1="681.1284061839224" x2="667.8896228277122" y1="-138.33304233457255" y2="-125.09425897836246" stroke-width="1" stroke="#304e68" stroke-linecap="round"></line><line x1="169.12840618392232" x2="155.88962282771223" y1="117.66695766542746" y2="130.90574102163754" stroke-width="1" stroke="#304e68" stroke-linecap="round"></line><line x1="425.1284061839223" x2="411.88962282771223" y1="117.66695766542746" y2="130.90574102163754" stroke-width="1" stroke="#304e68" stroke-linecap="round"></line><line x1="681.1284061839224" x2="667.8896228277122" y1="117.66695766542746" y2="130.90574102163754" stroke-width="1" stroke="#304e68" stroke-linecap="round"></line><line x1="233.42911661746402" x2="218.2522324953499" y1="236.35542171310234" y2="251.53230583521648" stroke-width="1" stroke="#304e68" stroke-linecap="round"></line><line x1="233.42911661746402" x2="218.2522324953499" y1="-275.6445782868976" y2="-260.46769416478355" stroke-width="1" stroke="#304e68" stroke-linecap="round"></line><line x1="489.42911661746405" x2="474.25223249534986" y1="-275.6445782868976" y2="-260.46769416478355" stroke-width="1" stroke="#304e68" stroke-linecap="round"></line><line x1="745.429116617464" x2="730.2522324953499" y1="-275.6445782868976" y2="-260.46769416478355" stroke-width="1" stroke="#304e68" stroke-linecap="round"></line><line x1="233.42911661746402" x2="218.2522324953499" y1="-19.644578286897655" y2="-4.4676941647835235" stroke-width="1" stroke="#304e68" stroke-linecap="round"></line><line x1="489.42911661746405" x2="474.25223249534986" y1="-19.644578286897655" y2="-4.4676941647835235" stroke-width="1" stroke="#304e68" stroke-linecap="round"></line><line x1="745.429116617464" x2="730.2522324953499" y1="-19.644578286897655" y2="-4.4676941647835235" stroke-width="1" stroke="#304e68" stroke-linecap="round"></line><line x1="233.42911661746402" x2="218.2522324953499" y1="236.35542171310234" y2="251.53230583521648" stroke-width="1" stroke="#304e68" stroke-linecap="round"></line><line x1="489.42911661746405" x2="474.25223249534986" y1="236.35542171310234" y2="251.53230583521648" stroke-width="1" stroke="#304e68" stroke-linecap="round"></line><line x1="745.429116617464" x2="730.2522324953499" y1="236.35542171310234" y2="251.53230583521648" stroke-width="1" stroke="#304e68" stroke-linecap="round"></line><line x1="179.23891033610033" x2="166.7404738742669" y1="212.2398468367174" y2="224.7382832985508" stroke-width="1" stroke="#304e68" stroke-linecap="round"></line><line x1="179.23891033610033" x2="166.7404738742669" y1="-299.7601531632826" y2="-287.2617167014492" stroke-width="1" stroke="#304e68" stroke-linecap="round"></line><line x1="435.23891033610033" x2="422.7404738742669" y1="-299.7601531632826" y2="-287.2617167014492" stroke-width="1" stroke="#304e68" stroke-linecap="round"></line><line x1="691.2389103361004" x2="678.7404738742669" y1="-299.7601531632826" y2="-287.2617167014492" stroke-width="1" stroke="#304e68" stroke-linecap="round"></line><line x1="179.23891033610033" x2="166.7404738742669" y1="-43.76015316328261" y2="-31.26171670144919" stroke-width="1" stroke="#304e68" stroke-linecap="round"></line><line x1="435.23891033610033" x2="422.7404738742669" y1="-43.76015316328261" y2="-31.26171670144919" stroke-width="1" stroke="#304e68" stroke-linecap="round"></line><line x1="691.2389103361004" x2="678.7404738742669" y1="-43.76015316328261" y2="-31.26171670144919" stroke-width="1" stroke="#304e68" stroke-linecap="round"></line><line x1="179.23891033610033" x2="166.7404738742669" y1="212.2398468367174" y2="224.7382832985508" stroke-width="1" stroke="#304e68" stroke-linecap="round"></line><line x1="435.23891033610033" x2="422.7404738742669" y1="212.2398468367174" y2="224.7382832985508" stroke-width="1" stroke="#304e68" stroke-linecap="round"></line><line x1="691.2389103361004" x2="678.7404738742669" y1="212.2398468367174" y2="224.7382832985508" stroke-width="1" stroke="#304e68" stroke-linecap="round"></line><line x1="235.07477974635952" x2="215.49193630422684" y1="9.040665778287108" y2="28.62350922041982" stroke-width="1" stroke="#304e68" stroke-linecap="round"></line><line x1="235.07477974635952" x2="215.49193630422684" y1="-502.9593342217129" y2="-483.3764907795802" stroke-width="1" stroke="#304e68" stroke-linecap="round"></line><line x1="491.0747797463595" x2="471.49193630422684" y1="-502.9593342217129" y2="-483.3764907795802" stroke-width="1" stroke="#304e68" stroke-linecap="round"></line><line x1="747.0747797463596" x2="727.4919363042268" y1="-502.9593342217129" y2="-483.3764907795802" stroke-width="1" stroke="#304e68" stroke-linecap="round"></line><line x1="235.07477974635952" x2="215.49193630422684" y1="-246.95933422171288" y2="-227.3764907795802" stroke-width="1" stroke="#304e68" stroke-linecap="round"></line><line x1="491.0747797463595" x2="471.49193630422684" y1="-246.95933422171288" y2="-227.3764907795802" stroke-width="1" stroke="#304e68" stroke-linecap="round"></line><line x1="747.0747797463596" x2="727.4919363042268" y1="-246.95933422171288" y2="-227.3764907795802" stroke-width="1" stroke="#304e68" stroke-linecap="round"></line><line x1="235.07477974635952" x2="215.49193630422684" y1="9.040665778287108" y2="28.62350922041982" stroke-width="1" stroke="#304e68" stroke-linecap="round"></line><line x1="491.0747797463595" x2="471.49193630422684" y1="9.040665778287108" y2="28.62350922041982" stroke-width="1" stroke="#304e68" stroke-linecap="round"></line><line x1="747.0747797463596" x2="727.4919363042268" y1="9.040665778287108" y2="28.62350922041982" stroke-width="1" stroke="#304e68" stroke-linecap="round"></line><line x1="194.32426822363504" x2="173.69079682450865" y1="26.73131666349967" y2="47.36478806262609" stroke-width="1" stroke="#304e68" stroke-linecap="round"></line><line x1="194.32426822363504" x2="173.69079682450865" y1="-485.2686833365003" y2="-464.6352119373739" stroke-width="1" stroke="#304e68" stroke-linecap="round"></line><line x1="450.32426822363504" x2="429.69079682450865" y1="-485.2686833365003" y2="-464.6352119373739" stroke-width="1" stroke="#304e68" stroke-linecap="round"></line><line x1="706.324268223635" x2="685.6907968245087" y1="-485.2686833365003" y2="-464.6352119373739" stroke-width="1" stroke="#304e68" stroke-linecap="round"></line><line x1="194.32426822363504" x2="173.69079682450865" y1="-229.26868333650032" y2="-208.63521193737392" stroke-width="1" stroke="#304e68" stroke-linecap="round"></line><line x1="450.32426822363504" x2="429.69079682450865" y1="-229.26868333650032" y2="-208.63521193737392" stroke-width="1" stroke="#304e68" stroke-linecap="round"></line><line x1="706.324268223635" x2="685.6907968245087" y1="-229.26868333650032" y2="-208.63521193737392" stroke-width="1" stroke="#304e68" stroke-linecap="round"></line><line x1="194.32426822363504" x2="173.69079682450865" y1="26.73131666349967" y2="47.36478806262609" stroke-width="1" stroke="#304e68" stroke-linecap="round"></line><line x1="450.32426822363504" x2="429.69079682450865" y1="26.73131666349967" y2="47.36478806262609" stroke-width="1" stroke="#304e68" stroke-linecap="round"></line><line x1="706.324268223635" x2="685.6907968245087" y1="26.73131666349967" y2="47.36478806262609" stroke-width="1" stroke="#304e68" stroke-linecap="round"></line><line x1="217.0008828644588" x2="202.28641573307874" y1="4.061421132744784" y2="18.77588826412483" stroke-width="1" stroke="#304e68" stroke-linecap="round"></line><line x1="217.0008828644588" x2="202.28641573307874" y1="-507.9385788672552" y2="-493.22411173587517" stroke-width="1" stroke="#304e68" stroke-linecap="round"></line><line x1="473.0008828644588" x2="458.28641573307874" y1="-507.9385788672552" y2="-493.22411173587517" stroke-width="1" stroke="#304e68" stroke-linecap="round"></line><line x1="729.0008828644588" x2="714.2864157330787" y1="-507.9385788672552" y2="-493.22411173587517" stroke-width="1" stroke="#304e68" stroke-linecap="round"></line><line x1="217.0008828644588" x2="202.28641573307874" y1="-251.93857886725522" y2="-237.22411173587517" stroke-width="1" stroke="#304e68" stroke-linecap="round"></line><line x1="473.0008828644588" x2="458.28641573307874" y1="-251.93857886725522" y2="-237.22411173587517" stroke-width="1" stroke="#304e68" stroke-linecap="round"></line><line x1="729.0008828644588" x2="714.2864157330787" y1="-251.93857886725522" y2="-237.22411173587517" stroke-width="1" stroke="#304e68" stroke-linecap="round"></line><line x1="217.0008828644588" x2="202.28641573307874" y1="4.061421132744784" y2="18.77588826412483" stroke-width="1" stroke="#304e68" stroke-linecap="round"></line><line x1="473.0008828644588" x2="458.28641573307874" y1="4.061421132744784" y2="18.77588826412483" stroke-width="1" stroke="#304e68" stroke-linecap="round"></line><line x1="729.0008828644588" x2="714.2864157330787" y1="4.061421132744784" y2="18.77588826412483" stroke-width="1" stroke="#304e68" stroke-linecap="round"></line>
  <animateTransform attributeName="transform" type="translate" values="0 0;-256 256" keyTimes="0;1" repeatCount="indefinite" dur="2s"></animateTransform>
</g><g>
  <line x1="130.75308449933098" x2="115.96169094226327" y1="168.0067779586079" y2="182.7981715156756" stroke-width="1" stroke="#304e68" stroke-linecap="round"></line><line x1="130.75308449933098" x2="115.96169094226327" y1="-343.9932220413921" y2="-329.20182848432444" stroke-width="1" stroke="#304e68" stroke-linecap="round"></line><line x1="386.75308449933095" x2="371.96169094226326" y1="-343.9932220413921" y2="-329.20182848432444" stroke-width="1" stroke="#304e68" stroke-linecap="round"></line><line x1="642.753084499331" x2="627.9616909422633" y1="-343.9932220413921" y2="-329.20182848432444" stroke-width="1" stroke="#304e68" stroke-linecap="round"></line><line x1="130.75308449933098" x2="115.96169094226327" y1="-87.9932220413921" y2="-73.20182848432441" stroke-width="1" stroke="#304e68" stroke-linecap="round"></line><line x1="386.75308449933095" x2="371.96169094226326" y1="-87.9932220413921" y2="-73.20182848432441" stroke-width="1" stroke="#304e68" stroke-linecap="round"></line><line x1="642.753084499331" x2="627.9616909422633" y1="-87.9932220413921" y2="-73.20182848432441" stroke-width="1" stroke="#304e68" stroke-linecap="round"></line><line x1="130.75308449933098" x2="115.96169094226327" y1="168.0067779586079" y2="182.7981715156756" stroke-width="1" stroke="#304e68" stroke-linecap="round"></line><line x1="386.75308449933095" x2="371.96169094226326" y1="168.0067779586079" y2="182.7981715156756" stroke-width="1" stroke="#304e68" stroke-linecap="round"></line><line x1="642.753084499331" x2="627.9616909422633" y1="168.0067779586079" y2="182.7981715156756" stroke-width="1" stroke="#304e68" stroke-linecap="round"></line><line x1="244.6254513719677" x2="229.4647991162895" y1="-5.987446608607967" y2="9.173205647070233" stroke-width="1" stroke="#304e68" stroke-linecap="round"></line><line x1="244.6254513719677" x2="229.4647991162895" y1="-517.9874466086079" y2="-502.82679435292977" stroke-width="1" stroke="#304e68" stroke-linecap="round"></line><line x1="500.6254513719677" x2="485.4647991162895" y1="-517.9874466086079" y2="-502.82679435292977" stroke-width="1" stroke="#304e68" stroke-linecap="round"></line><line x1="756.6254513719678" x2="741.4647991162894" y1="-517.9874466086079" y2="-502.82679435292977" stroke-width="1" stroke="#304e68" stroke-linecap="round"></line><line x1="244.6254513719677" x2="229.4647991162895" y1="-261.98744660860797" y2="-246.82679435292977" stroke-width="1" stroke="#304e68" stroke-linecap="round"></line><line x1="500.6254513719677" x2="485.4647991162895" y1="-261.98744660860797" y2="-246.82679435292977" stroke-width="1" stroke="#304e68" stroke-linecap="round"></line><line x1="756.6254513719678" x2="741.4647991162894" y1="-261.98744660860797" y2="-246.82679435292977" stroke-width="1" stroke="#304e68" stroke-linecap="round"></line><line x1="244.6254513719677" x2="229.4647991162895" y1="-5.987446608607967" y2="9.173205647070233" stroke-width="1" stroke="#304e68" stroke-linecap="round"></line><line x1="500.6254513719677" x2="485.4647991162895" y1="-5.987446608607967" y2="9.173205647070233" stroke-width="1" stroke="#304e68" stroke-linecap="round"></line><line x1="756.6254513719678" x2="741.4647991162894" y1="-5.987446608607967" y2="9.173205647070233" stroke-width="1" stroke="#304e68" stroke-linecap="round"></line><line x1="244.6254513719677" x2="229.4647991162895" y1="250.01255339139203" y2="265.17320564707023" stroke-width="1" stroke="#304e68" stroke-linecap="round"></line><line x1="228.10021265461205" x2="212.31903183549912" y1="15.107801613644416" y2="30.88898243275737" stroke-width="1" stroke="#304e68" stroke-linecap="round"></line><line x1="228.10021265461205" x2="212.31903183549912" y1="-496.8921983863556" y2="-481.11101756724264" stroke-width="1" stroke="#304e68" stroke-linecap="round"></line><line x1="484.10021265461205" x2="468.3190318354991" y1="-496.8921983863556" y2="-481.11101756724264" stroke-width="1" stroke="#304e68" stroke-linecap="round"></line><line x1="740.100212654612" x2="724.3190318354991" y1="-496.8921983863556" y2="-481.11101756724264" stroke-width="1" stroke="#304e68" stroke-linecap="round"></line><line x1="228.10021265461205" x2="212.31903183549912" y1="-240.89219838635557" y2="-225.11101756724264" stroke-width="1" stroke="#304e68" stroke-linecap="round"></line><line x1="484.10021265461205" x2="468.3190318354991" y1="-240.89219838635557" y2="-225.11101756724264" stroke-width="1" stroke="#304e68" stroke-linecap="round"></line><line x1="740.100212654612" x2="724.3190318354991" y1="-240.89219838635557" y2="-225.11101756724264" stroke-width="1" stroke="#304e68" stroke-linecap="round"></line><line x1="228.10021265461205" x2="212.31903183549912" y1="15.107801613644416" y2="30.88898243275737" stroke-width="1" stroke="#304e68" stroke-linecap="round"></line><line x1="484.10021265461205" x2="468.3190318354991" y1="15.107801613644416" y2="30.88898243275737" stroke-width="1" stroke="#304e68" stroke-linecap="round"></line><line x1="740.100212654612" x2="724.3190318354991" y1="15.107801613644416" y2="30.88898243275737" stroke-width="1" stroke="#304e68" stroke-linecap="round"></line><line x1="136.09035674306148" x2="119.35606144203228" y1="53.240707081349846" y2="69.97500238237905" stroke-width="1" stroke="#304e68" stroke-linecap="round"></line><line x1="136.09035674306148" x2="119.35606144203228" y1="-458.75929291865015" y2="-442.02499761762095" stroke-width="1" stroke="#304e68" stroke-linecap="round"></line><line x1="392.0903567430615" x2="375.3560614420323" y1="-458.75929291865015" y2="-442.02499761762095" stroke-width="1" stroke="#304e68" stroke-linecap="round"></line><line x1="648.0903567430614" x2="631.3560614420323" y1="-458.75929291865015" y2="-442.02499761762095" stroke-width="1" stroke="#304e68" stroke-linecap="round"></line><line x1="136.09035674306148" x2="119.35606144203228" y1="-202.75929291865015" y2="-186.02499761762095" stroke-width="1" stroke="#304e68" stroke-linecap="round"></line><line x1="392.0903567430615" x2="375.3560614420323" y1="-202.75929291865015" y2="-186.02499761762095" stroke-width="1" stroke="#304e68" stroke-linecap="round"></line><line x1="648.0903567430614" x2="631.3560614420323" y1="-202.75929291865015" y2="-186.02499761762095" stroke-width="1" stroke="#304e68" stroke-linecap="round"></line><line x1="136.09035674306148" x2="119.35606144203228" y1="53.240707081349846" y2="69.97500238237905" stroke-width="1" stroke="#304e68" stroke-linecap="round"></line><line x1="392.0903567430615" x2="375.3560614420323" y1="53.240707081349846" y2="69.97500238237905" stroke-width="1" stroke="#304e68" stroke-linecap="round"></line><line x1="648.0903567430614" x2="631.3560614420323" y1="53.240707081349846" y2="69.97500238237905" stroke-width="1" stroke="#304e68" stroke-linecap="round"></line><line x1="184.3688700297172" x2="165.016756703557" y1="116.40588238339605" y2="135.7579957095562" stroke-width="1" stroke="#304e68" stroke-linecap="round"></line><line x1="184.3688700297172" x2="165.016756703557" y1="-395.59411761660397" y2="-376.2420042904438" stroke-width="1" stroke="#304e68" stroke-linecap="round"></line><line x1="440.3688700297172" x2="421.016756703557" y1="-395.59411761660397" y2="-376.2420042904438" stroke-width="1" stroke="#304e68" stroke-linecap="round"></line><line x1="696.3688700297172" x2="677.016756703557" y1="-395.59411761660397" y2="-376.2420042904438" stroke-width="1" stroke="#304e68" stroke-linecap="round"></line><line x1="184.3688700297172" x2="165.016756703557" y1="-139.59411761660397" y2="-120.24200429044379" stroke-width="1" stroke="#304e68" stroke-linecap="round"></line><line x1="440.3688700297172" x2="421.016756703557" y1="-139.59411761660397" y2="-120.24200429044379" stroke-width="1" stroke="#304e68" stroke-linecap="round"></line><line x1="696.3688700297172" x2="677.016756703557" y1="-139.59411761660397" y2="-120.24200429044379" stroke-width="1" stroke="#304e68" stroke-linecap="round"></line><line x1="184.3688700297172" x2="165.016756703557" y1="116.40588238339605" y2="135.7579957095562" stroke-width="1" stroke="#304e68" stroke-linecap="round"></line><line x1="440.3688700297172" x2="421.016756703557" y1="116.40588238339605" y2="135.7579957095562" stroke-width="1" stroke="#304e68" stroke-linecap="round"></line><line x1="696.3688700297172" x2="677.016756703557" y1="116.40588238339605" y2="135.7579957095562" stroke-width="1" stroke="#304e68" stroke-linecap="round"></line><line x1="169.91608047529846" x2="157.96786074672994" y1="195.0635046307884" y2="207.01172435935692" stroke-width="1" stroke="#304e68" stroke-linecap="round"></line><line x1="169.91608047529846" x2="157.96786074672994" y1="-316.93649536921157" y2="-304.9882756406431" stroke-width="1" stroke="#304e68" stroke-linecap="round"></line><line x1="425.9160804752985" x2="413.9678607467299" y1="-316.93649536921157" y2="-304.9882756406431" stroke-width="1" stroke="#304e68" stroke-linecap="round"></line><line x1="681.9160804752985" x2="669.9678607467299" y1="-316.93649536921157" y2="-304.9882756406431" stroke-width="1" stroke="#304e68" stroke-linecap="round"></line><line x1="169.91608047529846" x2="157.96786074672994" y1="-60.9364953692116" y2="-48.98827564064308" stroke-width="1" stroke="#304e68" stroke-linecap="round"></line><line x1="425.9160804752985" x2="413.9678607467299" y1="-60.9364953692116" y2="-48.98827564064308" stroke-width="1" stroke="#304e68" stroke-linecap="round"></line><line x1="681.9160804752985" x2="669.9678607467299" y1="-60.9364953692116" y2="-48.98827564064308" stroke-width="1" stroke="#304e68" stroke-linecap="round"></line><line x1="169.91608047529846" x2="157.96786074672994" y1="195.0635046307884" y2="207.01172435935692" stroke-width="1" stroke="#304e68" stroke-linecap="round"></line><line x1="425.9160804752985" x2="413.9678607467299" y1="195.0635046307884" y2="207.01172435935692" stroke-width="1" stroke="#304e68" stroke-linecap="round"></line><line x1="681.9160804752985" x2="669.9678607467299" y1="195.0635046307884" y2="207.01172435935692" stroke-width="1" stroke="#304e68" stroke-linecap="round"></line><line x1="238.79415917533902" x2="227.56870586574155" y1="179.85302241674958" y2="191.07847572634705" stroke-width="1" stroke="#304e68" stroke-linecap="round"></line><line x1="238.79415917533902" x2="227.56870586574155" y1="-332.1469775832504" y2="-320.92152427365295" stroke-width="1" stroke="#304e68" stroke-linecap="round"></line><line x1="494.794159175339" x2="483.56870586574155" y1="-332.1469775832504" y2="-320.92152427365295" stroke-width="1" stroke="#304e68" stroke-linecap="round"></line><line x1="750.794159175339" x2="739.5687058657415" y1="-332.1469775832504" y2="-320.92152427365295" stroke-width="1" stroke="#304e68" stroke-linecap="round"></line><line x1="238.79415917533902" x2="227.56870586574155" y1="-76.14697758325042" y2="-64.92152427365295" stroke-width="1" stroke="#304e68" stroke-linecap="round"></line><line x1="494.794159175339" x2="483.56870586574155" y1="-76.14697758325042" y2="-64.92152427365295" stroke-width="1" stroke="#304e68" stroke-linecap="round"></line><line x1="750.794159175339" x2="739.5687058657415" y1="-76.14697758325042" y2="-64.92152427365295" stroke-width="1" stroke="#304e68" stroke-linecap="round"></line><line x1="238.79415917533902" x2="227.56870586574155" y1="179.85302241674958" y2="191.07847572634705" stroke-width="1" stroke="#304e68" stroke-linecap="round"></line><line x1="494.794159175339" x2="483.56870586574155" y1="179.85302241674958" y2="191.07847572634705" stroke-width="1" stroke="#304e68" stroke-linecap="round"></line><line x1="750.794159175339" x2="739.5687058657415" y1="179.85302241674958" y2="191.07847572634705" stroke-width="1" stroke="#304e68" stroke-linecap="round"></line>
  <animateTransform attributeName="transform" type="translate" values="0 0;-256 256" keyTimes="0;1" repeatCount="indefinite" dur="1.3333333333333333s"></animateTransform>
</g></g></svg>