<?xml version="1.0" encoding="utf-8"?>
<svg xmlns="http://www.w3.org/2000/svg" xmlns:xlink="http://www.w3.org/1999/xlink" style="background: rgb(22, 40, 55); display: block; position: relative; shape-rendering: auto;" width="174" height="174" preserveAspectRatio="xMidYMid" viewBox="0 0 174 174"><g transform="scale(0.6799999999999999)"><g>
  <line x1="227.2755334799296" x2="209.6563640072896" y1="169.84665930331653" y2="187.46582877595654" stroke-width="1" stroke="#304e68" stroke-linecap="round"></line><line x1="227.2755334799296" x2="209.6563640072896" y1="-342.1533406966835" y2="-324.53417122404346" stroke-width="1" stroke="#304e68" stroke-linecap="round"></line><line x1="483.2755334799296" x2="465.6563640072896" y1="-342.1533406966835" y2="-324.53417122404346" stroke-width="1" stroke="#304e68" stroke-linecap="round"></line><line x1="739.2755334799297" x2="721.6563640072895" y1="-342.1533406966835" y2="-324.53417122404346" stroke-width="1" stroke="#304e68" stroke-linecap="round"></line><line x1="227.2755334799296" x2="209.6563640072896" y1="-86.15334069668347" y2="-68.53417122404346" stroke-width="1" stroke="#304e68" stroke-linecap="round"></line><line x1="483.2755334799296" x2="465.6563640072896" y1="-86.15334069668347" y2="-68.53417122404346" stroke-width="1" stroke="#304e68" stroke-linecap="round"></line><line x1="739.2755334799297" x2="721.6563640072895" y1="-86.15334069668347" y2="-68.53417122404346" stroke-width="1" stroke="#304e68" stroke-linecap="round"></line><line x1="227.2755334799296" x2="209.6563640072896" y1="169.84665930331653" y2="187.46582877595654" stroke-width="1" stroke="#304e68" stroke-linecap="round"></line><line x1="483.2755334799296" x2="465.6563640072896" y1="169.84665930331653" y2="187.46582877595654" stroke-width="1" stroke="#304e68" stroke-linecap="round"></line><line x1="739.2755334799297" x2="721.6563640072895" y1="169.84665930331653" y2="187.46582877595654" stroke-width="1" stroke="#304e68" stroke-linecap="round"></line><line x1="141.38451021046168" x2="123.4039031494846" y1="30.14121476481527" y2="48.12182182579234" stroke-width="1" stroke="#304e68" stroke-linecap="round"></line><line x1="141.38451021046168" x2="123.4039031494846" y1="-481.8587852351847" y2="-463.8781781742077" stroke-width="1" stroke="#304e68" stroke-linecap="round"></line><line x1="397.3845102104617" x2="379.4039031494846" y1="-481.8587852351847" y2="-463.8781781742077" stroke-width="1" stroke="#304e68" stroke-linecap="round"></line><line x1="653.3845102104617" x2="635.4039031494846" y1="-481.8587852351847" y2="-463.8781781742077" stroke-width="1" stroke="#304e68" stroke-linecap="round"></line><line x1="141.38451021046168" x2="123.4039031494846" y1="-225.85878523518474" y2="-207.87817817420768" stroke-width="1" stroke="#304e68" stroke-linecap="round"></line><line x1="397.3845102104617" x2="379.4039031494846" y1="-225.85878523518474" y2="-207.87817817420768" stroke-width="1" stroke="#304e68" stroke-linecap="round"></line><line x1="653.3845102104617" x2="635.4039031494846" y1="-225.85878523518474" y2="-207.87817817420768" stroke-width="1" stroke="#304e68" stroke-linecap="round"></line><line x1="141.38451021046168" x2="123.4039031494846" y1="30.14121476481527" y2="48.12182182579234" stroke-width="1" stroke="#304e68" stroke-linecap="round"></line><line x1="397.3845102104617" x2="379.4039031494846" y1="30.14121476481527" y2="48.12182182579234" stroke-width="1" stroke="#304e68" stroke-linecap="round"></line><line x1="653.3845102104617" x2="635.4039031494846" y1="30.14121476481527" y2="48.12182182579234" stroke-width="1" stroke="#304e68" stroke-linecap="round"></line><line x1="226.90356897555546" x2="199.54019924961028" y1="151.6182213843777" y2="178.98159111032288" stroke-width="1" stroke="#304e68" stroke-linecap="round"></line><line x1="226.90356897555546" x2="199.54019924961028" y1="-360.3817786156223" y2="-333.0184088896771" stroke-width="1" stroke="#304e68" stroke-linecap="round"></line><line x1="482.90356897555546" x2="455.5401992496103" y1="-360.3817786156223" y2="-333.0184088896771" stroke-width="1" stroke="#304e68" stroke-linecap="round"></line><line x1="738.9035689755555" x2="711.5401992496103" y1="-360.3817786156223" y2="-333.0184088896771" stroke-width="1" stroke="#304e68" stroke-linecap="round"></line><line x1="226.90356897555546" x2="199.54019924961028" y1="-104.3817786156223" y2="-77.01840888967712" stroke-width="1" stroke="#304e68" stroke-linecap="round"></line><line x1="482.90356897555546" x2="455.5401992496103" y1="-104.3817786156223" y2="-77.01840888967712" stroke-width="1" stroke="#304e68" stroke-linecap="round"></line><line x1="738.9035689755555" x2="711.5401992496103" y1="-104.3817786156223" y2="-77.01840888967712" stroke-width="1" stroke="#304e68" stroke-linecap="round"></line><line x1="226.90356897555546" x2="199.54019924961028" y1="151.6182213843777" y2="178.98159111032288" stroke-width="1" stroke="#304e68" stroke-linecap="round"></line><line x1="482.90356897555546" x2="455.5401992496103" y1="151.6182213843777" y2="178.98159111032288" stroke-width="1" stroke="#304e68" stroke-linecap="round"></line><line x1="738.9035689755555" x2="711.5401992496103" y1="151.6182213843777" y2="178.98159111032288" stroke-width="1" stroke="#304e68" stroke-linecap="round"></line><line x1="248.7540693315309" x2="235.0827839825812" y1="205.99394636338928" y2="219.665231712339" stroke-width="1" stroke="#304e68" stroke-linecap="round"></line><line x1="248.7540693315309" x2="235.0827839825812" y1="-306.0060536366107" y2="-292.334768287661" stroke-width="1" stroke="#304e68" stroke-linecap="round"></line><line x1="504.7540693315309" x2="491.0827839825812" y1="-306.0060536366107" y2="-292.334768287661" stroke-width="1" stroke="#304e68" stroke-linecap="round"></line><line x1="760.7540693315309" x2="747.0827839825812" y1="-306.0060536366107" y2="-292.334768287661" stroke-width="1" stroke="#304e68" stroke-linecap="round"></line><line x1="248.7540693315309" x2="235.0827839825812" y1="-50.006053636610716" y2="-36.33476828766101" stroke-width="1" stroke="#304e68" stroke-linecap="round"></line><line x1="504.7540693315309" x2="491.0827839825812" y1="-50.006053636610716" y2="-36.33476828766101" stroke-width="1" stroke="#304e68" stroke-linecap="round"></line><line x1="760.7540693315309" x2="747.0827839825812" y1="-50.006053636610716" y2="-36.33476828766101" stroke-width="1" stroke="#304e68" stroke-linecap="round"></line><line x1="248.7540693315309" x2="235.0827839825812" y1="205.99394636338928" y2="219.665231712339" stroke-width="1" stroke="#304e68" stroke-linecap="round"></line><line x1="504.7540693315309" x2="491.0827839825812" y1="205.99394636338928" y2="219.665231712339" stroke-width="1" stroke="#304e68" stroke-linecap="round"></line><line x1="760.7540693315309" x2="747.0827839825812" y1="205.99394636338928" y2="219.665231712339" stroke-width="1" stroke="#304e68" stroke-linecap="round"></line><line x1="221.88525791302" x2="193.10931477184832" y1="147.4792615713134" y2="176.2552047124851" stroke-width="1" stroke="#304e68" stroke-linecap="round"></line><line x1="221.88525791302" x2="193.10931477184832" y1="-364.5207384286866" y2="-335.7447952875149" stroke-width="1" stroke="#304e68" stroke-linecap="round"></line><line x1="477.88525791302004" x2="449.1093147718483" y1="-364.5207384286866" y2="-335.7447952875149" stroke-width="1" stroke="#304e68" stroke-linecap="round"></line><line x1="733.88525791302" x2="705.1093147718483" y1="-364.5207384286866" y2="-335.7447952875149" stroke-width="1" stroke="#304e68" stroke-linecap="round"></line><line x1="221.88525791302" x2="193.10931477184832" y1="-108.5207384286866" y2="-79.7447952875149" stroke-width="1" stroke="#304e68" stroke-linecap="round"></line><line x1="477.88525791302004" x2="449.1093147718483" y1="-108.5207384286866" y2="-79.7447952875149" stroke-width="1" stroke="#304e68" stroke-linecap="round"></line><line x1="733.88525791302" x2="705.1093147718483" y1="-108.5207384286866" y2="-79.7447952875149" stroke-width="1" stroke="#304e68" stroke-linecap="round"></line><line x1="221.88525791302" x2="193.10931477184832" y1="147.4792615713134" y2="176.2552047124851" stroke-width="1" stroke="#304e68" stroke-linecap="round"></line><line x1="477.88525791302004" x2="449.1093147718483" y1="147.4792615713134" y2="176.2552047124851" stroke-width="1" stroke="#304e68" stroke-linecap="round"></line><line x1="733.88525791302" x2="705.1093147718483" y1="147.4792615713134" y2="176.2552047124851" stroke-width="1" stroke="#304e68" stroke-linecap="round"></line>
  <animateTransform attributeName="transform" type="translate" values="0 0;-256 256" keyTimes="0;1" repeatCount="indefinite" dur="1.3888888888888888s"></animateTransform>
</g><g>
  <line x1="155.56314298586489" x2="141.10945894618197" y1="43.00351885860118" y2="57.457202898284095" stroke-width="1" stroke="#304e68" stroke-linecap="round"></line><line x1="155.56314298586489" x2="141.10945894618197" y1="-468.9964811413988" y2="-454.5427971017159" stroke-width="1" stroke="#304e68" stroke-linecap="round"></line><line x1="411.5631429858649" x2="397.109458946182" y1="-468.9964811413988" y2="-454.5427971017159" stroke-width="1" stroke="#304e68" stroke-linecap="round"></line><line x1="667.5631429858649" x2="653.109458946182" y1="-468.9964811413988" y2="-454.5427971017159" stroke-width="1" stroke="#304e68" stroke-linecap="round"></line><line x1="155.56314298586489" x2="141.10945894618197" y1="-212.99648114139882" y2="-198.5427971017159" stroke-width="1" stroke="#304e68" stroke-linecap="round"></line><line x1="411.5631429858649" x2="397.109458946182" y1="-212.99648114139882" y2="-198.5427971017159" stroke-width="1" stroke="#304e68" stroke-linecap="round"></line><line x1="667.5631429858649" x2="653.109458946182" y1="-212.99648114139882" y2="-198.5427971017159" stroke-width="1" stroke="#304e68" stroke-linecap="round"></line><line x1="155.56314298586489" x2="141.10945894618197" y1="43.00351885860118" y2="57.457202898284095" stroke-width="1" stroke="#304e68" stroke-linecap="round"></line><line x1="411.5631429858649" x2="397.109458946182" y1="43.00351885860118" y2="57.457202898284095" stroke-width="1" stroke="#304e68" stroke-linecap="round"></line><line x1="667.5631429858649" x2="653.109458946182" y1="43.00351885860118" y2="57.457202898284095" stroke-width="1" stroke="#304e68" stroke-linecap="round"></line><line x1="150.77081369426898" x2="137.59619962827767" y1="118.76843825601013" y2="131.94305232200142" stroke-width="1" stroke="#304e68" stroke-linecap="round"></line><line x1="150.77081369426898" x2="137.59619962827767" y1="-393.23156174398986" y2="-380.05694767799855" stroke-width="1" stroke="#304e68" stroke-linecap="round"></line><line x1="406.770813694269" x2="393.59619962827765" y1="-393.23156174398986" y2="-380.05694767799855" stroke-width="1" stroke="#304e68" stroke-linecap="round"></line><line x1="662.770813694269" x2="649.5961996282776" y1="-393.23156174398986" y2="-380.05694767799855" stroke-width="1" stroke="#304e68" stroke-linecap="round"></line><line x1="150.77081369426898" x2="137.59619962827767" y1="-137.23156174398986" y2="-124.05694767799858" stroke-width="1" stroke="#304e68" stroke-linecap="round"></line><line x1="406.770813694269" x2="393.59619962827765" y1="-137.23156174398986" y2="-124.05694767799858" stroke-width="1" stroke="#304e68" stroke-linecap="round"></line><line x1="662.770813694269" x2="649.5961996282776" y1="-137.23156174398986" y2="-124.05694767799858" stroke-width="1" stroke="#304e68" stroke-linecap="round"></line><line x1="150.77081369426898" x2="137.59619962827767" y1="118.76843825601013" y2="131.94305232200142" stroke-width="1" stroke="#304e68" stroke-linecap="round"></line><line x1="406.770813694269" x2="393.59619962827765" y1="118.76843825601013" y2="131.94305232200142" stroke-width="1" stroke="#304e68" stroke-linecap="round"></line><line x1="662.770813694269" x2="649.5961996282776" y1="118.76843825601013" y2="131.94305232200142" stroke-width="1" stroke="#304e68" stroke-linecap="round"></line><line x1="80.0037453474019" x2="61.02033117637295" y1="35.27275803037155" y2="54.2561722014005" stroke-width="1" stroke="#304e68" stroke-linecap="round"></line><line x1="80.0037453474019" x2="61.02033117637295" y1="-476.72724196962844" y2="-457.7438277985995" stroke-width="1" stroke="#304e68" stroke-linecap="round"></line><line x1="336.0037453474019" x2="317.02033117637296" y1="-476.72724196962844" y2="-457.7438277985995" stroke-width="1" stroke="#304e68" stroke-linecap="round"></line><line x1="592.003745347402" x2="573.0203311763729" y1="-476.72724196962844" y2="-457.7438277985995" stroke-width="1" stroke="#304e68" stroke-linecap="round"></line><line x1="80.0037453474019" x2="61.02033117637295" y1="-220.72724196962844" y2="-201.7438277985995" stroke-width="1" stroke="#304e68" stroke-linecap="round"></line><line x1="336.0037453474019" x2="317.02033117637296" y1="-220.72724196962844" y2="-201.7438277985995" stroke-width="1" stroke="#304e68" stroke-linecap="round"></line><line x1="592.003745347402" x2="573.0203311763729" y1="-220.72724196962844" y2="-201.7438277985995" stroke-width="1" stroke="#304e68" stroke-linecap="round"></line><line x1="80.0037453474019" x2="61.02033117637295" y1="35.27275803037155" y2="54.2561722014005" stroke-width="1" stroke="#304e68" stroke-linecap="round"></line><line x1="336.0037453474019" x2="317.02033117637296" y1="35.27275803037155" y2="54.2561722014005" stroke-width="1" stroke="#304e68" stroke-linecap="round"></line><line x1="592.003745347402" x2="573.0203311763729" y1="35.27275803037155" y2="54.2561722014005" stroke-width="1" stroke="#304e68" stroke-linecap="round"></line><line x1="27.07337047983539" x2="8.72762964952072" y1="42.2193032943059" y2="60.56504412462057" stroke-width="1" stroke="#304e68" stroke-linecap="round"></line><line x1="27.07337047983539" x2="8.72762964952072" y1="-469.7806967056941" y2="-451.43495587537944" stroke-width="1" stroke="#304e68" stroke-linecap="round"></line><line x1="283.0733704798354" x2="264.72762964952074" y1="-469.7806967056941" y2="-451.43495587537944" stroke-width="1" stroke="#304e68" stroke-linecap="round"></line><line x1="539.0733704798354" x2="520.7276296495207" y1="-469.7806967056941" y2="-451.43495587537944" stroke-width="1" stroke="#304e68" stroke-linecap="round"></line><line x1="27.07337047983539" x2="8.72762964952072" y1="-213.78069670569408" y2="-195.43495587537944" stroke-width="1" stroke="#304e68" stroke-linecap="round"></line><line x1="283.0733704798354" x2="264.72762964952074" y1="-213.78069670569408" y2="-195.43495587537944" stroke-width="1" stroke="#304e68" stroke-linecap="round"></line><line x1="539.0733704798354" x2="520.7276296495207" y1="-213.78069670569408" y2="-195.43495587537944" stroke-width="1" stroke="#304e68" stroke-linecap="round"></line><line x1="27.07337047983539" x2="8.72762964952072" y1="42.2193032943059" y2="60.56504412462057" stroke-width="1" stroke="#304e68" stroke-linecap="round"></line><line x1="283.0733704798354" x2="264.72762964952074" y1="42.2193032943059" y2="60.56504412462057" stroke-width="1" stroke="#304e68" stroke-linecap="round"></line><line x1="539.0733704798354" x2="520.7276296495207" y1="42.2193032943059" y2="60.56504412462057" stroke-width="1" stroke="#304e68" stroke-linecap="round"></line><line x1="101.06697925632544" x2="77.80711750604009" y1="237.20469382267703" y2="260.4645555729624" stroke-width="1" stroke="#304e68" stroke-linecap="round"></line><line x1="101.06697925632544" x2="77.80711750604009" y1="-274.79530617732297" y2="-251.5354444270376" stroke-width="1" stroke="#304e68" stroke-linecap="round"></line><line x1="357.06697925632545" x2="333.8071175060401" y1="-274.79530617732297" y2="-251.5354444270376" stroke-width="1" stroke="#304e68" stroke-linecap="round"></line><line x1="613.0669792563255" x2="589.8071175060401" y1="-274.79530617732297" y2="-251.5354444270376" stroke-width="1" stroke="#304e68" stroke-linecap="round"></line><line x1="101.06697925632544" x2="77.80711750604009" y1="-18.79530617732297" y2="4.464555572962411" stroke-width="1" stroke="#304e68" stroke-linecap="round"></line><line x1="357.06697925632545" x2="333.8071175060401" y1="-18.79530617732297" y2="4.464555572962411" stroke-width="1" stroke="#304e68" stroke-linecap="round"></line><line x1="613.0669792563255" x2="589.8071175060401" y1="-18.79530617732297" y2="4.464555572962411" stroke-width="1" stroke="#304e68" stroke-linecap="round"></line><line x1="101.06697925632544" x2="77.80711750604009" y1="237.20469382267703" y2="260.4645555729624" stroke-width="1" stroke="#304e68" stroke-linecap="round"></line><line x1="357.06697925632545" x2="333.8071175060401" y1="237.20469382267703" y2="260.4645555729624" stroke-width="1" stroke="#304e68" stroke-linecap="round"></line><line x1="613.0669792563255" x2="589.8071175060401" y1="237.20469382267703" y2="260.4645555729624" stroke-width="1" stroke="#304e68" stroke-linecap="round"></line>
  <animateTransform attributeName="transform" type="translate" values="0 0;-256 256" keyTimes="0;1" repeatCount="indefinite" dur="0.6944444444444444s"></animateTransform>
</g><g>
  <line x1="118.41818627604924" x2="105.31911361362792" y1="8.933236862034862" y2="22.03230952445618" stroke-width="1" stroke="#304e68" stroke-linecap="round"></line><line x1="118.41818627604924" x2="105.31911361362792" y1="-503.06676313796515" y2="-489.9676904755438" stroke-width="1" stroke="#304e68" stroke-linecap="round"></line><line x1="374.41818627604925" x2="361.3191136136279" y1="-503.06676313796515" y2="-489.9676904755438" stroke-width="1" stroke="#304e68" stroke-linecap="round"></line><line x1="630.4181862760493" x2="617.3191136136279" y1="-503.06676313796515" y2="-489.9676904755438" stroke-width="1" stroke="#304e68" stroke-linecap="round"></line><line x1="118.41818627604924" x2="105.31911361362792" y1="-247.06676313796513" y2="-233.9676904755438" stroke-width="1" stroke="#304e68" stroke-linecap="round"></line><line x1="374.41818627604925" x2="361.3191136136279" y1="-247.06676313796513" y2="-233.9676904755438" stroke-width="1" stroke="#304e68" stroke-linecap="round"></line><line x1="630.4181862760493" x2="617.3191136136279" y1="-247.06676313796513" y2="-233.9676904755438" stroke-width="1" stroke="#304e68" stroke-linecap="round"></line><line x1="118.41818627604924" x2="105.31911361362792" y1="8.933236862034862" y2="22.03230952445618" stroke-width="1" stroke="#304e68" stroke-linecap="round"></line><line x1="374.41818627604925" x2="361.3191136136279" y1="8.933236862034862" y2="22.03230952445618" stroke-width="1" stroke="#304e68" stroke-linecap="round"></line><line x1="630.4181862760493" x2="617.3191136136279" y1="8.933236862034862" y2="22.03230952445618" stroke-width="1" stroke="#304e68" stroke-linecap="round"></line><line x1="159.1653669458026" x2="134.37582364829905" y1="196.1231121835953" y2="220.91265548109885" stroke-width="1" stroke="#304e68" stroke-linecap="round"></line><line x1="159.1653669458026" x2="134.37582364829905" y1="-315.8768878164047" y2="-291.08734451890115" stroke-width="1" stroke="#304e68" stroke-linecap="round"></line><line x1="415.1653669458026" x2="390.37582364829905" y1="-315.8768878164047" y2="-291.08734451890115" stroke-width="1" stroke="#304e68" stroke-linecap="round"></line><line x1="671.1653669458026" x2="646.375823648299" y1="-315.8768878164047" y2="-291.08734451890115" stroke-width="1" stroke="#304e68" stroke-linecap="round"></line><line x1="159.1653669458026" x2="134.37582364829905" y1="-59.87688781640469" y2="-35.08734451890115" stroke-width="1" stroke="#304e68" stroke-linecap="round"></line><line x1="415.1653669458026" x2="390.37582364829905" y1="-59.87688781640469" y2="-35.08734451890115" stroke-width="1" stroke="#304e68" stroke-linecap="round"></line><line x1="671.1653669458026" x2="646.375823648299" y1="-59.87688781640469" y2="-35.08734451890115" stroke-width="1" stroke="#304e68" stroke-linecap="round"></line><line x1="159.1653669458026" x2="134.37582364829905" y1="196.1231121835953" y2="220.91265548109885" stroke-width="1" stroke="#304e68" stroke-linecap="round"></line><line x1="415.1653669458026" x2="390.37582364829905" y1="196.1231121835953" y2="220.91265548109885" stroke-width="1" stroke="#304e68" stroke-linecap="round"></line><line x1="671.1653669458026" x2="646.375823648299" y1="196.1231121835953" y2="220.91265548109885" stroke-width="1" stroke="#304e68" stroke-linecap="round"></line><line x1="197.28426099485804" x2="169.66024142625284" y1="-4.210245238638754" y2="23.413774329966465" stroke-width="1" stroke="#304e68" stroke-linecap="round"></line><line x1="197.28426099485804" x2="169.66024142625284" y1="-516.2102452386388" y2="-488.5862256700335" stroke-width="1" stroke="#304e68" stroke-linecap="round"></line><line x1="453.2842609948581" x2="425.6602414262528" y1="-516.2102452386388" y2="-488.5862256700335" stroke-width="1" stroke="#304e68" stroke-linecap="round"></line><line x1="709.2842609948581" x2="681.6602414262528" y1="-516.2102452386388" y2="-488.5862256700335" stroke-width="1" stroke="#304e68" stroke-linecap="round"></line><line x1="197.28426099485804" x2="169.66024142625284" y1="-260.2102452386388" y2="-232.58622567003354" stroke-width="1" stroke="#304e68" stroke-linecap="round"></line><line x1="453.2842609948581" x2="425.6602414262528" y1="-260.2102452386388" y2="-232.58622567003354" stroke-width="1" stroke="#304e68" stroke-linecap="round"></line><line x1="709.2842609948581" x2="681.6602414262528" y1="-260.2102452386388" y2="-232.58622567003354" stroke-width="1" stroke="#304e68" stroke-linecap="round"></line><line x1="197.28426099485804" x2="169.66024142625284" y1="-4.210245238638754" y2="23.413774329966465" stroke-width="1" stroke="#304e68" stroke-linecap="round"></line><line x1="453.2842609948581" x2="425.6602414262528" y1="-4.210245238638754" y2="23.413774329966465" stroke-width="1" stroke="#304e68" stroke-linecap="round"></line><line x1="709.2842609948581" x2="681.6602414262528" y1="-4.210245238638754" y2="23.413774329966465" stroke-width="1" stroke="#304e68" stroke-linecap="round"></line><line x1="197.28426099485804" x2="169.66024142625284" y1="251.78975476136125" y2="279.4137743299665" stroke-width="1" stroke="#304e68" stroke-linecap="round"></line><line x1="190.44952024921557" x2="171.0013442979517" y1="70.92396545452492" y2="90.37214140578875" stroke-width="1" stroke="#304e68" stroke-linecap="round"></line><line x1="190.44952024921557" x2="171.0013442979517" y1="-441.07603454547507" y2="-421.62785859421126" stroke-width="1" stroke="#304e68" stroke-linecap="round"></line><line x1="446.44952024921554" x2="427.00134429795173" y1="-441.07603454547507" y2="-421.62785859421126" stroke-width="1" stroke="#304e68" stroke-linecap="round"></line><line x1="702.4495202492155" x2="683.0013442979517" y1="-441.07603454547507" y2="-421.62785859421126" stroke-width="1" stroke="#304e68" stroke-linecap="round"></line><line x1="190.44952024921557" x2="171.0013442979517" y1="-185.07603454547507" y2="-165.62785859421126" stroke-width="1" stroke="#304e68" stroke-linecap="round"></line><line x1="446.44952024921554" x2="427.00134429795173" y1="-185.07603454547507" y2="-165.62785859421126" stroke-width="1" stroke="#304e68" stroke-linecap="round"></line><line x1="702.4495202492155" x2="683.0013442979517" y1="-185.07603454547507" y2="-165.62785859421126" stroke-width="1" stroke="#304e68" stroke-linecap="round"></line><line x1="190.44952024921557" x2="171.0013442979517" y1="70.92396545452492" y2="90.37214140578875" stroke-width="1" stroke="#304e68" stroke-linecap="round"></line><line x1="446.44952024921554" x2="427.00134429795173" y1="70.92396545452492" y2="90.37214140578875" stroke-width="1" stroke="#304e68" stroke-linecap="round"></line><line x1="702.4495202492155" x2="683.0013442979517" y1="70.92396545452492" y2="90.37214140578875" stroke-width="1" stroke="#304e68" stroke-linecap="round"></line><line x1="195.6381896876358" x2="167.67595291793256" y1="225.56466577148504" y2="253.52690254118826" stroke-width="1" stroke="#304e68" stroke-linecap="round"></line><line x1="195.6381896876358" x2="167.67595291793256" y1="-286.435334228515" y2="-258.4730974588117" stroke-width="1" stroke="#304e68" stroke-linecap="round"></line><line x1="451.63818968763576" x2="423.6759529179326" y1="-286.435334228515" y2="-258.4730974588117" stroke-width="1" stroke="#304e68" stroke-linecap="round"></line><line x1="707.6381896876358" x2="679.6759529179326" y1="-286.435334228515" y2="-258.4730974588117" stroke-width="1" stroke="#304e68" stroke-linecap="round"></line><line x1="195.6381896876358" x2="167.67595291793256" y1="-30.43533422851496" y2="-2.4730974588117363" stroke-width="1" stroke="#304e68" stroke-linecap="round"></line><line x1="451.63818968763576" x2="423.6759529179326" y1="-30.43533422851496" y2="-2.4730974588117363" stroke-width="1" stroke="#304e68" stroke-linecap="round"></line><line x1="707.6381896876358" x2="679.6759529179326" y1="-30.43533422851496" y2="-2.4730974588117363" stroke-width="1" stroke="#304e68" stroke-linecap="round"></line><line x1="195.6381896876358" x2="167.67595291793256" y1="225.56466577148504" y2="253.52690254118826" stroke-width="1" stroke="#304e68" stroke-linecap="round"></line><line x1="451.63818968763576" x2="423.6759529179326" y1="225.56466577148504" y2="253.52690254118826" stroke-width="1" stroke="#304e68" stroke-linecap="round"></line><line x1="707.6381896876358" x2="679.6759529179326" y1="225.56466577148504" y2="253.52690254118826" stroke-width="1" stroke="#304e68" stroke-linecap="round"></line>
  <animateTransform attributeName="transform" type="translate" values="0 0;-256 256" keyTimes="0;1" repeatCount="indefinite" dur="0.4629629629629629s"></animateTransform>
</g></g></svg>