<?xml version="1.0" encoding="utf-8"?>
<svg xmlns="http://www.w3.org/2000/svg" xmlns:xlink="http://www.w3.org/1999/xlink" style="background: rgb(24, 35, 47); display: block; position: relative; shape-rendering: auto;" width="189" height="189" preserveAspectRatio="xMidYMid" viewBox="0 0 189 189"><g transform="scale(0.74)"><g>
  <line x1="91.28189304842357" x2="76.3770281341288" y1="240.84188014807876" y2="255.74674506237352" stroke-width="1" stroke="#234161" stroke-linecap="round"></line><line x1="91.28189304842357" x2="76.3770281341288" y1="-271.15811985192124" y2="-256.2532549376265" stroke-width="1" stroke="#234161" stroke-linecap="round"></line><line x1="347.28189304842357" x2="332.3770281341288" y1="-271.15811985192124" y2="-256.2532549376265" stroke-width="1" stroke="#234161" stroke-linecap="round"></line><line x1="603.2818930484236" x2="588.3770281341288" y1="-271.15811985192124" y2="-256.2532549376265" stroke-width="1" stroke="#234161" stroke-linecap="round"></line><line x1="91.28189304842357" x2="76.3770281341288" y1="-15.158119851921242" y2="-0.25325493762647966" stroke-width="1" stroke="#234161" stroke-linecap="round"></line><line x1="347.28189304842357" x2="332.3770281341288" y1="-15.158119851921242" y2="-0.25325493762647966" stroke-width="1" stroke="#234161" stroke-linecap="round"></line><line x1="603.2818930484236" x2="588.3770281341288" y1="-15.158119851921242" y2="-0.25325493762647966" stroke-width="1" stroke="#234161" stroke-linecap="round"></line><line x1="91.28189304842357" x2="76.3770281341288" y1="240.84188014807876" y2="255.74674506237352" stroke-width="1" stroke="#234161" stroke-linecap="round"></line><line x1="347.28189304842357" x2="332.3770281341288" y1="240.84188014807876" y2="255.74674506237352" stroke-width="1" stroke="#234161" stroke-linecap="round"></line><line x1="603.2818930484236" x2="588.3770281341288" y1="240.84188014807876" y2="255.74674506237352" stroke-width="1" stroke="#234161" stroke-linecap="round"></line><line x1="161.34579128732406" x2="146.62899165427342" y1="239.85708436112225" y2="254.5738839941729" stroke-width="1" stroke="#234161" stroke-linecap="round"></line><line x1="161.34579128732406" x2="146.62899165427342" y1="-272.14291563887775" y2="-257.4261160058271" stroke-width="1" stroke="#234161" stroke-linecap="round"></line><line x1="417.34579128732406" x2="402.6289916542734" y1="-272.14291563887775" y2="-257.4261160058271" stroke-width="1" stroke="#234161" stroke-linecap="round"></line><line x1="673.3457912873241" x2="658.6289916542735" y1="-272.14291563887775" y2="-257.4261160058271" stroke-width="1" stroke="#234161" stroke-linecap="round"></line><line x1="161.34579128732406" x2="146.62899165427342" y1="-16.142915638877753" y2="-1.4261160058271116" stroke-width="1" stroke="#234161" stroke-linecap="round"></line><line x1="417.34579128732406" x2="402.6289916542734" y1="-16.142915638877753" y2="-1.4261160058271116" stroke-width="1" stroke="#234161" stroke-linecap="round"></line><line x1="673.3457912873241" x2="658.6289916542735" y1="-16.142915638877753" y2="-1.4261160058271116" stroke-width="1" stroke="#234161" stroke-linecap="round"></line><line x1="161.34579128732406" x2="146.62899165427342" y1="239.85708436112225" y2="254.5738839941729" stroke-width="1" stroke="#234161" stroke-linecap="round"></line><line x1="417.34579128732406" x2="402.6289916542734" y1="239.85708436112225" y2="254.5738839941729" stroke-width="1" stroke="#234161" stroke-linecap="round"></line><line x1="673.3457912873241" x2="658.6289916542735" y1="239.85708436112225" y2="254.5738839941729" stroke-width="1" stroke="#234161" stroke-linecap="round"></line><line x1="162.0306367124852" x2="146.54779435078223" y1="220.13588795721546" y2="235.61873031891844" stroke-width="1" stroke="#234161" stroke-linecap="round"></line><line x1="162.0306367124852" x2="146.54779435078223" y1="-291.86411204278454" y2="-276.38126968108156" stroke-width="1" stroke="#234161" stroke-linecap="round"></line><line x1="418.0306367124852" x2="402.5477943507822" y1="-291.86411204278454" y2="-276.38126968108156" stroke-width="1" stroke="#234161" stroke-linecap="round"></line><line x1="674.0306367124851" x2="658.5477943507822" y1="-291.86411204278454" y2="-276.38126968108156" stroke-width="1" stroke="#234161" stroke-linecap="round"></line><line x1="162.0306367124852" x2="146.54779435078223" y1="-35.86411204278454" y2="-20.381269681081562" stroke-width="1" stroke="#234161" stroke-linecap="round"></line><line x1="418.0306367124852" x2="402.5477943507822" y1="-35.86411204278454" y2="-20.381269681081562" stroke-width="1" stroke="#234161" stroke-linecap="round"></line><line x1="674.0306367124851" x2="658.5477943507822" y1="-35.86411204278454" y2="-20.381269681081562" stroke-width="1" stroke="#234161" stroke-linecap="round"></line><line x1="162.0306367124852" x2="146.54779435078223" y1="220.13588795721546" y2="235.61873031891844" stroke-width="1" stroke="#234161" stroke-linecap="round"></line><line x1="418.0306367124852" x2="402.5477943507822" y1="220.13588795721546" y2="235.61873031891844" stroke-width="1" stroke="#234161" stroke-linecap="round"></line><line x1="674.0306367124851" x2="658.5477943507822" y1="220.13588795721546" y2="235.61873031891844" stroke-width="1" stroke="#234161" stroke-linecap="round"></line>
  <animateTransform attributeName="transform" type="translate" values="0 0;-256 256" keyTimes="0;1" repeatCount="indefinite" dur="1.3333333333333333s"></animateTransform>
</g><g>
  <line x1="135.95741194220636" x2="122.14447473837767" y1="204.71886994669973" y2="218.53180715052844" stroke-width="1" stroke="#234161" stroke-linecap="round"></line><line x1="135.95741194220636" x2="122.14447473837767" y1="-307.2811300533003" y2="-293.46819284947156" stroke-width="1" stroke="#234161" stroke-linecap="round"></line><line x1="391.95741194220636" x2="378.14447473837765" y1="-307.2811300533003" y2="-293.46819284947156" stroke-width="1" stroke="#234161" stroke-linecap="round"></line><line x1="647.9574119422064" x2="634.1444747383777" y1="-307.2811300533003" y2="-293.46819284947156" stroke-width="1" stroke="#234161" stroke-linecap="round"></line><line x1="135.95741194220636" x2="122.14447473837767" y1="-51.281130053300274" y2="-37.46819284947156" stroke-width="1" stroke="#234161" stroke-linecap="round"></line><line x1="391.95741194220636" x2="378.14447473837765" y1="-51.281130053300274" y2="-37.46819284947156" stroke-width="1" stroke="#234161" stroke-linecap="round"></line><line x1="647.9574119422064" x2="634.1444747383777" y1="-51.281130053300274" y2="-37.46819284947156" stroke-width="1" stroke="#234161" stroke-linecap="round"></line><line x1="135.95741194220636" x2="122.14447473837767" y1="204.71886994669973" y2="218.53180715052844" stroke-width="1" stroke="#234161" stroke-linecap="round"></line><line x1="391.95741194220636" x2="378.14447473837765" y1="204.71886994669973" y2="218.53180715052844" stroke-width="1" stroke="#234161" stroke-linecap="round"></line><line x1="647.9574119422064" x2="634.1444747383777" y1="204.71886994669973" y2="218.53180715052844" stroke-width="1" stroke="#234161" stroke-linecap="round"></line><line x1="72.88033674441945" x2="56.92639494654131" y1="6.203500860801828" y2="22.157442658679965" stroke-width="1" stroke="#234161" stroke-linecap="round"></line><line x1="72.88033674441945" x2="56.92639494654131" y1="-505.79649913919815" y2="-489.84255734132006" stroke-width="1" stroke="#234161" stroke-linecap="round"></line><line x1="328.8803367444194" x2="312.92639494654134" y1="-505.79649913919815" y2="-489.84255734132006" stroke-width="1" stroke="#234161" stroke-linecap="round"></line><line x1="584.8803367444194" x2="568.9263949465413" y1="-505.79649913919815" y2="-489.84255734132006" stroke-width="1" stroke="#234161" stroke-linecap="round"></line><line x1="72.88033674441945" x2="56.92639494654131" y1="-249.79649913919818" y2="-233.84255734132003" stroke-width="1" stroke="#234161" stroke-linecap="round"></line><line x1="328.8803367444194" x2="312.92639494654134" y1="-249.79649913919818" y2="-233.84255734132003" stroke-width="1" stroke="#234161" stroke-linecap="round"></line><line x1="584.8803367444194" x2="568.9263949465413" y1="-249.79649913919818" y2="-233.84255734132003" stroke-width="1" stroke="#234161" stroke-linecap="round"></line><line x1="72.88033674441945" x2="56.92639494654131" y1="6.203500860801828" y2="22.157442658679965" stroke-width="1" stroke="#234161" stroke-linecap="round"></line><line x1="328.8803367444194" x2="312.92639494654134" y1="6.203500860801828" y2="22.157442658679965" stroke-width="1" stroke="#234161" stroke-linecap="round"></line><line x1="584.8803367444194" x2="568.9263949465413" y1="6.203500860801828" y2="22.157442658679965" stroke-width="1" stroke="#234161" stroke-linecap="round"></line><line x1="174.21135743709723" x2="159.68044268710165" y1="55.86491698956321" y2="70.39583173955883" stroke-width="1" stroke="#234161" stroke-linecap="round"></line><line x1="174.21135743709723" x2="159.68044268710165" y1="-456.1350830104368" y2="-441.60416826044116" stroke-width="1" stroke="#234161" stroke-linecap="round"></line><line x1="430.21135743709726" x2="415.6804426871016" y1="-456.1350830104368" y2="-441.60416826044116" stroke-width="1" stroke="#234161" stroke-linecap="round"></line><line x1="686.2113574370973" x2="671.6804426871016" y1="-456.1350830104368" y2="-441.60416826044116" stroke-width="1" stroke="#234161" stroke-linecap="round"></line><line x1="174.21135743709723" x2="159.68044268710165" y1="-200.1350830104368" y2="-185.60416826044116" stroke-width="1" stroke="#234161" stroke-linecap="round"></line><line x1="430.21135743709726" x2="415.6804426871016" y1="-200.1350830104368" y2="-185.60416826044116" stroke-width="1" stroke="#234161" stroke-linecap="round"></line><line x1="686.2113574370973" x2="671.6804426871016" y1="-200.1350830104368" y2="-185.60416826044116" stroke-width="1" stroke="#234161" stroke-linecap="round"></line><line x1="174.21135743709723" x2="159.68044268710165" y1="55.86491698956321" y2="70.39583173955883" stroke-width="1" stroke="#234161" stroke-linecap="round"></line><line x1="430.21135743709726" x2="415.6804426871016" y1="55.86491698956321" y2="70.39583173955883" stroke-width="1" stroke="#234161" stroke-linecap="round"></line><line x1="686.2113574370973" x2="671.6804426871016" y1="55.86491698956321" y2="70.39583173955883" stroke-width="1" stroke="#234161" stroke-linecap="round"></line>
  <animateTransform attributeName="transform" type="translate" values="0 0;-256 256" keyTimes="0;1" repeatCount="indefinite" dur="0.6666666666666666s"></animateTransform>
</g><g>
  <line x1="67.27588166207593" x2="53.336687816425375" y1="238.48504169207067" y2="252.42423553772122" stroke-width="1" stroke="#234161" stroke-linecap="round"></line><line x1="67.27588166207593" x2="53.336687816425375" y1="-273.5149583079293" y2="-259.5757644622788" stroke-width="1" stroke="#234161" stroke-linecap="round"></line><line x1="323.2758816620759" x2="309.33668781642535" y1="-273.5149583079293" y2="-259.5757644622788" stroke-width="1" stroke="#234161" stroke-linecap="round"></line><line x1="579.2758816620759" x2="565.3366878164254" y1="-273.5149583079293" y2="-259.5757644622788" stroke-width="1" stroke="#234161" stroke-linecap="round"></line><line x1="67.27588166207593" x2="53.336687816425375" y1="-17.514958307929334" y2="-3.5757644622787836" stroke-width="1" stroke="#234161" stroke-linecap="round"></line><line x1="323.2758816620759" x2="309.33668781642535" y1="-17.514958307929334" y2="-3.5757644622787836" stroke-width="1" stroke="#234161" stroke-linecap="round"></line><line x1="579.2758816620759" x2="565.3366878164254" y1="-17.514958307929334" y2="-3.5757644622787836" stroke-width="1" stroke="#234161" stroke-linecap="round"></line><line x1="67.27588166207593" x2="53.336687816425375" y1="238.48504169207067" y2="252.42423553772122" stroke-width="1" stroke="#234161" stroke-linecap="round"></line><line x1="323.2758816620759" x2="309.33668781642535" y1="238.48504169207067" y2="252.42423553772122" stroke-width="1" stroke="#234161" stroke-linecap="round"></line><line x1="579.2758816620759" x2="565.3366878164254" y1="238.48504169207067" y2="252.42423553772122" stroke-width="1" stroke="#234161" stroke-linecap="round"></line><line x1="34.09975002619212" x2="19.308427263500384" y1="206.5257662874654" y2="221.3170890501571" stroke-width="1" stroke="#234161" stroke-linecap="round"></line><line x1="34.09975002619212" x2="19.308427263500384" y1="-305.4742337125346" y2="-290.6829109498429" stroke-width="1" stroke="#234161" stroke-linecap="round"></line><line x1="290.0997500261921" x2="275.3084272635004" y1="-305.4742337125346" y2="-290.6829109498429" stroke-width="1" stroke="#234161" stroke-linecap="round"></line><line x1="546.0997500261922" x2="531.3084272635003" y1="-305.4742337125346" y2="-290.6829109498429" stroke-width="1" stroke="#234161" stroke-linecap="round"></line><line x1="34.09975002619212" x2="19.308427263500384" y1="-49.47423371253461" y2="-34.68291094984289" stroke-width="1" stroke="#234161" stroke-linecap="round"></line><line x1="290.0997500261921" x2="275.3084272635004" y1="-49.47423371253461" y2="-34.68291094984289" stroke-width="1" stroke="#234161" stroke-linecap="round"></line><line x1="546.0997500261922" x2="531.3084272635003" y1="-49.47423371253461" y2="-34.68291094984289" stroke-width="1" stroke="#234161" stroke-linecap="round"></line><line x1="34.09975002619212" x2="19.308427263500384" y1="206.5257662874654" y2="221.3170890501571" stroke-width="1" stroke="#234161" stroke-linecap="round"></line><line x1="290.0997500261921" x2="275.3084272635004" y1="206.5257662874654" y2="221.3170890501571" stroke-width="1" stroke="#234161" stroke-linecap="round"></line><line x1="546.0997500261922" x2="531.3084272635003" y1="206.5257662874654" y2="221.3170890501571" stroke-width="1" stroke="#234161" stroke-linecap="round"></line><line x1="208.06488072640312" x2="193.18966533960688" y1="73.08836945746343" y2="87.96358484425964" stroke-width="1" stroke="#234161" stroke-linecap="round"></line><line x1="208.06488072640312" x2="193.18966533960688" y1="-438.91163054253656" y2="-424.03641515574037" stroke-width="1" stroke="#234161" stroke-linecap="round"></line><line x1="464.0648807264031" x2="449.1896653396069" y1="-438.91163054253656" y2="-424.03641515574037" stroke-width="1" stroke="#234161" stroke-linecap="round"></line><line x1="720.0648807264031" x2="705.1896653396069" y1="-438.91163054253656" y2="-424.03641515574037" stroke-width="1" stroke="#234161" stroke-linecap="round"></line><line x1="208.06488072640312" x2="193.18966533960688" y1="-182.91163054253656" y2="-168.03641515574037" stroke-width="1" stroke="#234161" stroke-linecap="round"></line><line x1="464.0648807264031" x2="449.1896653396069" y1="-182.91163054253656" y2="-168.03641515574037" stroke-width="1" stroke="#234161" stroke-linecap="round"></line><line x1="720.0648807264031" x2="705.1896653396069" y1="-182.91163054253656" y2="-168.03641515574037" stroke-width="1" stroke="#234161" stroke-linecap="round"></line><line x1="208.06488072640312" x2="193.18966533960688" y1="73.08836945746343" y2="87.96358484425964" stroke-width="1" stroke="#234161" stroke-linecap="round"></line><line x1="464.0648807264031" x2="449.1896653396069" y1="73.08836945746343" y2="87.96358484425964" stroke-width="1" stroke="#234161" stroke-linecap="round"></line><line x1="720.0648807264031" x2="705.1896653396069" y1="73.08836945746343" y2="87.96358484425964" stroke-width="1" stroke="#234161" stroke-linecap="round"></line>
  <animateTransform attributeName="transform" type="translate" values="0 0;-256 256" keyTimes="0;1" repeatCount="indefinite" dur="0.4444444444444444s"></animateTransform>
</g></g></svg>