<?xml version="1.0" encoding="utf-8"?>
<svg xmlns="http://www.w3.org/2000/svg" xmlns:xlink="http://www.w3.org/1999/xlink" style="background: rgb(22, 40, 55); display: block; position: relative; shape-rendering: auto;" width="174" height="174" preserveAspectRatio="xMidYMid" viewBox="0 0 174 174"><g transform="scale(0.6799999999999999)"><g>
  <line x1="104.27523735155529" x2="94.20793601488953" y1="126.94465683757903" y2="137.0119581742448" stroke-width="1" stroke="rgba(49, 63, 74, 0.1962953629032258)" stroke-linecap="round"></line><line x1="104.27523735155529" x2="94.20793601488953" y1="-385.05534316242097" y2="-374.9880418257552" stroke-width="1" stroke="rgba(49, 63, 74, 0.1962953629032258)" stroke-linecap="round"></line><line x1="360.2752373515553" x2="350.2079360148895" y1="-385.05534316242097" y2="-374.9880418257552" stroke-width="1" stroke="rgba(49, 63, 74, 0.1962953629032258)" stroke-linecap="round"></line><line x1="616.2752373515552" x2="606.2079360148896" y1="-385.05534316242097" y2="-374.9880418257552" stroke-width="1" stroke="rgba(49, 63, 74, 0.1962953629032258)" stroke-linecap="round"></line><line x1="104.27523735155529" x2="94.20793601488953" y1="-129.05534316242097" y2="-118.9880418257552" stroke-width="1" stroke="rgba(49, 63, 74, 0.1962953629032258)" stroke-linecap="round"></line><line x1="360.2752373515553" x2="350.2079360148895" y1="-129.05534316242097" y2="-118.9880418257552" stroke-width="1" stroke="rgba(49, 63, 74, 0.1962953629032258)" stroke-linecap="round"></line><line x1="616.2752373515552" x2="606.2079360148896" y1="-129.05534316242097" y2="-118.9880418257552" stroke-width="1" stroke="rgba(49, 63, 74, 0.1962953629032258)" stroke-linecap="round"></line><line x1="104.27523735155529" x2="94.20793601488953" y1="126.94465683757903" y2="137.0119581742448" stroke-width="1" stroke="rgba(49, 63, 74, 0.1962953629032258)" stroke-linecap="round"></line><line x1="360.2752373515553" x2="350.2079360148895" y1="126.94465683757903" y2="137.0119581742448" stroke-width="1" stroke="rgba(49, 63, 74, 0.1962953629032258)" stroke-linecap="round"></line><line x1="616.2752373515552" x2="606.2079360148896" y1="126.94465683757903" y2="137.0119581742448" stroke-width="1" stroke="rgba(49, 63, 74, 0.1962953629032258)" stroke-linecap="round"></line><line x1="173.89776378508049" x2="154.26258082259466" y1="221.1759835240224" y2="240.81116648650823" stroke-width="1" stroke="rgba(49, 63, 74, 0.1962953629032258)" stroke-linecap="round"></line><line x1="173.89776378508049" x2="154.26258082259466" y1="-290.8240164759776" y2="-271.1888335134918" stroke-width="1" stroke="rgba(49, 63, 74, 0.1962953629032258)" stroke-linecap="round"></line><line x1="429.8977637850805" x2="410.26258082259466" y1="-290.8240164759776" y2="-271.1888335134918" stroke-width="1" stroke="rgba(49, 63, 74, 0.1962953629032258)" stroke-linecap="round"></line><line x1="685.8977637850805" x2="666.2625808225946" y1="-290.8240164759776" y2="-271.1888335134918" stroke-width="1" stroke="rgba(49, 63, 74, 0.1962953629032258)" stroke-linecap="round"></line><line x1="173.89776378508049" x2="154.26258082259466" y1="-34.8240164759776" y2="-15.188833513491772" stroke-width="1" stroke="rgba(49, 63, 74, 0.1962953629032258)" stroke-linecap="round"></line><line x1="429.8977637850805" x2="410.26258082259466" y1="-34.8240164759776" y2="-15.188833513491772" stroke-width="1" stroke="rgba(49, 63, 74, 0.1962953629032258)" stroke-linecap="round"></line><line x1="685.8977637850805" x2="666.2625808225946" y1="-34.8240164759776" y2="-15.188833513491772" stroke-width="1" stroke="rgba(49, 63, 74, 0.1962953629032258)" stroke-linecap="round"></line><line x1="173.89776378508049" x2="154.26258082259466" y1="221.1759835240224" y2="240.81116648650823" stroke-width="1" stroke="rgba(49, 63, 74, 0.1962953629032258)" stroke-linecap="round"></line><line x1="429.8977637850805" x2="410.26258082259466" y1="221.1759835240224" y2="240.81116648650823" stroke-width="1" stroke="rgba(49, 63, 74, 0.1962953629032258)" stroke-linecap="round"></line><line x1="685.8977637850805" x2="666.2625808225946" y1="221.1759835240224" y2="240.81116648650823" stroke-width="1" stroke="rgba(49, 63, 74, 0.1962953629032258)" stroke-linecap="round"></line><line x1="208.75043610546604" x2="190.49153956765466" y1="169.31901495869081" y2="187.5779114965022" stroke-width="1" stroke="rgba(49, 63, 74, 0.1962953629032258)" stroke-linecap="round"></line><line x1="208.75043610546604" x2="190.49153956765466" y1="-342.6809850413092" y2="-324.4220885034978" stroke-width="1" stroke="rgba(49, 63, 74, 0.1962953629032258)" stroke-linecap="round"></line><line x1="464.75043610546606" x2="446.4915395676546" y1="-342.6809850413092" y2="-324.4220885034978" stroke-width="1" stroke="rgba(49, 63, 74, 0.1962953629032258)" stroke-linecap="round"></line><line x1="720.7504361054661" x2="702.4915395676546" y1="-342.6809850413092" y2="-324.4220885034978" stroke-width="1" stroke="rgba(49, 63, 74, 0.1962953629032258)" stroke-linecap="round"></line><line x1="208.75043610546604" x2="190.49153956765466" y1="-86.68098504130919" y2="-68.4220885034978" stroke-width="1" stroke="rgba(49, 63, 74, 0.1962953629032258)" stroke-linecap="round"></line><line x1="464.75043610546606" x2="446.4915395676546" y1="-86.68098504130919" y2="-68.4220885034978" stroke-width="1" stroke="rgba(49, 63, 74, 0.1962953629032258)" stroke-linecap="round"></line><line x1="720.7504361054661" x2="702.4915395676546" y1="-86.68098504130919" y2="-68.4220885034978" stroke-width="1" stroke="rgba(49, 63, 74, 0.1962953629032258)" stroke-linecap="round"></line><line x1="208.75043610546604" x2="190.49153956765466" y1="169.31901495869081" y2="187.5779114965022" stroke-width="1" stroke="rgba(49, 63, 74, 0.1962953629032258)" stroke-linecap="round"></line><line x1="464.75043610546606" x2="446.4915395676546" y1="169.31901495869081" y2="187.5779114965022" stroke-width="1" stroke="rgba(49, 63, 74, 0.1962953629032258)" stroke-linecap="round"></line><line x1="720.7504361054661" x2="702.4915395676546" y1="169.31901495869081" y2="187.5779114965022" stroke-width="1" stroke="rgba(49, 63, 74, 0.1962953629032258)" stroke-linecap="round"></line><line x1="74.01663708294333" x2="62.41866430334964" y1="16.691305699716203" y2="28.289278479309893" stroke-width="1" stroke="#32414c" stroke-linecap="round"></line><line x1="74.01663708294333" x2="62.41866430334964" y1="-495.3086943002838" y2="-483.71072152069013" stroke-width="1" stroke="#32414c" stroke-linecap="round"></line><line x1="330.01663708294336" x2="318.41866430334966" y1="-495.3086943002838" y2="-483.71072152069013" stroke-width="1" stroke="#32414c" stroke-linecap="round"></line><line x1="586.0166370829434" x2="574.4186643033496" y1="-495.3086943002838" y2="-483.71072152069013" stroke-width="1" stroke="#32414c" stroke-linecap="round"></line><line x1="74.01663708294333" x2="62.41866430334964" y1="-239.3086943002838" y2="-227.7107215206901" stroke-width="1" stroke="#32414c" stroke-linecap="round"></line><line x1="330.01663708294336" x2="318.41866430334966" y1="-239.3086943002838" y2="-227.7107215206901" stroke-width="1" stroke="#32414c" stroke-linecap="round"></line><line x1="586.0166370829434" x2="574.4186643033496" y1="-239.3086943002838" y2="-227.7107215206901" stroke-width="1" stroke="#32414c" stroke-linecap="round"></line><line x1="74.01663708294333" x2="62.41866430334964" y1="16.691305699716203" y2="28.289278479309893" stroke-width="1" stroke="#32414c" stroke-linecap="round"></line><line x1="330.01663708294336" x2="318.41866430334966" y1="16.691305699716203" y2="28.289278479309893" stroke-width="1" stroke="#32414c" stroke-linecap="round"></line><line x1="586.0166370829434" x2="574.4186643033496" y1="16.691305699716203" y2="28.289278479309893" stroke-width="1" stroke="#32414c" stroke-linecap="round"></line><line x1="61.394268465922984" x2="49.77870248509944" y1="122.6717704455236" y2="134.28733642634714" stroke-width="1" stroke="rgba(49, 63, 74, 0.1962953629032258)" stroke-linecap="round"></line><line x1="61.394268465922984" x2="49.77870248509944" y1="-389.32822955447637" y2="-377.7126635736529" stroke-width="1" stroke="rgba(49, 63, 74, 0.1962953629032258)" stroke-linecap="round"></line><line x1="317.394268465923" x2="305.7787024850994" y1="-389.32822955447637" y2="-377.7126635736529" stroke-width="1" stroke="rgba(49, 63, 74, 0.1962953629032258)" stroke-linecap="round"></line><line x1="573.394268465923" x2="561.7787024850994" y1="-389.32822955447637" y2="-377.7126635736529" stroke-width="1" stroke="rgba(49, 63, 74, 0.1962953629032258)" stroke-linecap="round"></line><line x1="61.394268465922984" x2="49.77870248509944" y1="-133.3282295544764" y2="-121.71266357365286" stroke-width="1" stroke="rgba(49, 63, 74, 0.1962953629032258)" stroke-linecap="round"></line><line x1="317.394268465923" x2="305.7787024850994" y1="-133.3282295544764" y2="-121.71266357365286" stroke-width="1" stroke="rgba(49, 63, 74, 0.1962953629032258)" stroke-linecap="round"></line><line x1="573.394268465923" x2="561.7787024850994" y1="-133.3282295544764" y2="-121.71266357365286" stroke-width="1" stroke="rgba(49, 63, 74, 0.1962953629032258)" stroke-linecap="round"></line><line x1="61.394268465922984" x2="49.77870248509944" y1="122.6717704455236" y2="134.28733642634714" stroke-width="1" stroke="rgba(49, 63, 74, 0.1962953629032258)" stroke-linecap="round"></line><line x1="317.394268465923" x2="305.7787024850994" y1="122.6717704455236" y2="134.28733642634714" stroke-width="1" stroke="rgba(49, 63, 74, 0.1962953629032258)" stroke-linecap="round"></line><line x1="573.394268465923" x2="561.7787024850994" y1="122.6717704455236" y2="134.28733642634714" stroke-width="1" stroke="rgba(49, 63, 74, 0.1962953629032258)" stroke-linecap="round"></line><line x1="123.20616248141404" x2="103.83454794785449" y1="97.14812321827013" y2="116.51973775182968" stroke-width="1" stroke="rgba(49, 63, 74, 0.1962953629032258)" stroke-linecap="round"></line><line x1="123.20616248141404" x2="103.83454794785449" y1="-414.85187678172986" y2="-395.48026224817033" stroke-width="1" stroke="rgba(49, 63, 74, 0.1962953629032258)" stroke-linecap="round"></line><line x1="379.206162481414" x2="359.8345479478545" y1="-414.85187678172986" y2="-395.48026224817033" stroke-width="1" stroke="rgba(49, 63, 74, 0.1962953629032258)" stroke-linecap="round"></line><line x1="635.206162481414" x2="615.8345479478545" y1="-414.85187678172986" y2="-395.48026224817033" stroke-width="1" stroke="rgba(49, 63, 74, 0.1962953629032258)" stroke-linecap="round"></line><line x1="123.20616248141404" x2="103.83454794785449" y1="-158.85187678172986" y2="-139.48026224817033" stroke-width="1" stroke="rgba(49, 63, 74, 0.1962953629032258)" stroke-linecap="round"></line><line x1="379.206162481414" x2="359.8345479478545" y1="-158.85187678172986" y2="-139.48026224817033" stroke-width="1" stroke="rgba(49, 63, 74, 0.1962953629032258)" stroke-linecap="round"></line><line x1="635.206162481414" x2="615.8345479478545" y1="-158.85187678172986" y2="-139.48026224817033" stroke-width="1" stroke="rgba(49, 63, 74, 0.1962953629032258)" stroke-linecap="round"></line><line x1="123.20616248141404" x2="103.83454794785449" y1="97.14812321827013" y2="116.51973775182968" stroke-width="1" stroke="rgba(49, 63, 74, 0.1962953629032258)" stroke-linecap="round"></line><line x1="379.206162481414" x2="359.8345479478545" y1="97.14812321827013" y2="116.51973775182968" stroke-width="1" stroke="rgba(49, 63, 74, 0.1962953629032258)" stroke-linecap="round"></line><line x1="635.206162481414" x2="615.8345479478545" y1="97.14812321827013" y2="116.51973775182968" stroke-width="1" stroke="rgba(49, 63, 74, 0.1962953629032258)" stroke-linecap="round"></line>
  <animateTransform attributeName="transform" type="translate" values="0 0;-256 256" keyTimes="0;1" repeatCount="indefinite" dur="2.5s"></animateTransform>
</g><g>
  <line x1="77.60388752357235" x2="57.61648852220579" y1="86.76054475912215" y2="106.74794376048871" stroke-width="1" stroke="rgba(49, 63, 74, 0.1962953629032258)" stroke-linecap="round"></line><line x1="77.60388752357235" x2="57.61648852220579" y1="-425.2394552408779" y2="-405.25205623951126" stroke-width="1" stroke="rgba(49, 63, 74, 0.1962953629032258)" stroke-linecap="round"></line><line x1="333.6038875235723" x2="313.61648852220577" y1="-425.2394552408779" y2="-405.25205623951126" stroke-width="1" stroke="rgba(49, 63, 74, 0.1962953629032258)" stroke-linecap="round"></line><line x1="589.6038875235723" x2="569.6164885222058" y1="-425.2394552408779" y2="-405.25205623951126" stroke-width="1" stroke="rgba(49, 63, 74, 0.1962953629032258)" stroke-linecap="round"></line><line x1="77.60388752357235" x2="57.61648852220579" y1="-169.23945524087785" y2="-149.2520562395113" stroke-width="1" stroke="rgba(49, 63, 74, 0.1962953629032258)" stroke-linecap="round"></line><line x1="333.6038875235723" x2="313.61648852220577" y1="-169.23945524087785" y2="-149.2520562395113" stroke-width="1" stroke="rgba(49, 63, 74, 0.1962953629032258)" stroke-linecap="round"></line><line x1="589.6038875235723" x2="569.6164885222058" y1="-169.23945524087785" y2="-149.2520562395113" stroke-width="1" stroke="rgba(49, 63, 74, 0.1962953629032258)" stroke-linecap="round"></line><line x1="77.60388752357235" x2="57.61648852220579" y1="86.76054475912215" y2="106.74794376048871" stroke-width="1" stroke="rgba(49, 63, 74, 0.1962953629032258)" stroke-linecap="round"></line><line x1="333.6038875235723" x2="313.61648852220577" y1="86.76054475912215" y2="106.74794376048871" stroke-width="1" stroke="rgba(49, 63, 74, 0.1962953629032258)" stroke-linecap="round"></line><line x1="589.6038875235723" x2="569.6164885222058" y1="86.76054475912215" y2="106.74794376048871" stroke-width="1" stroke="rgba(49, 63, 74, 0.1962953629032258)" stroke-linecap="round"></line><line x1="118.4004676808607" x2="102.56022638318522" y1="226.4857314991454" y2="242.32597279682085" stroke-width="1" stroke="#32414c" stroke-linecap="round"></line><line x1="118.4004676808607" x2="102.56022638318522" y1="-285.5142685008546" y2="-269.67402720317915" stroke-width="1" stroke="#32414c" stroke-linecap="round"></line><line x1="374.4004676808607" x2="358.56022638318524" y1="-285.5142685008546" y2="-269.67402720317915" stroke-width="1" stroke="#32414c" stroke-linecap="round"></line><line x1="630.4004676808607" x2="614.5602263831852" y1="-285.5142685008546" y2="-269.67402720317915" stroke-width="1" stroke="#32414c" stroke-linecap="round"></line><line x1="118.4004676808607" x2="102.56022638318522" y1="-29.514268500854598" y2="-13.67402720317915" stroke-width="1" stroke="#32414c" stroke-linecap="round"></line><line x1="374.4004676808607" x2="358.56022638318524" y1="-29.514268500854598" y2="-13.67402720317915" stroke-width="1" stroke="#32414c" stroke-linecap="round"></line><line x1="630.4004676808607" x2="614.5602263831852" y1="-29.514268500854598" y2="-13.67402720317915" stroke-width="1" stroke="#32414c" stroke-linecap="round"></line><line x1="118.4004676808607" x2="102.56022638318522" y1="226.4857314991454" y2="242.32597279682085" stroke-width="1" stroke="#32414c" stroke-linecap="round"></line><line x1="374.4004676808607" x2="358.56022638318524" y1="226.4857314991454" y2="242.32597279682085" stroke-width="1" stroke="#32414c" stroke-linecap="round"></line><line x1="630.4004676808607" x2="614.5602263831852" y1="226.4857314991454" y2="242.32597279682085" stroke-width="1" stroke="#32414c" stroke-linecap="round"></line><line x1="180.26489637947452" x2="157.38435967397436" y1="39.623104517293086" y2="62.50364122279325" stroke-width="1" stroke="#32414c" stroke-linecap="round"></line><line x1="180.26489637947452" x2="157.38435967397436" y1="-472.3768954827069" y2="-449.49635877720675" stroke-width="1" stroke="#32414c" stroke-linecap="round"></line><line x1="436.2648963794745" x2="413.38435967397436" y1="-472.3768954827069" y2="-449.49635877720675" stroke-width="1" stroke="#32414c" stroke-linecap="round"></line><line x1="692.2648963794745" x2="669.3843596739744" y1="-472.3768954827069" y2="-449.49635877720675" stroke-width="1" stroke="#32414c" stroke-linecap="round"></line><line x1="180.26489637947452" x2="157.38435967397436" y1="-216.3768954827069" y2="-193.49635877720675" stroke-width="1" stroke="#32414c" stroke-linecap="round"></line><line x1="436.2648963794745" x2="413.38435967397436" y1="-216.3768954827069" y2="-193.49635877720675" stroke-width="1" stroke="#32414c" stroke-linecap="round"></line><line x1="692.2648963794745" x2="669.3843596739744" y1="-216.3768954827069" y2="-193.49635877720675" stroke-width="1" stroke="#32414c" stroke-linecap="round"></line><line x1="180.26489637947452" x2="157.38435967397436" y1="39.623104517293086" y2="62.50364122279325" stroke-width="1" stroke="#32414c" stroke-linecap="round"></line><line x1="436.2648963794745" x2="413.38435967397436" y1="39.623104517293086" y2="62.50364122279325" stroke-width="1" stroke="#32414c" stroke-linecap="round"></line><line x1="692.2648963794745" x2="669.3843596739744" y1="39.623104517293086" y2="62.50364122279325" stroke-width="1" stroke="#32414c" stroke-linecap="round"></line><line x1="26.842641315670082" x2="11.464484314372296" y1="21.368949703109674" y2="36.74710670440746" stroke-width="1" stroke="#32414c" stroke-linecap="round"></line><line x1="26.842641315670082" x2="11.464484314372296" y1="-490.63105029689035" y2="-475.25289329559257" stroke-width="1" stroke="#32414c" stroke-linecap="round"></line><line x1="282.8426413156701" x2="267.46448431437227" y1="-490.63105029689035" y2="-475.25289329559257" stroke-width="1" stroke="#32414c" stroke-linecap="round"></line><line x1="538.8426413156701" x2="523.4644843143723" y1="-490.63105029689035" y2="-475.25289329559257" stroke-width="1" stroke="#32414c" stroke-linecap="round"></line><line x1="26.842641315670082" x2="11.464484314372296" y1="-234.63105029689032" y2="-219.25289329559254" stroke-width="1" stroke="#32414c" stroke-linecap="round"></line><line x1="282.8426413156701" x2="267.46448431437227" y1="-234.63105029689032" y2="-219.25289329559254" stroke-width="1" stroke="#32414c" stroke-linecap="round"></line><line x1="538.8426413156701" x2="523.4644843143723" y1="-234.63105029689032" y2="-219.25289329559254" stroke-width="1" stroke="#32414c" stroke-linecap="round"></line><line x1="26.842641315670082" x2="11.464484314372296" y1="21.368949703109674" y2="36.74710670440746" stroke-width="1" stroke="#32414c" stroke-linecap="round"></line><line x1="282.8426413156701" x2="267.46448431437227" y1="21.368949703109674" y2="36.74710670440746" stroke-width="1" stroke="#32414c" stroke-linecap="round"></line><line x1="538.8426413156701" x2="523.4644843143723" y1="21.368949703109674" y2="36.74710670440746" stroke-width="1" stroke="#32414c" stroke-linecap="round"></line><line x1="104.9882670696174" x2="86.83108340833581" y1="159.21922097066596" y2="177.37640463194754" stroke-width="1" stroke="#32414c" stroke-linecap="round"></line><line x1="104.9882670696174" x2="86.83108340833581" y1="-352.78077902933404" y2="-334.62359536805246" stroke-width="1" stroke="#32414c" stroke-linecap="round"></line><line x1="360.9882670696174" x2="342.8310834083358" y1="-352.78077902933404" y2="-334.62359536805246" stroke-width="1" stroke="#32414c" stroke-linecap="round"></line><line x1="616.9882670696175" x2="598.8310834083359" y1="-352.78077902933404" y2="-334.62359536805246" stroke-width="1" stroke="#32414c" stroke-linecap="round"></line><line x1="104.9882670696174" x2="86.83108340833581" y1="-96.78077902933404" y2="-78.62359536805246" stroke-width="1" stroke="#32414c" stroke-linecap="round"></line><line x1="360.9882670696174" x2="342.8310834083358" y1="-96.78077902933404" y2="-78.62359536805246" stroke-width="1" stroke="#32414c" stroke-linecap="round"></line><line x1="616.9882670696175" x2="598.8310834083359" y1="-96.78077902933404" y2="-78.62359536805246" stroke-width="1" stroke="#32414c" stroke-linecap="round"></line><line x1="104.9882670696174" x2="86.83108340833581" y1="159.21922097066596" y2="177.37640463194754" stroke-width="1" stroke="#32414c" stroke-linecap="round"></line><line x1="360.9882670696174" x2="342.8310834083358" y1="159.21922097066596" y2="177.37640463194754" stroke-width="1" stroke="#32414c" stroke-linecap="round"></line><line x1="616.9882670696175" x2="598.8310834083359" y1="159.21922097066596" y2="177.37640463194754" stroke-width="1" stroke="#32414c" stroke-linecap="round"></line><line x1="9.857063839770039" x2="-8.577253255176291" y1="210.72515016144786" y2="229.15946725639418" stroke-width="1" stroke="#32414c" stroke-linecap="round"></line><line x1="9.857063839770039" x2="-8.577253255176291" y1="-301.27484983855214" y2="-282.8405327436058" stroke-width="1" stroke="#32414c" stroke-linecap="round"></line><line x1="265.85706383977003" x2="247.4227467448237" y1="-301.27484983855214" y2="-282.8405327436058" stroke-width="1" stroke="#32414c" stroke-linecap="round"></line><line x1="521.85706383977" x2="503.4227467448237" y1="-301.27484983855214" y2="-282.8405327436058" stroke-width="1" stroke="#32414c" stroke-linecap="round"></line><line x1="9.857063839770039" x2="-8.577253255176291" y1="-45.27484983855214" y2="-26.84053274360582" stroke-width="1" stroke="#32414c" stroke-linecap="round"></line><line x1="265.85706383977003" x2="247.4227467448237" y1="-45.27484983855214" y2="-26.84053274360582" stroke-width="1" stroke="#32414c" stroke-linecap="round"></line><line x1="521.85706383977" x2="503.4227467448237" y1="-45.27484983855214" y2="-26.84053274360582" stroke-width="1" stroke="#32414c" stroke-linecap="round"></line><line x1="9.857063839770039" x2="-8.577253255176291" y1="210.72515016144786" y2="229.15946725639418" stroke-width="1" stroke="#32414c" stroke-linecap="round"></line><line x1="265.85706383977003" x2="247.4227467448237" y1="210.72515016144786" y2="229.15946725639418" stroke-width="1" stroke="#32414c" stroke-linecap="round"></line><line x1="521.85706383977" x2="503.4227467448237" y1="210.72515016144786" y2="229.15946725639418" stroke-width="1" stroke="#32414c" stroke-linecap="round"></line>
  <animateTransform attributeName="transform" type="translate" values="0 0;-256 256" keyTimes="0;1" repeatCount="indefinite" dur="1.25s"></animateTransform>
</g><g>
  <line x1="135.11455825433274" x2="123.15131162415554" y1="52.59085726199259" y2="64.55410389216979" stroke-width="1" stroke="#32414c" stroke-linecap="round"></line><line x1="135.11455825433274" x2="123.15131162415554" y1="-459.4091427380074" y2="-447.4458961078302" stroke-width="1" stroke="#32414c" stroke-linecap="round"></line><line x1="391.11455825433274" x2="379.15131162415554" y1="-459.4091427380074" y2="-447.4458961078302" stroke-width="1" stroke="#32414c" stroke-linecap="round"></line><line x1="647.1145582543327" x2="635.1513116241556" y1="-459.4091427380074" y2="-447.4458961078302" stroke-width="1" stroke="#32414c" stroke-linecap="round"></line><line x1="135.11455825433274" x2="123.15131162415554" y1="-203.4091427380074" y2="-191.4458961078302" stroke-width="1" stroke="#32414c" stroke-linecap="round"></line><line x1="391.11455825433274" x2="379.15131162415554" y1="-203.4091427380074" y2="-191.4458961078302" stroke-width="1" stroke="#32414c" stroke-linecap="round"></line><line x1="647.1145582543327" x2="635.1513116241556" y1="-203.4091427380074" y2="-191.4458961078302" stroke-width="1" stroke="#32414c" stroke-linecap="round"></line><line x1="135.11455825433274" x2="123.15131162415554" y1="52.59085726199259" y2="64.55410389216979" stroke-width="1" stroke="#32414c" stroke-linecap="round"></line><line x1="391.11455825433274" x2="379.15131162415554" y1="52.59085726199259" y2="64.55410389216979" stroke-width="1" stroke="#32414c" stroke-linecap="round"></line><line x1="647.1145582543327" x2="635.1513116241556" y1="52.59085726199259" y2="64.55410389216979" stroke-width="1" stroke="#32414c" stroke-linecap="round"></line><line x1="18.28755428172868" x2="2.7715328308980016" y1="147.76633929187417" y2="163.28236074270487" stroke-width="1" stroke="#32414c" stroke-linecap="round"></line><line x1="18.28755428172868" x2="2.7715328308980016" y1="-364.23366070812585" y2="-348.7176392572951" stroke-width="1" stroke="#32414c" stroke-linecap="round"></line><line x1="274.28755428172866" x2="258.771532830898" y1="-364.23366070812585" y2="-348.7176392572951" stroke-width="1" stroke="#32414c" stroke-linecap="round"></line><line x1="530.2875542817287" x2="514.771532830898" y1="-364.23366070812585" y2="-348.7176392572951" stroke-width="1" stroke="#32414c" stroke-linecap="round"></line><line x1="18.28755428172868" x2="2.7715328308980016" y1="-108.23366070812583" y2="-92.71763925729513" stroke-width="1" stroke="#32414c" stroke-linecap="round"></line><line x1="274.28755428172866" x2="258.771532830898" y1="-108.23366070812583" y2="-92.71763925729513" stroke-width="1" stroke="#32414c" stroke-linecap="round"></line><line x1="530.2875542817287" x2="514.771532830898" y1="-108.23366070812583" y2="-92.71763925729513" stroke-width="1" stroke="#32414c" stroke-linecap="round"></line><line x1="18.28755428172868" x2="2.7715328308980016" y1="147.76633929187417" y2="163.28236074270487" stroke-width="1" stroke="#32414c" stroke-linecap="round"></line><line x1="274.28755428172866" x2="258.771532830898" y1="147.76633929187417" y2="163.28236074270487" stroke-width="1" stroke="#32414c" stroke-linecap="round"></line><line x1="530.2875542817287" x2="514.771532830898" y1="147.76633929187417" y2="163.28236074270487" stroke-width="1" stroke="#32414c" stroke-linecap="round"></line><line x1="39.46582719677055" x2="19.885437404198324" y1="115.96369118994743" y2="135.54408098251966" stroke-width="1" stroke="#32414c" stroke-linecap="round"></line><line x1="39.46582719677055" x2="19.885437404198324" y1="-396.03630881005256" y2="-376.45591901748037" stroke-width="1" stroke="#32414c" stroke-linecap="round"></line><line x1="295.46582719677053" x2="275.88543740419834" y1="-396.03630881005256" y2="-376.45591901748037" stroke-width="1" stroke="#32414c" stroke-linecap="round"></line><line x1="551.4658271967705" x2="531.8854374041983" y1="-396.03630881005256" y2="-376.45591901748037" stroke-width="1" stroke="#32414c" stroke-linecap="round"></line><line x1="39.46582719677055" x2="19.885437404198324" y1="-140.03630881005256" y2="-120.45591901748034" stroke-width="1" stroke="#32414c" stroke-linecap="round"></line><line x1="295.46582719677053" x2="275.88543740419834" y1="-140.03630881005256" y2="-120.45591901748034" stroke-width="1" stroke="#32414c" stroke-linecap="round"></line><line x1="551.4658271967705" x2="531.8854374041983" y1="-140.03630881005256" y2="-120.45591901748034" stroke-width="1" stroke="#32414c" stroke-linecap="round"></line><line x1="39.46582719677055" x2="19.885437404198324" y1="115.96369118994743" y2="135.54408098251966" stroke-width="1" stroke="#32414c" stroke-linecap="round"></line><line x1="295.46582719677053" x2="275.88543740419834" y1="115.96369118994743" y2="135.54408098251966" stroke-width="1" stroke="#32414c" stroke-linecap="round"></line><line x1="551.4658271967705" x2="531.8854374041983" y1="115.96369118994743" y2="135.54408098251966" stroke-width="1" stroke="#32414c" stroke-linecap="round"></line><line x1="233.84920958869458" x2="213.35055094798446" y1="204.6795687093018" y2="225.17822735001192" stroke-width="1" stroke="#32414c" stroke-linecap="round"></line><line x1="233.84920958869458" x2="213.35055094798446" y1="-307.3204312906982" y2="-286.8217726499881" stroke-width="1" stroke="#32414c" stroke-linecap="round"></line><line x1="489.8492095886946" x2="469.35055094798446" y1="-307.3204312906982" y2="-286.8217726499881" stroke-width="1" stroke="#32414c" stroke-linecap="round"></line><line x1="745.8492095886945" x2="725.3505509479844" y1="-307.3204312906982" y2="-286.8217726499881" stroke-width="1" stroke="#32414c" stroke-linecap="round"></line><line x1="233.84920958869458" x2="213.35055094798446" y1="-51.320431290698195" y2="-30.821772649988077" stroke-width="1" stroke="#32414c" stroke-linecap="round"></line><line x1="489.8492095886946" x2="469.35055094798446" y1="-51.320431290698195" y2="-30.821772649988077" stroke-width="1" stroke="#32414c" stroke-linecap="round"></line><line x1="745.8492095886945" x2="725.3505509479844" y1="-51.320431290698195" y2="-30.821772649988077" stroke-width="1" stroke="#32414c" stroke-linecap="round"></line><line x1="233.84920958869458" x2="213.35055094798446" y1="204.6795687093018" y2="225.17822735001192" stroke-width="1" stroke="#32414c" stroke-linecap="round"></line><line x1="489.8492095886946" x2="469.35055094798446" y1="204.6795687093018" y2="225.17822735001192" stroke-width="1" stroke="#32414c" stroke-linecap="round"></line><line x1="745.8492095886945" x2="725.3505509479844" y1="204.6795687093018" y2="225.17822735001192" stroke-width="1" stroke="#32414c" stroke-linecap="round"></line><line x1="136.96236173051236" x2="129.39346552962652" y1="204.5827589007499" y2="212.15165510163573" stroke-width="1" stroke="#32414c" stroke-linecap="round"></line><line x1="136.96236173051236" x2="129.39346552962652" y1="-307.4172410992501" y2="-299.8483448983643" stroke-width="1" stroke="#32414c" stroke-linecap="round"></line><line x1="392.9623617305124" x2="385.3934655296265" y1="-307.4172410992501" y2="-299.8483448983643" stroke-width="1" stroke="#32414c" stroke-linecap="round"></line><line x1="648.9623617305124" x2="641.3934655296265" y1="-307.4172410992501" y2="-299.8483448983643" stroke-width="1" stroke="#32414c" stroke-linecap="round"></line><line x1="136.96236173051236" x2="129.39346552962652" y1="-51.417241099250106" y2="-43.848344898364275" stroke-width="1" stroke="#32414c" stroke-linecap="round"></line><line x1="392.9623617305124" x2="385.3934655296265" y1="-51.417241099250106" y2="-43.848344898364275" stroke-width="1" stroke="#32414c" stroke-linecap="round"></line><line x1="648.9623617305124" x2="641.3934655296265" y1="-51.417241099250106" y2="-43.848344898364275" stroke-width="1" stroke="#32414c" stroke-linecap="round"></line><line x1="136.96236173051236" x2="129.39346552962652" y1="204.5827589007499" y2="212.15165510163573" stroke-width="1" stroke="#32414c" stroke-linecap="round"></line><line x1="392.9623617305124" x2="385.3934655296265" y1="204.5827589007499" y2="212.15165510163573" stroke-width="1" stroke="#32414c" stroke-linecap="round"></line><line x1="648.9623617305124" x2="641.3934655296265" y1="204.5827589007499" y2="212.15165510163573" stroke-width="1" stroke="#32414c" stroke-linecap="round"></line><line x1="50.79599785824409" x2="35.188181528380554" y1="154.92085356058135" y2="170.52866989044492" stroke-width="1" stroke="#32414c" stroke-linecap="round"></line><line x1="50.79599785824409" x2="35.188181528380554" y1="-357.07914643941865" y2="-341.4713301095551" stroke-width="1" stroke="#32414c" stroke-linecap="round"></line><line x1="306.7959978582441" x2="291.18818152838054" y1="-357.07914643941865" y2="-341.4713301095551" stroke-width="1" stroke="#32414c" stroke-linecap="round"></line><line x1="562.795997858244" x2="547.1881815283806" y1="-357.07914643941865" y2="-341.4713301095551" stroke-width="1" stroke="#32414c" stroke-linecap="round"></line><line x1="50.79599785824409" x2="35.188181528380554" y1="-101.07914643941865" y2="-85.47133010955508" stroke-width="1" stroke="#32414c" stroke-linecap="round"></line><line x1="306.7959978582441" x2="291.18818152838054" y1="-101.07914643941865" y2="-85.47133010955508" stroke-width="1" stroke="#32414c" stroke-linecap="round"></line><line x1="562.795997858244" x2="547.1881815283806" y1="-101.07914643941865" y2="-85.47133010955508" stroke-width="1" stroke="#32414c" stroke-linecap="round"></line><line x1="50.79599785824409" x2="35.188181528380554" y1="154.92085356058135" y2="170.52866989044492" stroke-width="1" stroke="#32414c" stroke-linecap="round"></line><line x1="306.7959978582441" x2="291.18818152838054" y1="154.92085356058135" y2="170.52866989044492" stroke-width="1" stroke="#32414c" stroke-linecap="round"></line><line x1="562.795997858244" x2="547.1881815283806" y1="154.92085356058135" y2="170.52866989044492" stroke-width="1" stroke="#32414c" stroke-linecap="round"></line>
  <animateTransform attributeName="transform" type="translate" values="0 0;-256 256" keyTimes="0;1" repeatCount="indefinite" dur="0.8333333333333333s"></animateTransform>
</g></g></svg>