<?xml version="1.0" encoding="utf-8"?>
<svg xmlns="http://www.w3.org/2000/svg" xmlns:xlink="http://www.w3.org/1999/xlink" style="background: rgb(22, 40, 55); display: block; position: relative; shape-rendering: auto;" width="174" height="174" preserveAspectRatio="xMidYMid" viewBox="0 0 174 174"><g transform="scale(0.6799999999999999)"><g>
  <line x1="216.50570068834992" x2="203.63961301055446" y1="158.91965389191358" y2="171.78574156970905" stroke-width="1" stroke="rgba(49, 63, 74, 0.1962953629032258)" stroke-linecap="round"></line><line x1="216.50570068834992" x2="203.63961301055446" y1="-353.0803461080864" y2="-340.21425843029095" stroke-width="1" stroke="rgba(49, 63, 74, 0.1962953629032258)" stroke-linecap="round"></line><line x1="472.5057006883499" x2="459.63961301055446" y1="-353.0803461080864" y2="-340.21425843029095" stroke-width="1" stroke="rgba(49, 63, 74, 0.1962953629032258)" stroke-linecap="round"></line><line x1="728.5057006883499" x2="715.6396130105545" y1="-353.0803461080864" y2="-340.21425843029095" stroke-width="1" stroke="rgba(49, 63, 74, 0.1962953629032258)" stroke-linecap="round"></line><line x1="216.50570068834992" x2="203.63961301055446" y1="-97.08034610808642" y2="-84.21425843029095" stroke-width="1" stroke="rgba(49, 63, 74, 0.1962953629032258)" stroke-linecap="round"></line><line x1="472.5057006883499" x2="459.63961301055446" y1="-97.08034610808642" y2="-84.21425843029095" stroke-width="1" stroke="rgba(49, 63, 74, 0.1962953629032258)" stroke-linecap="round"></line><line x1="728.5057006883499" x2="715.6396130105545" y1="-97.08034610808642" y2="-84.21425843029095" stroke-width="1" stroke="rgba(49, 63, 74, 0.1962953629032258)" stroke-linecap="round"></line><line x1="216.50570068834992" x2="203.63961301055446" y1="158.91965389191358" y2="171.78574156970905" stroke-width="1" stroke="rgba(49, 63, 74, 0.1962953629032258)" stroke-linecap="round"></line><line x1="472.5057006883499" x2="459.63961301055446" y1="158.91965389191358" y2="171.78574156970905" stroke-width="1" stroke="rgba(49, 63, 74, 0.1962953629032258)" stroke-linecap="round"></line><line x1="728.5057006883499" x2="715.6396130105545" y1="158.91965389191358" y2="171.78574156970905" stroke-width="1" stroke="rgba(49, 63, 74, 0.1962953629032258)" stroke-linecap="round"></line><line x1="173.54024068262154" x2="160.3847915067955" y1="68.07458379714123" y2="81.23003297296728" stroke-width="1" stroke="rgba(49, 63, 74, 0.1962953629032258)" stroke-linecap="round"></line><line x1="173.54024068262154" x2="160.3847915067955" y1="-443.92541620285874" y2="-430.76996702703275" stroke-width="1" stroke="rgba(49, 63, 74, 0.1962953629032258)" stroke-linecap="round"></line><line x1="429.5402406826215" x2="416.3847915067955" y1="-443.92541620285874" y2="-430.76996702703275" stroke-width="1" stroke="rgba(49, 63, 74, 0.1962953629032258)" stroke-linecap="round"></line><line x1="685.5402406826215" x2="672.3847915067955" y1="-443.92541620285874" y2="-430.76996702703275" stroke-width="1" stroke="rgba(49, 63, 74, 0.1962953629032258)" stroke-linecap="round"></line><line x1="173.54024068262154" x2="160.3847915067955" y1="-187.92541620285877" y2="-174.76996702703272" stroke-width="1" stroke="rgba(49, 63, 74, 0.1962953629032258)" stroke-linecap="round"></line><line x1="429.5402406826215" x2="416.3847915067955" y1="-187.92541620285877" y2="-174.76996702703272" stroke-width="1" stroke="rgba(49, 63, 74, 0.1962953629032258)" stroke-linecap="round"></line><line x1="685.5402406826215" x2="672.3847915067955" y1="-187.92541620285877" y2="-174.76996702703272" stroke-width="1" stroke="rgba(49, 63, 74, 0.1962953629032258)" stroke-linecap="round"></line><line x1="173.54024068262154" x2="160.3847915067955" y1="68.07458379714123" y2="81.23003297296728" stroke-width="1" stroke="rgba(49, 63, 74, 0.1962953629032258)" stroke-linecap="round"></line><line x1="429.5402406826215" x2="416.3847915067955" y1="68.07458379714123" y2="81.23003297296728" stroke-width="1" stroke="rgba(49, 63, 74, 0.1962953629032258)" stroke-linecap="round"></line><line x1="685.5402406826215" x2="672.3847915067955" y1="68.07458379714123" y2="81.23003297296728" stroke-width="1" stroke="rgba(49, 63, 74, 0.1962953629032258)" stroke-linecap="round"></line><line x1="31.2523682407003" x2="22.76254492903538" y1="106.61137028494598" y2="115.10119359661091" stroke-width="1" stroke="rgba(49, 63, 74, 0.1962953629032258)" stroke-linecap="round"></line><line x1="31.2523682407003" x2="22.76254492903538" y1="-405.38862971505404" y2="-396.8988064033891" stroke-width="1" stroke="rgba(49, 63, 74, 0.1962953629032258)" stroke-linecap="round"></line><line x1="287.2523682407003" x2="278.76254492903536" y1="-405.38862971505404" y2="-396.8988064033891" stroke-width="1" stroke="rgba(49, 63, 74, 0.1962953629032258)" stroke-linecap="round"></line><line x1="543.2523682407003" x2="534.7625449290354" y1="-405.38862971505404" y2="-396.8988064033891" stroke-width="1" stroke="rgba(49, 63, 74, 0.1962953629032258)" stroke-linecap="round"></line><line x1="31.2523682407003" x2="22.76254492903538" y1="-149.38862971505404" y2="-140.89880640338907" stroke-width="1" stroke="rgba(49, 63, 74, 0.1962953629032258)" stroke-linecap="round"></line><line x1="287.2523682407003" x2="278.76254492903536" y1="-149.38862971505404" y2="-140.89880640338907" stroke-width="1" stroke="rgba(49, 63, 74, 0.1962953629032258)" stroke-linecap="round"></line><line x1="543.2523682407003" x2="534.7625449290354" y1="-149.38862971505404" y2="-140.89880640338907" stroke-width="1" stroke="rgba(49, 63, 74, 0.1962953629032258)" stroke-linecap="round"></line><line x1="31.2523682407003" x2="22.76254492903538" y1="106.61137028494598" y2="115.10119359661091" stroke-width="1" stroke="rgba(49, 63, 74, 0.1962953629032258)" stroke-linecap="round"></line><line x1="287.2523682407003" x2="278.76254492903536" y1="106.61137028494598" y2="115.10119359661091" stroke-width="1" stroke="rgba(49, 63, 74, 0.1962953629032258)" stroke-linecap="round"></line><line x1="543.2523682407003" x2="534.7625449290354" y1="106.61137028494598" y2="115.10119359661091" stroke-width="1" stroke="rgba(49, 63, 74, 0.1962953629032258)" stroke-linecap="round"></line><line x1="221.46367758709184" x2="206.72358309285644" y1="133.35618945358974" y2="148.09628394782513" stroke-width="1" stroke="rgba(49, 63, 74, 0.1962953629032258)" stroke-linecap="round"></line><line x1="221.46367758709184" x2="206.72358309285644" y1="-378.64381054641024" y2="-363.9037160521749" stroke-width="1" stroke="rgba(49, 63, 74, 0.1962953629032258)" stroke-linecap="round"></line><line x1="477.46367758709187" x2="462.7235830928564" y1="-378.64381054641024" y2="-363.9037160521749" stroke-width="1" stroke="rgba(49, 63, 74, 0.1962953629032258)" stroke-linecap="round"></line><line x1="733.4636775870919" x2="718.7235830928564" y1="-378.64381054641024" y2="-363.9037160521749" stroke-width="1" stroke="rgba(49, 63, 74, 0.1962953629032258)" stroke-linecap="round"></line><line x1="221.46367758709184" x2="206.72358309285644" y1="-122.64381054641026" y2="-107.90371605217487" stroke-width="1" stroke="rgba(49, 63, 74, 0.1962953629032258)" stroke-linecap="round"></line><line x1="477.46367758709187" x2="462.7235830928564" y1="-122.64381054641026" y2="-107.90371605217487" stroke-width="1" stroke="rgba(49, 63, 74, 0.1962953629032258)" stroke-linecap="round"></line><line x1="733.4636775870919" x2="718.7235830928564" y1="-122.64381054641026" y2="-107.90371605217487" stroke-width="1" stroke="rgba(49, 63, 74, 0.1962953629032258)" stroke-linecap="round"></line><line x1="221.46367758709184" x2="206.72358309285644" y1="133.35618945358974" y2="148.09628394782513" stroke-width="1" stroke="rgba(49, 63, 74, 0.1962953629032258)" stroke-linecap="round"></line><line x1="477.46367758709187" x2="462.7235830928564" y1="133.35618945358974" y2="148.09628394782513" stroke-width="1" stroke="rgba(49, 63, 74, 0.1962953629032258)" stroke-linecap="round"></line><line x1="733.4636775870919" x2="718.7235830928564" y1="133.35618945358974" y2="148.09628394782513" stroke-width="1" stroke="rgba(49, 63, 74, 0.1962953629032258)" stroke-linecap="round"></line><line x1="162.11574577849467" x2="152.08773518911346" y1="207.69369241982946" y2="217.72170300921067" stroke-width="1" stroke="rgba(49, 63, 74, 0.1962953629032258)" stroke-linecap="round"></line><line x1="162.11574577849467" x2="152.08773518911346" y1="-304.30630758017054" y2="-294.27829699078933" stroke-width="1" stroke="rgba(49, 63, 74, 0.1962953629032258)" stroke-linecap="round"></line><line x1="418.11574577849467" x2="408.08773518911346" y1="-304.30630758017054" y2="-294.27829699078933" stroke-width="1" stroke="rgba(49, 63, 74, 0.1962953629032258)" stroke-linecap="round"></line><line x1="674.1157457784947" x2="664.0877351891135" y1="-304.30630758017054" y2="-294.27829699078933" stroke-width="1" stroke="rgba(49, 63, 74, 0.1962953629032258)" stroke-linecap="round"></line><line x1="162.11574577849467" x2="152.08773518911346" y1="-48.30630758017054" y2="-38.27829699078933" stroke-width="1" stroke="rgba(49, 63, 74, 0.1962953629032258)" stroke-linecap="round"></line><line x1="418.11574577849467" x2="408.08773518911346" y1="-48.30630758017054" y2="-38.27829699078933" stroke-width="1" stroke="rgba(49, 63, 74, 0.1962953629032258)" stroke-linecap="round"></line><line x1="674.1157457784947" x2="664.0877351891135" y1="-48.30630758017054" y2="-38.27829699078933" stroke-width="1" stroke="rgba(49, 63, 74, 0.1962953629032258)" stroke-linecap="round"></line><line x1="162.11574577849467" x2="152.08773518911346" y1="207.69369241982946" y2="217.72170300921067" stroke-width="1" stroke="rgba(49, 63, 74, 0.1962953629032258)" stroke-linecap="round"></line><line x1="418.11574577849467" x2="408.08773518911346" y1="207.69369241982946" y2="217.72170300921067" stroke-width="1" stroke="rgba(49, 63, 74, 0.1962953629032258)" stroke-linecap="round"></line><line x1="674.1157457784947" x2="664.0877351891135" y1="207.69369241982946" y2="217.72170300921067" stroke-width="1" stroke="rgba(49, 63, 74, 0.1962953629032258)" stroke-linecap="round"></line><line x1="75.72791415032304" x2="63.16349964044332" y1="38.57686690255042" y2="51.141281412430146" stroke-width="1" stroke="rgba(49, 63, 74, 0.1962953629032258)" stroke-linecap="round"></line><line x1="75.72791415032304" x2="63.16349964044332" y1="-473.4231330974496" y2="-460.85871858756985" stroke-width="1" stroke="rgba(49, 63, 74, 0.1962953629032258)" stroke-linecap="round"></line><line x1="331.72791415032304" x2="319.1634996404433" y1="-473.4231330974496" y2="-460.85871858756985" stroke-width="1" stroke="rgba(49, 63, 74, 0.1962953629032258)" stroke-linecap="round"></line><line x1="587.727914150323" x2="575.1634996404433" y1="-473.4231330974496" y2="-460.85871858756985" stroke-width="1" stroke="rgba(49, 63, 74, 0.1962953629032258)" stroke-linecap="round"></line><line x1="75.72791415032304" x2="63.16349964044332" y1="-217.42313309744958" y2="-204.85871858756985" stroke-width="1" stroke="rgba(49, 63, 74, 0.1962953629032258)" stroke-linecap="round"></line><line x1="331.72791415032304" x2="319.1634996404433" y1="-217.42313309744958" y2="-204.85871858756985" stroke-width="1" stroke="rgba(49, 63, 74, 0.1962953629032258)" stroke-linecap="round"></line><line x1="587.727914150323" x2="575.1634996404433" y1="-217.42313309744958" y2="-204.85871858756985" stroke-width="1" stroke="rgba(49, 63, 74, 0.1962953629032258)" stroke-linecap="round"></line><line x1="75.72791415032304" x2="63.16349964044332" y1="38.57686690255042" y2="51.141281412430146" stroke-width="1" stroke="rgba(49, 63, 74, 0.1962953629032258)" stroke-linecap="round"></line><line x1="331.72791415032304" x2="319.1634996404433" y1="38.57686690255042" y2="51.141281412430146" stroke-width="1" stroke="rgba(49, 63, 74, 0.1962953629032258)" stroke-linecap="round"></line><line x1="587.727914150323" x2="575.1634996404433" y1="38.57686690255042" y2="51.141281412430146" stroke-width="1" stroke="rgba(49, 63, 74, 0.1962953629032258)" stroke-linecap="round"></line>
  <animateTransform attributeName="transform" type="translate" values="0 0;-256 256" keyTimes="0;1" repeatCount="indefinite" dur="2.5s"></animateTransform>
</g><g>
  <line x1="97.12596467553593" x2="87.51672850256418" y1="176.78852981940693" y2="186.39776599237868" stroke-width="1" stroke="#32414c" stroke-linecap="round"></line><line x1="97.12596467553593" x2="87.51672850256418" y1="-335.2114701805931" y2="-325.6022340076213" stroke-width="1" stroke="#32414c" stroke-linecap="round"></line><line x1="353.1259646755359" x2="343.5167285025642" y1="-335.2114701805931" y2="-325.6022340076213" stroke-width="1" stroke="#32414c" stroke-linecap="round"></line><line x1="609.1259646755359" x2="599.5167285025642" y1="-335.2114701805931" y2="-325.6022340076213" stroke-width="1" stroke="#32414c" stroke-linecap="round"></line><line x1="97.12596467553593" x2="87.51672850256418" y1="-79.21147018059307" y2="-69.60223400762132" stroke-width="1" stroke="#32414c" stroke-linecap="round"></line><line x1="353.1259646755359" x2="343.5167285025642" y1="-79.21147018059307" y2="-69.60223400762132" stroke-width="1" stroke="#32414c" stroke-linecap="round"></line><line x1="609.1259646755359" x2="599.5167285025642" y1="-79.21147018059307" y2="-69.60223400762132" stroke-width="1" stroke="#32414c" stroke-linecap="round"></line><line x1="97.12596467553593" x2="87.51672850256418" y1="176.78852981940693" y2="186.39776599237868" stroke-width="1" stroke="#32414c" stroke-linecap="round"></line><line x1="353.1259646755359" x2="343.5167285025642" y1="176.78852981940693" y2="186.39776599237868" stroke-width="1" stroke="#32414c" stroke-linecap="round"></line><line x1="609.1259646755359" x2="599.5167285025642" y1="176.78852981940693" y2="186.39776599237868" stroke-width="1" stroke="#32414c" stroke-linecap="round"></line><line x1="238.44237356373725" x2="224.48345459790715" y1="65.35371789880497" y2="79.31263686463507" stroke-width="1" stroke="#32414c" stroke-linecap="round"></line><line x1="238.44237356373725" x2="224.48345459790715" y1="-446.646282101195" y2="-432.68736313536493" stroke-width="1" stroke="#32414c" stroke-linecap="round"></line><line x1="494.44237356373725" x2="480.48345459790715" y1="-446.646282101195" y2="-432.68736313536493" stroke-width="1" stroke="#32414c" stroke-linecap="round"></line><line x1="750.4423735637372" x2="736.4834545979072" y1="-446.646282101195" y2="-432.68736313536493" stroke-width="1" stroke="#32414c" stroke-linecap="round"></line><line x1="238.44237356373725" x2="224.48345459790715" y1="-190.64628210119503" y2="-176.68736313536493" stroke-width="1" stroke="#32414c" stroke-linecap="round"></line><line x1="494.44237356373725" x2="480.48345459790715" y1="-190.64628210119503" y2="-176.68736313536493" stroke-width="1" stroke="#32414c" stroke-linecap="round"></line><line x1="750.4423735637372" x2="736.4834545979072" y1="-190.64628210119503" y2="-176.68736313536493" stroke-width="1" stroke="#32414c" stroke-linecap="round"></line><line x1="238.44237356373725" x2="224.48345459790715" y1="65.35371789880497" y2="79.31263686463507" stroke-width="1" stroke="#32414c" stroke-linecap="round"></line><line x1="494.44237356373725" x2="480.48345459790715" y1="65.35371789880497" y2="79.31263686463507" stroke-width="1" stroke="#32414c" stroke-linecap="round"></line><line x1="750.4423735637372" x2="736.4834545979072" y1="65.35371789880497" y2="79.31263686463507" stroke-width="1" stroke="#32414c" stroke-linecap="round"></line><line x1="76.86268642197285" x2="68.65252732040665" y1="32.04832344855016" y2="40.25848255011635" stroke-width="1" stroke="#32414c" stroke-linecap="round"></line><line x1="76.86268642197285" x2="68.65252732040665" y1="-479.95167655144985" y2="-471.74151744988364" stroke-width="1" stroke="#32414c" stroke-linecap="round"></line><line x1="332.86268642197285" x2="324.65252732040665" y1="-479.95167655144985" y2="-471.74151744988364" stroke-width="1" stroke="#32414c" stroke-linecap="round"></line><line x1="588.8626864219729" x2="580.6525273204066" y1="-479.95167655144985" y2="-471.74151744988364" stroke-width="1" stroke="#32414c" stroke-linecap="round"></line><line x1="76.86268642197285" x2="68.65252732040665" y1="-223.95167655144985" y2="-215.74151744988364" stroke-width="1" stroke="#32414c" stroke-linecap="round"></line><line x1="332.86268642197285" x2="324.65252732040665" y1="-223.95167655144985" y2="-215.74151744988364" stroke-width="1" stroke="#32414c" stroke-linecap="round"></line><line x1="588.8626864219729" x2="580.6525273204066" y1="-223.95167655144985" y2="-215.74151744988364" stroke-width="1" stroke="#32414c" stroke-linecap="round"></line><line x1="76.86268642197285" x2="68.65252732040665" y1="32.04832344855016" y2="40.25848255011635" stroke-width="1" stroke="#32414c" stroke-linecap="round"></line><line x1="332.86268642197285" x2="324.65252732040665" y1="32.04832344855016" y2="40.25848255011635" stroke-width="1" stroke="#32414c" stroke-linecap="round"></line><line x1="588.8626864219729" x2="580.6525273204066" y1="32.04832344855016" y2="40.25848255011635" stroke-width="1" stroke="#32414c" stroke-linecap="round"></line><line x1="209.77851737689912" x2="197.9540334574715" y1="236.12063647278626" y2="247.94512039221388" stroke-width="1" stroke="#32414c" stroke-linecap="round"></line><line x1="209.77851737689912" x2="197.9540334574715" y1="-275.87936352721374" y2="-264.0548796077861" stroke-width="1" stroke="#32414c" stroke-linecap="round"></line><line x1="465.7785173768991" x2="453.9540334574715" y1="-275.87936352721374" y2="-264.0548796077861" stroke-width="1" stroke="#32414c" stroke-linecap="round"></line><line x1="721.7785173768991" x2="709.9540334574715" y1="-275.87936352721374" y2="-264.0548796077861" stroke-width="1" stroke="#32414c" stroke-linecap="round"></line><line x1="209.77851737689912" x2="197.9540334574715" y1="-19.87936352721374" y2="-8.05487960778612" stroke-width="1" stroke="#32414c" stroke-linecap="round"></line><line x1="465.7785173768991" x2="453.9540334574715" y1="-19.87936352721374" y2="-8.05487960778612" stroke-width="1" stroke="#32414c" stroke-linecap="round"></line><line x1="721.7785173768991" x2="709.9540334574715" y1="-19.87936352721374" y2="-8.05487960778612" stroke-width="1" stroke="#32414c" stroke-linecap="round"></line><line x1="209.77851737689912" x2="197.9540334574715" y1="236.12063647278626" y2="247.94512039221388" stroke-width="1" stroke="#32414c" stroke-linecap="round"></line><line x1="465.7785173768991" x2="453.9540334574715" y1="236.12063647278626" y2="247.94512039221388" stroke-width="1" stroke="#32414c" stroke-linecap="round"></line><line x1="721.7785173768991" x2="709.9540334574715" y1="236.12063647278626" y2="247.94512039221388" stroke-width="1" stroke="#32414c" stroke-linecap="round"></line><line x1="246.6312748775709" x2="239.05308556191022" y1="80.97693606211993" y2="88.5551253777806" stroke-width="1" stroke="#32414c" stroke-linecap="round"></line><line x1="246.6312748775709" x2="239.05308556191022" y1="-431.02306393788007" y2="-423.4448746222194" stroke-width="1" stroke="#32414c" stroke-linecap="round"></line><line x1="502.6312748775709" x2="495.0530855619102" y1="-431.02306393788007" y2="-423.4448746222194" stroke-width="1" stroke="#32414c" stroke-linecap="round"></line><line x1="758.6312748775708" x2="751.0530855619102" y1="-431.02306393788007" y2="-423.4448746222194" stroke-width="1" stroke="#32414c" stroke-linecap="round"></line><line x1="246.6312748775709" x2="239.05308556191022" y1="-175.02306393788007" y2="-167.4448746222194" stroke-width="1" stroke="#32414c" stroke-linecap="round"></line><line x1="502.6312748775709" x2="495.0530855619102" y1="-175.02306393788007" y2="-167.4448746222194" stroke-width="1" stroke="#32414c" stroke-linecap="round"></line><line x1="758.6312748775708" x2="751.0530855619102" y1="-175.02306393788007" y2="-167.4448746222194" stroke-width="1" stroke="#32414c" stroke-linecap="round"></line><line x1="246.6312748775709" x2="239.05308556191022" y1="80.97693606211993" y2="88.5551253777806" stroke-width="1" stroke="#32414c" stroke-linecap="round"></line><line x1="502.6312748775709" x2="495.0530855619102" y1="80.97693606211993" y2="88.5551253777806" stroke-width="1" stroke="#32414c" stroke-linecap="round"></line><line x1="758.6312748775708" x2="751.0530855619102" y1="80.97693606211993" y2="88.5551253777806" stroke-width="1" stroke="#32414c" stroke-linecap="round"></line><line x1="185.84316984142015" x2="173.18803529995023" y1="187.0566559412834" y2="199.71179048275332" stroke-width="1" stroke="rgba(49, 63, 74, 0.1962953629032258)" stroke-linecap="round"></line><line x1="185.84316984142015" x2="173.18803529995023" y1="-324.9433440587166" y2="-312.2882095172467" stroke-width="1" stroke="rgba(49, 63, 74, 0.1962953629032258)" stroke-linecap="round"></line><line x1="441.84316984142015" x2="429.18803529995023" y1="-324.9433440587166" y2="-312.2882095172467" stroke-width="1" stroke="rgba(49, 63, 74, 0.1962953629032258)" stroke-linecap="round"></line><line x1="697.8431698414201" x2="685.1880352999502" y1="-324.9433440587166" y2="-312.2882095172467" stroke-width="1" stroke="rgba(49, 63, 74, 0.1962953629032258)" stroke-linecap="round"></line><line x1="185.84316984142015" x2="173.18803529995023" y1="-68.9433440587166" y2="-56.288209517246685" stroke-width="1" stroke="rgba(49, 63, 74, 0.1962953629032258)" stroke-linecap="round"></line><line x1="441.84316984142015" x2="429.18803529995023" y1="-68.9433440587166" y2="-56.288209517246685" stroke-width="1" stroke="rgba(49, 63, 74, 0.1962953629032258)" stroke-linecap="round"></line><line x1="697.8431698414201" x2="685.1880352999502" y1="-68.9433440587166" y2="-56.288209517246685" stroke-width="1" stroke="rgba(49, 63, 74, 0.1962953629032258)" stroke-linecap="round"></line><line x1="185.84316984142015" x2="173.18803529995023" y1="187.0566559412834" y2="199.71179048275332" stroke-width="1" stroke="rgba(49, 63, 74, 0.1962953629032258)" stroke-linecap="round"></line><line x1="441.84316984142015" x2="429.18803529995023" y1="187.0566559412834" y2="199.71179048275332" stroke-width="1" stroke="rgba(49, 63, 74, 0.1962953629032258)" stroke-linecap="round"></line><line x1="697.8431698414201" x2="685.1880352999502" y1="187.0566559412834" y2="199.71179048275332" stroke-width="1" stroke="rgba(49, 63, 74, 0.1962953629032258)" stroke-linecap="round"></line>
  <animateTransform attributeName="transform" type="translate" values="0 0;-256 256" keyTimes="0;1" repeatCount="indefinite" dur="1.25s"></animateTransform>
</g><g>
  <line x1="45.903001433317144" x2="31.903884402632258" y1="223.6787519151881" y2="237.67786894587297" stroke-width="1" stroke="#32414c" stroke-linecap="round"></line><line x1="45.903001433317144" x2="31.903884402632258" y1="-288.32124808481194" y2="-274.322131054127" stroke-width="1" stroke="#32414c" stroke-linecap="round"></line><line x1="301.9030014333172" x2="287.90388440263223" y1="-288.32124808481194" y2="-274.322131054127" stroke-width="1" stroke="#32414c" stroke-linecap="round"></line><line x1="557.9030014333172" x2="543.9038844026322" y1="-288.32124808481194" y2="-274.322131054127" stroke-width="1" stroke="#32414c" stroke-linecap="round"></line><line x1="45.903001433317144" x2="31.903884402632258" y1="-32.32124808481191" y2="-18.322131054127027" stroke-width="1" stroke="#32414c" stroke-linecap="round"></line><line x1="301.9030014333172" x2="287.90388440263223" y1="-32.32124808481191" y2="-18.322131054127027" stroke-width="1" stroke="#32414c" stroke-linecap="round"></line><line x1="557.9030014333172" x2="543.9038844026322" y1="-32.32124808481191" y2="-18.322131054127027" stroke-width="1" stroke="#32414c" stroke-linecap="round"></line><line x1="45.903001433317144" x2="31.903884402632258" y1="223.6787519151881" y2="237.67786894587297" stroke-width="1" stroke="#32414c" stroke-linecap="round"></line><line x1="301.9030014333172" x2="287.90388440263223" y1="223.6787519151881" y2="237.67786894587297" stroke-width="1" stroke="#32414c" stroke-linecap="round"></line><line x1="557.9030014333172" x2="543.9038844026322" y1="223.6787519151881" y2="237.67786894587297" stroke-width="1" stroke="#32414c" stroke-linecap="round"></line><line x1="31.885222669240633" x2="20.7031726506507" y1="144.5297013940817" y2="155.71175141267167" stroke-width="1" stroke="#32414c" stroke-linecap="round"></line><line x1="31.885222669240633" x2="20.7031726506507" y1="-367.4702986059183" y2="-356.2882485873283" stroke-width="1" stroke="#32414c" stroke-linecap="round"></line><line x1="287.88522266924065" x2="276.7031726506507" y1="-367.4702986059183" y2="-356.2882485873283" stroke-width="1" stroke="#32414c" stroke-linecap="round"></line><line x1="543.8852226692406" x2="532.7031726506507" y1="-367.4702986059183" y2="-356.2882485873283" stroke-width="1" stroke="#32414c" stroke-linecap="round"></line><line x1="31.885222669240633" x2="20.7031726506507" y1="-111.47029860591829" y2="-100.28824858732833" stroke-width="1" stroke="#32414c" stroke-linecap="round"></line><line x1="287.88522266924065" x2="276.7031726506507" y1="-111.47029860591829" y2="-100.28824858732833" stroke-width="1" stroke="#32414c" stroke-linecap="round"></line><line x1="543.8852226692406" x2="532.7031726506507" y1="-111.47029860591829" y2="-100.28824858732833" stroke-width="1" stroke="#32414c" stroke-linecap="round"></line><line x1="31.885222669240633" x2="20.7031726506507" y1="144.5297013940817" y2="155.71175141267167" stroke-width="1" stroke="#32414c" stroke-linecap="round"></line><line x1="287.88522266924065" x2="276.7031726506507" y1="144.5297013940817" y2="155.71175141267167" stroke-width="1" stroke="#32414c" stroke-linecap="round"></line><line x1="543.8852226692406" x2="532.7031726506507" y1="144.5297013940817" y2="155.71175141267167" stroke-width="1" stroke="#32414c" stroke-linecap="round"></line><line x1="199.4811461563616" x2="187.51714576995033" y1="24.462114272413316" y2="36.42611465882459" stroke-width="1" stroke="#32414c" stroke-linecap="round"></line><line x1="199.4811461563616" x2="187.51714576995033" y1="-487.5378857275867" y2="-475.5738853411754" stroke-width="1" stroke="#32414c" stroke-linecap="round"></line><line x1="455.4811461563616" x2="443.51714576995033" y1="-487.5378857275867" y2="-475.5738853411754" stroke-width="1" stroke="#32414c" stroke-linecap="round"></line><line x1="711.4811461563615" x2="699.5171457699503" y1="-487.5378857275867" y2="-475.5738853411754" stroke-width="1" stroke="#32414c" stroke-linecap="round"></line><line x1="199.4811461563616" x2="187.51714576995033" y1="-231.53788572758668" y2="-219.5738853411754" stroke-width="1" stroke="#32414c" stroke-linecap="round"></line><line x1="455.4811461563616" x2="443.51714576995033" y1="-231.53788572758668" y2="-219.5738853411754" stroke-width="1" stroke="#32414c" stroke-linecap="round"></line><line x1="711.4811461563615" x2="699.5171457699503" y1="-231.53788572758668" y2="-219.5738853411754" stroke-width="1" stroke="#32414c" stroke-linecap="round"></line><line x1="199.4811461563616" x2="187.51714576995033" y1="24.462114272413316" y2="36.42611465882459" stroke-width="1" stroke="#32414c" stroke-linecap="round"></line><line x1="455.4811461563616" x2="443.51714576995033" y1="24.462114272413316" y2="36.42611465882459" stroke-width="1" stroke="#32414c" stroke-linecap="round"></line><line x1="711.4811461563615" x2="699.5171457699503" y1="24.462114272413316" y2="36.42611465882459" stroke-width="1" stroke="#32414c" stroke-linecap="round"></line><line x1="168.0736182822375" x2="154.6586476950266" y1="23.08351676342839" y2="36.49848735063928" stroke-width="1" stroke="#32414c" stroke-linecap="round"></line><line x1="168.0736182822375" x2="154.6586476950266" y1="-488.9164832365716" y2="-475.50151264936073" stroke-width="1" stroke="#32414c" stroke-linecap="round"></line><line x1="424.0736182822375" x2="410.6586476950266" y1="-488.9164832365716" y2="-475.50151264936073" stroke-width="1" stroke="#32414c" stroke-linecap="round"></line><line x1="680.0736182822375" x2="666.6586476950266" y1="-488.9164832365716" y2="-475.50151264936073" stroke-width="1" stroke="#32414c" stroke-linecap="round"></line><line x1="168.0736182822375" x2="154.6586476950266" y1="-232.91648323657162" y2="-219.50151264936073" stroke-width="1" stroke="#32414c" stroke-linecap="round"></line><line x1="424.0736182822375" x2="410.6586476950266" y1="-232.91648323657162" y2="-219.50151264936073" stroke-width="1" stroke="#32414c" stroke-linecap="round"></line><line x1="680.0736182822375" x2="666.6586476950266" y1="-232.91648323657162" y2="-219.50151264936073" stroke-width="1" stroke="#32414c" stroke-linecap="round"></line><line x1="168.0736182822375" x2="154.6586476950266" y1="23.08351676342839" y2="36.49848735063928" stroke-width="1" stroke="#32414c" stroke-linecap="round"></line><line x1="424.0736182822375" x2="410.6586476950266" y1="23.08351676342839" y2="36.49848735063928" stroke-width="1" stroke="#32414c" stroke-linecap="round"></line><line x1="680.0736182822375" x2="666.6586476950266" y1="23.08351676342839" y2="36.49848735063928" stroke-width="1" stroke="#32414c" stroke-linecap="round"></line><line x1="145.34092653959618" x2="135.11021938160815" y1="92.90455802437096" y2="103.13526518235896" stroke-width="1" stroke="#32414c" stroke-linecap="round"></line><line x1="145.34092653959618" x2="135.11021938160815" y1="-419.09544197562906" y2="-408.864734817641" stroke-width="1" stroke="#32414c" stroke-linecap="round"></line><line x1="401.3409265395962" x2="391.11021938160815" y1="-419.09544197562906" y2="-408.864734817641" stroke-width="1" stroke="#32414c" stroke-linecap="round"></line><line x1="657.3409265395962" x2="647.1102193816082" y1="-419.09544197562906" y2="-408.864734817641" stroke-width="1" stroke="#32414c" stroke-linecap="round"></line><line x1="145.34092653959618" x2="135.11021938160815" y1="-163.09544197562906" y2="-152.86473481764102" stroke-width="1" stroke="#32414c" stroke-linecap="round"></line><line x1="401.3409265395962" x2="391.11021938160815" y1="-163.09544197562906" y2="-152.86473481764102" stroke-width="1" stroke="#32414c" stroke-linecap="round"></line><line x1="657.3409265395962" x2="647.1102193816082" y1="-163.09544197562906" y2="-152.86473481764102" stroke-width="1" stroke="#32414c" stroke-linecap="round"></line><line x1="145.34092653959618" x2="135.11021938160815" y1="92.90455802437096" y2="103.13526518235896" stroke-width="1" stroke="#32414c" stroke-linecap="round"></line><line x1="401.3409265395962" x2="391.11021938160815" y1="92.90455802437096" y2="103.13526518235896" stroke-width="1" stroke="#32414c" stroke-linecap="round"></line><line x1="657.3409265395962" x2="647.1102193816082" y1="92.90455802437096" y2="103.13526518235896" stroke-width="1" stroke="#32414c" stroke-linecap="round"></line><line x1="152.9919988851259" x2="145.6670882915904" y1="16.28613632153487" y2="23.611046915070332" stroke-width="1" stroke="#32414c" stroke-linecap="round"></line><line x1="152.9919988851259" x2="145.6670882915904" y1="-495.71386367846515" y2="-488.38895308492965" stroke-width="1" stroke="#32414c" stroke-linecap="round"></line><line x1="408.9919988851259" x2="401.6670882915904" y1="-495.71386367846515" y2="-488.38895308492965" stroke-width="1" stroke="#32414c" stroke-linecap="round"></line><line x1="664.9919988851259" x2="657.6670882915904" y1="-495.71386367846515" y2="-488.38895308492965" stroke-width="1" stroke="#32414c" stroke-linecap="round"></line><line x1="152.9919988851259" x2="145.6670882915904" y1="-239.71386367846515" y2="-232.38895308492965" stroke-width="1" stroke="#32414c" stroke-linecap="round"></line><line x1="408.9919988851259" x2="401.6670882915904" y1="-239.71386367846515" y2="-232.38895308492965" stroke-width="1" stroke="#32414c" stroke-linecap="round"></line><line x1="664.9919988851259" x2="657.6670882915904" y1="-239.71386367846515" y2="-232.38895308492965" stroke-width="1" stroke="#32414c" stroke-linecap="round"></line><line x1="152.9919988851259" x2="145.6670882915904" y1="16.28613632153487" y2="23.611046915070332" stroke-width="1" stroke="#32414c" stroke-linecap="round"></line><line x1="408.9919988851259" x2="401.6670882915904" y1="16.28613632153487" y2="23.611046915070332" stroke-width="1" stroke="#32414c" stroke-linecap="round"></line><line x1="664.9919988851259" x2="657.6670882915904" y1="16.28613632153487" y2="23.611046915070332" stroke-width="1" stroke="#32414c" stroke-linecap="round"></line>
  <animateTransform attributeName="transform" type="translate" values="0 0;-256 256" keyTimes="0;1" repeatCount="indefinite" dur="0.8333333333333333s"></animateTransform>
</g></g></svg>