<?xml version="1.0" encoding="utf-8"?>
<svg xmlns="http://www.w3.org/2000/svg" xmlns:xlink="http://www.w3.org/1999/xlink" style="background: rgb(25, 70, 69); display: block; position: relative; shape-rendering: auto;" width="360" height="360" preserveAspectRatio="xMidYMid" viewBox="0 0 360 360"><g transform="scale(1.4100000000000001)"><g>
  <line x1="226.1182079916939" x2="223.3292577732975" y1="225.94254733148915" y2="228.73149754988555" stroke-width="1" stroke="#91bcc6" stroke-linecap="round"></line><line x1="226.1182079916939" x2="223.3292577732975" y1="-286.05745266851085" y2="-283.26850245011445" stroke-width="1" stroke="#91bcc6" stroke-linecap="round"></line><line x1="482.1182079916939" x2="479.3292577732975" y1="-286.05745266851085" y2="-283.26850245011445" stroke-width="1" stroke="#91bcc6" stroke-linecap="round"></line><line x1="738.1182079916939" x2="735.3292577732975" y1="-286.05745266851085" y2="-283.26850245011445" stroke-width="1" stroke="#91bcc6" stroke-linecap="round"></line><line x1="226.1182079916939" x2="223.3292577732975" y1="-30.057452668510848" y2="-27.268502450114454" stroke-width="1" stroke="#91bcc6" stroke-linecap="round"></line><line x1="482.1182079916939" x2="479.3292577732975" y1="-30.057452668510848" y2="-27.268502450114454" stroke-width="1" stroke="#91bcc6" stroke-linecap="round"></line><line x1="738.1182079916939" x2="735.3292577732975" y1="-30.057452668510848" y2="-27.268502450114454" stroke-width="1" stroke="#91bcc6" stroke-linecap="round"></line><line x1="226.1182079916939" x2="223.3292577732975" y1="225.94254733148915" y2="228.73149754988555" stroke-width="1" stroke="#91bcc6" stroke-linecap="round"></line><line x1="482.1182079916939" x2="479.3292577732975" y1="225.94254733148915" y2="228.73149754988555" stroke-width="1" stroke="#91bcc6" stroke-linecap="round"></line><line x1="738.1182079916939" x2="735.3292577732975" y1="225.94254733148915" y2="228.73149754988555" stroke-width="1" stroke="#91bcc6" stroke-linecap="round"></line><line x1="232.27827969119744" x2="227.94954501356438" y1="100.90320962740155" y2="105.23194430503465" stroke-width="1" stroke="#91bcc6" stroke-linecap="round"></line><line x1="232.27827969119744" x2="227.94954501356438" y1="-411.09679037259843" y2="-406.76805569496537" stroke-width="1" stroke="#91bcc6" stroke-linecap="round"></line><line x1="488.27827969119744" x2="483.9495450135644" y1="-411.09679037259843" y2="-406.76805569496537" stroke-width="1" stroke="#91bcc6" stroke-linecap="round"></line><line x1="744.2782796911974" x2="739.9495450135644" y1="-411.09679037259843" y2="-406.76805569496537" stroke-width="1" stroke="#91bcc6" stroke-linecap="round"></line><line x1="232.27827969119744" x2="227.94954501356438" y1="-155.09679037259843" y2="-150.76805569496537" stroke-width="1" stroke="#91bcc6" stroke-linecap="round"></line><line x1="488.27827969119744" x2="483.9495450135644" y1="-155.09679037259843" y2="-150.76805569496537" stroke-width="1" stroke="#91bcc6" stroke-linecap="round"></line><line x1="744.2782796911974" x2="739.9495450135644" y1="-155.09679037259843" y2="-150.76805569496537" stroke-width="1" stroke="#91bcc6" stroke-linecap="round"></line><line x1="232.27827969119744" x2="227.94954501356438" y1="100.90320962740155" y2="105.23194430503465" stroke-width="1" stroke="#91bcc6" stroke-linecap="round"></line><line x1="488.27827969119744" x2="483.9495450135644" y1="100.90320962740155" y2="105.23194430503465" stroke-width="1" stroke="#91bcc6" stroke-linecap="round"></line><line x1="744.2782796911974" x2="739.9495450135644" y1="100.90320962740155" y2="105.23194430503465" stroke-width="1" stroke="#91bcc6" stroke-linecap="round"></line><line x1="31.55682649409617" x2="29.770552329269563" y1="254.3618595291186" y2="256.1481336939452" stroke-width="1" stroke="#91bcc6" stroke-linecap="round"></line><line x1="31.55682649409617" x2="29.770552329269563" y1="-257.6381404708814" y2="-255.85186630605477" stroke-width="1" stroke="#91bcc6" stroke-linecap="round"></line><line x1="287.5568264940962" x2="285.77055232926955" y1="-257.6381404708814" y2="-255.85186630605477" stroke-width="1" stroke="#91bcc6" stroke-linecap="round"></line><line x1="543.5568264940962" x2="541.7705523292695" y1="-257.6381404708814" y2="-255.85186630605477" stroke-width="1" stroke="#91bcc6" stroke-linecap="round"></line><line x1="31.55682649409617" x2="29.770552329269563" y1="-1.6381404708814102" y2="0.14813369394522624" stroke-width="1" stroke="#91bcc6" stroke-linecap="round"></line><line x1="287.5568264940962" x2="285.77055232926955" y1="-1.6381404708814102" y2="0.14813369394522624" stroke-width="1" stroke="#91bcc6" stroke-linecap="round"></line><line x1="543.5568264940962" x2="541.7705523292695" y1="-1.6381404708814102" y2="0.14813369394522624" stroke-width="1" stroke="#91bcc6" stroke-linecap="round"></line><line x1="31.55682649409617" x2="29.770552329269563" y1="254.3618595291186" y2="256.1481336939452" stroke-width="1" stroke="#91bcc6" stroke-linecap="round"></line><line x1="287.5568264940962" x2="285.77055232926955" y1="254.3618595291186" y2="256.1481336939452" stroke-width="1" stroke="#91bcc6" stroke-linecap="round"></line><line x1="543.5568264940962" x2="541.7705523292695" y1="254.3618595291186" y2="256.1481336939452" stroke-width="1" stroke="#91bcc6" stroke-linecap="round"></line><line x1="115.99224195320842" x2="114.74569011277099" y1="48.749078849407546" y2="49.995630689844994" stroke-width="1" stroke="#91bcc6" stroke-linecap="round"></line><line x1="115.99224195320842" x2="114.74569011277099" y1="-463.25092115059243" y2="-462.004369310155" stroke-width="1" stroke="#91bcc6" stroke-linecap="round"></line><line x1="371.9922419532084" x2="370.745690112771" y1="-463.25092115059243" y2="-462.004369310155" stroke-width="1" stroke="#91bcc6" stroke-linecap="round"></line><line x1="627.9922419532085" x2="626.745690112771" y1="-463.25092115059243" y2="-462.004369310155" stroke-width="1" stroke="#91bcc6" stroke-linecap="round"></line><line x1="115.99224195320842" x2="114.74569011277099" y1="-207.25092115059246" y2="-206.004369310155" stroke-width="1" stroke="#91bcc6" stroke-linecap="round"></line><line x1="371.9922419532084" x2="370.745690112771" y1="-207.25092115059246" y2="-206.004369310155" stroke-width="1" stroke="#91bcc6" stroke-linecap="round"></line><line x1="627.9922419532085" x2="626.745690112771" y1="-207.25092115059246" y2="-206.004369310155" stroke-width="1" stroke="#91bcc6" stroke-linecap="round"></line><line x1="115.99224195320842" x2="114.74569011277099" y1="48.749078849407546" y2="49.995630689844994" stroke-width="1" stroke="#91bcc6" stroke-linecap="round"></line><line x1="371.9922419532084" x2="370.745690112771" y1="48.749078849407546" y2="49.995630689844994" stroke-width="1" stroke="#91bcc6" stroke-linecap="round"></line><line x1="627.9922419532085" x2="626.745690112771" y1="48.749078849407546" y2="49.995630689844994" stroke-width="1" stroke="#91bcc6" stroke-linecap="round"></line><line x1="17.906267280170162" x2="13.964033425385063" y1="29.043282747822197" y2="32.9855166026073" stroke-width="1" stroke="#91bcc6" stroke-linecap="round"></line><line x1="17.906267280170162" x2="13.964033425385063" y1="-482.9567172521778" y2="-479.0144833973927" stroke-width="1" stroke="#91bcc6" stroke-linecap="round"></line><line x1="273.90626728017014" x2="269.9640334253851" y1="-482.9567172521778" y2="-479.0144833973927" stroke-width="1" stroke="#91bcc6" stroke-linecap="round"></line><line x1="529.9062672801701" x2="525.9640334253851" y1="-482.9567172521778" y2="-479.0144833973927" stroke-width="1" stroke="#91bcc6" stroke-linecap="round"></line><line x1="17.906267280170162" x2="13.964033425385063" y1="-226.9567172521778" y2="-223.0144833973927" stroke-width="1" stroke="#91bcc6" stroke-linecap="round"></line><line x1="273.90626728017014" x2="269.9640334253851" y1="-226.9567172521778" y2="-223.0144833973927" stroke-width="1" stroke="#91bcc6" stroke-linecap="round"></line><line x1="529.9062672801701" x2="525.9640334253851" y1="-226.9567172521778" y2="-223.0144833973927" stroke-width="1" stroke="#91bcc6" stroke-linecap="round"></line><line x1="17.906267280170162" x2="13.964033425385063" y1="29.043282747822197" y2="32.9855166026073" stroke-width="1" stroke="#91bcc6" stroke-linecap="round"></line><line x1="273.90626728017014" x2="269.9640334253851" y1="29.043282747822197" y2="32.9855166026073" stroke-width="1" stroke="#91bcc6" stroke-linecap="round"></line><line x1="529.9062672801701" x2="525.9640334253851" y1="29.043282747822197" y2="32.9855166026073" stroke-width="1" stroke="#91bcc6" stroke-linecap="round"></line><line x1="244.6189443456586" x2="242.84385269241002" y1="38.444838050049995" y2="40.21992970329855" stroke-width="1" stroke="#91bcc6" stroke-linecap="round"></line><line x1="244.6189443456586" x2="242.84385269241002" y1="-473.55516194995" y2="-471.78007029670147" stroke-width="1" stroke="#91bcc6" stroke-linecap="round"></line><line x1="500.61894434565863" x2="498.84385269241" y1="-473.55516194995" y2="-471.78007029670147" stroke-width="1" stroke="#91bcc6" stroke-linecap="round"></line><line x1="756.6189443456586" x2="754.84385269241" y1="-473.55516194995" y2="-471.78007029670147" stroke-width="1" stroke="#91bcc6" stroke-linecap="round"></line><line x1="244.6189443456586" x2="242.84385269241002" y1="-217.55516194995" y2="-215.78007029670147" stroke-width="1" stroke="#91bcc6" stroke-linecap="round"></line><line x1="500.61894434565863" x2="498.84385269241" y1="-217.55516194995" y2="-215.78007029670147" stroke-width="1" stroke="#91bcc6" stroke-linecap="round"></line><line x1="756.6189443456586" x2="754.84385269241" y1="-217.55516194995" y2="-215.78007029670147" stroke-width="1" stroke="#91bcc6" stroke-linecap="round"></line><line x1="244.6189443456586" x2="242.84385269241002" y1="38.444838050049995" y2="40.21992970329855" stroke-width="1" stroke="#91bcc6" stroke-linecap="round"></line><line x1="500.61894434565863" x2="498.84385269241" y1="38.444838050049995" y2="40.21992970329855" stroke-width="1" stroke="#91bcc6" stroke-linecap="round"></line><line x1="756.6189443456586" x2="754.84385269241" y1="38.444838050049995" y2="40.21992970329855" stroke-width="1" stroke="#91bcc6" stroke-linecap="round"></line><line x1="97.99771537186359" x2="94.31326243207616" y1="202.56066861019372" y2="206.24512154998115" stroke-width="1" stroke="#91bcc6" stroke-linecap="round"></line><line x1="97.99771537186359" x2="94.31326243207616" y1="-309.4393313898063" y2="-305.75487845001885" stroke-width="1" stroke="#91bcc6" stroke-linecap="round"></line><line x1="353.9977153718636" x2="350.31326243207616" y1="-309.4393313898063" y2="-305.75487845001885" stroke-width="1" stroke="#91bcc6" stroke-linecap="round"></line><line x1="609.9977153718636" x2="606.3132624320762" y1="-309.4393313898063" y2="-305.75487845001885" stroke-width="1" stroke="#91bcc6" stroke-linecap="round"></line><line x1="97.99771537186359" x2="94.31326243207616" y1="-53.439331389806284" y2="-49.75487845001885" stroke-width="1" stroke="#91bcc6" stroke-linecap="round"></line><line x1="353.9977153718636" x2="350.31326243207616" y1="-53.439331389806284" y2="-49.75487845001885" stroke-width="1" stroke="#91bcc6" stroke-linecap="round"></line><line x1="609.9977153718636" x2="606.3132624320762" y1="-53.439331389806284" y2="-49.75487845001885" stroke-width="1" stroke="#91bcc6" stroke-linecap="round"></line><line x1="97.99771537186359" x2="94.31326243207616" y1="202.56066861019372" y2="206.24512154998115" stroke-width="1" stroke="#91bcc6" stroke-linecap="round"></line><line x1="353.9977153718636" x2="350.31326243207616" y1="202.56066861019372" y2="206.24512154998115" stroke-width="1" stroke="#91bcc6" stroke-linecap="round"></line><line x1="609.9977153718636" x2="606.3132624320762" y1="202.56066861019372" y2="206.24512154998115" stroke-width="1" stroke="#91bcc6" stroke-linecap="round"></line><line x1="42.197693599703584" x2="40.548213685211536" y1="5.795330942553637" y2="7.4448108570456775" stroke-width="1" stroke="#91bcc6" stroke-linecap="round"></line><line x1="42.197693599703584" x2="40.548213685211536" y1="-506.2046690574464" y2="-504.5551891429543" stroke-width="1" stroke="#91bcc6" stroke-linecap="round"></line><line x1="298.1976935997036" x2="296.5482136852115" y1="-506.2046690574464" y2="-504.5551891429543" stroke-width="1" stroke="#91bcc6" stroke-linecap="round"></line><line x1="554.1976935997036" x2="552.5482136852115" y1="-506.2046690574464" y2="-504.5551891429543" stroke-width="1" stroke="#91bcc6" stroke-linecap="round"></line><line x1="42.197693599703584" x2="40.548213685211536" y1="-250.20466905744635" y2="-248.55518914295433" stroke-width="1" stroke="#91bcc6" stroke-linecap="round"></line><line x1="298.1976935997036" x2="296.5482136852115" y1="-250.20466905744635" y2="-248.55518914295433" stroke-width="1" stroke="#91bcc6" stroke-linecap="round"></line><line x1="554.1976935997036" x2="552.5482136852115" y1="-250.20466905744635" y2="-248.55518914295433" stroke-width="1" stroke="#91bcc6" stroke-linecap="round"></line><line x1="42.197693599703584" x2="40.548213685211536" y1="5.795330942553637" y2="7.4448108570456775" stroke-width="1" stroke="#91bcc6" stroke-linecap="round"></line><line x1="298.1976935997036" x2="296.5482136852115" y1="5.795330942553637" y2="7.4448108570456775" stroke-width="1" stroke="#91bcc6" stroke-linecap="round"></line><line x1="554.1976935997036" x2="552.5482136852115" y1="5.795330942553637" y2="7.4448108570456775" stroke-width="1" stroke="#91bcc6" stroke-linecap="round"></line>
  <animateTransform attributeName="transform" type="translate" values="0 0;-256 256" keyTimes="0;1" repeatCount="indefinite" dur="5.88235294117647s"></animateTransform>
</g><g>
  <line x1="92.64745975044586" x2="90.1985603478417" y1="171.45534587701053" y2="173.9042452796147" stroke-width="1" stroke="#91bcc6" stroke-linecap="round"></line><line x1="92.64745975044586" x2="90.1985603478417" y1="-340.54465412298947" y2="-338.0957547203853" stroke-width="1" stroke="#91bcc6" stroke-linecap="round"></line><line x1="348.6474597504459" x2="346.1985603478417" y1="-340.54465412298947" y2="-338.0957547203853" stroke-width="1" stroke="#91bcc6" stroke-linecap="round"></line><line x1="604.6474597504458" x2="602.1985603478417" y1="-340.54465412298947" y2="-338.0957547203853" stroke-width="1" stroke="#91bcc6" stroke-linecap="round"></line><line x1="92.64745975044586" x2="90.1985603478417" y1="-84.54465412298947" y2="-82.09575472038529" stroke-width="1" stroke="#91bcc6" stroke-linecap="round"></line><line x1="348.6474597504459" x2="346.1985603478417" y1="-84.54465412298947" y2="-82.09575472038529" stroke-width="1" stroke="#91bcc6" stroke-linecap="round"></line><line x1="604.6474597504458" x2="602.1985603478417" y1="-84.54465412298947" y2="-82.09575472038529" stroke-width="1" stroke="#91bcc6" stroke-linecap="round"></line><line x1="92.64745975044586" x2="90.1985603478417" y1="171.45534587701053" y2="173.9042452796147" stroke-width="1" stroke="#91bcc6" stroke-linecap="round"></line><line x1="348.6474597504459" x2="346.1985603478417" y1="171.45534587701053" y2="173.9042452796147" stroke-width="1" stroke="#91bcc6" stroke-linecap="round"></line><line x1="604.6474597504458" x2="602.1985603478417" y1="171.45534587701053" y2="173.9042452796147" stroke-width="1" stroke="#91bcc6" stroke-linecap="round"></line><line x1="209.3576667408069" x2="205.7328288645221" y1="190.81458648822456" y2="194.43942436450936" stroke-width="1" stroke="#91bcc6" stroke-linecap="round"></line><line x1="209.3576667408069" x2="205.7328288645221" y1="-321.18541351177544" y2="-317.56057563549064" stroke-width="1" stroke="#91bcc6" stroke-linecap="round"></line><line x1="465.3576667408069" x2="461.7328288645221" y1="-321.18541351177544" y2="-317.56057563549064" stroke-width="1" stroke="#91bcc6" stroke-linecap="round"></line><line x1="721.357666740807" x2="717.7328288645222" y1="-321.18541351177544" y2="-317.56057563549064" stroke-width="1" stroke="#91bcc6" stroke-linecap="round"></line><line x1="209.3576667408069" x2="205.7328288645221" y1="-65.18541351177544" y2="-61.560575635490636" stroke-width="1" stroke="#91bcc6" stroke-linecap="round"></line><line x1="465.3576667408069" x2="461.7328288645221" y1="-65.18541351177544" y2="-61.560575635490636" stroke-width="1" stroke="#91bcc6" stroke-linecap="round"></line><line x1="721.357666740807" x2="717.7328288645222" y1="-65.18541351177544" y2="-61.560575635490636" stroke-width="1" stroke="#91bcc6" stroke-linecap="round"></line><line x1="209.3576667408069" x2="205.7328288645221" y1="190.81458648822456" y2="194.43942436450936" stroke-width="1" stroke="#91bcc6" stroke-linecap="round"></line><line x1="465.3576667408069" x2="461.7328288645221" y1="190.81458648822456" y2="194.43942436450936" stroke-width="1" stroke="#91bcc6" stroke-linecap="round"></line><line x1="721.357666740807" x2="717.7328288645222" y1="190.81458648822456" y2="194.43942436450936" stroke-width="1" stroke="#91bcc6" stroke-linecap="round"></line><line x1="46.21338641420996" x2="42.81112500504012" y1="18.015378282806896" y2="21.417639691976742" stroke-width="1" stroke="#91bcc6" stroke-linecap="round"></line><line x1="46.21338641420996" x2="42.81112500504012" y1="-493.9846217171931" y2="-490.5823603080233" stroke-width="1" stroke="#91bcc6" stroke-linecap="round"></line><line x1="302.21338641420994" x2="298.81112500504014" y1="-493.9846217171931" y2="-490.5823603080233" stroke-width="1" stroke="#91bcc6" stroke-linecap="round"></line><line x1="558.2133864142099" x2="554.8111250050401" y1="-493.9846217171931" y2="-490.5823603080233" stroke-width="1" stroke="#91bcc6" stroke-linecap="round"></line><line x1="46.21338641420996" x2="42.81112500504012" y1="-237.9846217171931" y2="-234.58236030802325" stroke-width="1" stroke="#91bcc6" stroke-linecap="round"></line><line x1="302.21338641420994" x2="298.81112500504014" y1="-237.9846217171931" y2="-234.58236030802325" stroke-width="1" stroke="#91bcc6" stroke-linecap="round"></line><line x1="558.2133864142099" x2="554.8111250050401" y1="-237.9846217171931" y2="-234.58236030802325" stroke-width="1" stroke="#91bcc6" stroke-linecap="round"></line><line x1="46.21338641420996" x2="42.81112500504012" y1="18.015378282806896" y2="21.417639691976742" stroke-width="1" stroke="#91bcc6" stroke-linecap="round"></line><line x1="302.21338641420994" x2="298.81112500504014" y1="18.015378282806896" y2="21.417639691976742" stroke-width="1" stroke="#91bcc6" stroke-linecap="round"></line><line x1="558.2133864142099" x2="554.8111250050401" y1="18.015378282806896" y2="21.417639691976742" stroke-width="1" stroke="#91bcc6" stroke-linecap="round"></line><line x1="3.5743574081129545" x2="3.0413466650999417" y1="153.4950152258626" y2="154.0280259688756" stroke-width="1" stroke="#91bcc6" stroke-linecap="round"></line><line x1="3.5743574081129545" x2="3.0413466650999417" y1="-358.50498477413737" y2="-357.97197403112443" stroke-width="1" stroke="#91bcc6" stroke-linecap="round"></line><line x1="259.574357408113" x2="259.0413466650999" y1="-358.50498477413737" y2="-357.97197403112443" stroke-width="1" stroke="#91bcc6" stroke-linecap="round"></line><line x1="515.574357408113" x2="515.0413466650999" y1="-358.50498477413737" y2="-357.97197403112443" stroke-width="1" stroke="#91bcc6" stroke-linecap="round"></line><line x1="3.5743574081129545" x2="3.0413466650999417" y1="-102.5049847741374" y2="-101.9719740311244" stroke-width="1" stroke="#91bcc6" stroke-linecap="round"></line><line x1="259.574357408113" x2="259.0413466650999" y1="-102.5049847741374" y2="-101.9719740311244" stroke-width="1" stroke="#91bcc6" stroke-linecap="round"></line><line x1="515.574357408113" x2="515.0413466650999" y1="-102.5049847741374" y2="-101.9719740311244" stroke-width="1" stroke="#91bcc6" stroke-linecap="round"></line><line x1="3.5743574081129545" x2="3.0413466650999417" y1="153.4950152258626" y2="154.0280259688756" stroke-width="1" stroke="#91bcc6" stroke-linecap="round"></line><line x1="259.574357408113" x2="259.0413466650999" y1="153.4950152258626" y2="154.0280259688756" stroke-width="1" stroke="#91bcc6" stroke-linecap="round"></line><line x1="515.574357408113" x2="515.0413466650999" y1="153.4950152258626" y2="154.0280259688756" stroke-width="1" stroke="#91bcc6" stroke-linecap="round"></line><line x1="67.87812678979986" x2="66.00308123551889" y1="125.01524733851141" y2="126.89029289279239" stroke-width="1" stroke="#91bcc6" stroke-linecap="round"></line><line x1="67.87812678979986" x2="66.00308123551889" y1="-386.9847526614886" y2="-385.1097071072076" stroke-width="1" stroke="#91bcc6" stroke-linecap="round"></line><line x1="323.87812678979986" x2="322.0030812355189" y1="-386.9847526614886" y2="-385.1097071072076" stroke-width="1" stroke="#91bcc6" stroke-linecap="round"></line><line x1="579.8781267897998" x2="578.003081235519" y1="-386.9847526614886" y2="-385.1097071072076" stroke-width="1" stroke="#91bcc6" stroke-linecap="round"></line><line x1="67.87812678979986" x2="66.00308123551889" y1="-130.98475266148859" y2="-129.1097071072076" stroke-width="1" stroke="#91bcc6" stroke-linecap="round"></line><line x1="323.87812678979986" x2="322.0030812355189" y1="-130.98475266148859" y2="-129.1097071072076" stroke-width="1" stroke="#91bcc6" stroke-linecap="round"></line><line x1="579.8781267897998" x2="578.003081235519" y1="-130.98475266148859" y2="-129.1097071072076" stroke-width="1" stroke="#91bcc6" stroke-linecap="round"></line><line x1="67.87812678979986" x2="66.00308123551889" y1="125.01524733851141" y2="126.89029289279239" stroke-width="1" stroke="#91bcc6" stroke-linecap="round"></line><line x1="323.87812678979986" x2="322.0030812355189" y1="125.01524733851141" y2="126.89029289279239" stroke-width="1" stroke="#91bcc6" stroke-linecap="round"></line><line x1="579.8781267897998" x2="578.003081235519" y1="125.01524733851141" y2="126.89029289279239" stroke-width="1" stroke="#91bcc6" stroke-linecap="round"></line><line x1="191.33111879725945" x2="191.18770368537642" y1="99.48849928694383" y2="99.63191439882686" stroke-width="1" stroke="#91bcc6" stroke-linecap="round"></line><line x1="191.33111879725945" x2="191.18770368537642" y1="-412.5115007130562" y2="-412.3680856011731" stroke-width="1" stroke="#91bcc6" stroke-linecap="round"></line><line x1="447.3311187972595" x2="447.1877036853764" y1="-412.5115007130562" y2="-412.3680856011731" stroke-width="1" stroke="#91bcc6" stroke-linecap="round"></line><line x1="703.3311187972595" x2="703.1877036853764" y1="-412.5115007130562" y2="-412.3680856011731" stroke-width="1" stroke="#91bcc6" stroke-linecap="round"></line><line x1="191.33111879725945" x2="191.18770368537642" y1="-156.51150071305617" y2="-156.36808560117314" stroke-width="1" stroke="#91bcc6" stroke-linecap="round"></line><line x1="447.3311187972595" x2="447.1877036853764" y1="-156.51150071305617" y2="-156.36808560117314" stroke-width="1" stroke="#91bcc6" stroke-linecap="round"></line><line x1="703.3311187972595" x2="703.1877036853764" y1="-156.51150071305617" y2="-156.36808560117314" stroke-width="1" stroke="#91bcc6" stroke-linecap="round"></line><line x1="191.33111879725945" x2="191.18770368537642" y1="99.48849928694383" y2="99.63191439882686" stroke-width="1" stroke="#91bcc6" stroke-linecap="round"></line><line x1="447.3311187972595" x2="447.1877036853764" y1="99.48849928694383" y2="99.63191439882686" stroke-width="1" stroke="#91bcc6" stroke-linecap="round"></line><line x1="703.3311187972595" x2="703.1877036853764" y1="99.48849928694383" y2="99.63191439882686" stroke-width="1" stroke="#91bcc6" stroke-linecap="round"></line><line x1="234.70145344133923" x2="233.7737558029825" y1="1.303020312013545" y2="2.2307179503703045" stroke-width="1" stroke="#91bcc6" stroke-linecap="round"></line><line x1="234.70145344133923" x2="233.7737558029825" y1="-510.69697968798647" y2="-509.7692820496297" stroke-width="1" stroke="#91bcc6" stroke-linecap="round"></line><line x1="490.70145344133925" x2="489.77375580298246" y1="-510.69697968798647" y2="-509.7692820496297" stroke-width="1" stroke="#91bcc6" stroke-linecap="round"></line><line x1="746.7014534413393" x2="745.7737558029825" y1="-510.69697968798647" y2="-509.7692820496297" stroke-width="1" stroke="#91bcc6" stroke-linecap="round"></line><line x1="234.70145344133923" x2="233.7737558029825" y1="-254.69697968798644" y2="-253.7692820496297" stroke-width="1" stroke="#91bcc6" stroke-linecap="round"></line><line x1="490.70145344133925" x2="489.77375580298246" y1="-254.69697968798644" y2="-253.7692820496297" stroke-width="1" stroke="#91bcc6" stroke-linecap="round"></line><line x1="746.7014534413393" x2="745.7737558029825" y1="-254.69697968798644" y2="-253.7692820496297" stroke-width="1" stroke="#91bcc6" stroke-linecap="round"></line><line x1="234.70145344133923" x2="233.7737558029825" y1="1.303020312013545" y2="2.2307179503703045" stroke-width="1" stroke="#91bcc6" stroke-linecap="round"></line><line x1="490.70145344133925" x2="489.77375580298246" y1="1.303020312013545" y2="2.2307179503703045" stroke-width="1" stroke="#91bcc6" stroke-linecap="round"></line><line x1="746.7014534413393" x2="745.7737558029825" y1="1.303020312013545" y2="2.2307179503703045" stroke-width="1" stroke="#91bcc6" stroke-linecap="round"></line><line x1="220.00884129956853" x2="215.11684936637914" y1="67.57040412307593" y2="72.46239605626535" stroke-width="1" stroke="#91bcc6" stroke-linecap="round"></line><line x1="220.00884129956853" x2="215.11684936637914" y1="-444.42959587692405" y2="-439.53760394373467" stroke-width="1" stroke="#91bcc6" stroke-linecap="round"></line><line x1="476.00884129956853" x2="471.11684936637914" y1="-444.42959587692405" y2="-439.53760394373467" stroke-width="1" stroke="#91bcc6" stroke-linecap="round"></line><line x1="732.0088412995685" x2="727.1168493663791" y1="-444.42959587692405" y2="-439.53760394373467" stroke-width="1" stroke="#91bcc6" stroke-linecap="round"></line><line x1="220.00884129956853" x2="215.11684936637914" y1="-188.42959587692405" y2="-183.53760394373467" stroke-width="1" stroke="#91bcc6" stroke-linecap="round"></line><line x1="476.00884129956853" x2="471.11684936637914" y1="-188.42959587692405" y2="-183.53760394373467" stroke-width="1" stroke="#91bcc6" stroke-linecap="round"></line><line x1="732.0088412995685" x2="727.1168493663791" y1="-188.42959587692405" y2="-183.53760394373467" stroke-width="1" stroke="#91bcc6" stroke-linecap="round"></line><line x1="220.00884129956853" x2="215.11684936637914" y1="67.57040412307593" y2="72.46239605626535" stroke-width="1" stroke="#91bcc6" stroke-linecap="round"></line><line x1="476.00884129956853" x2="471.11684936637914" y1="67.57040412307593" y2="72.46239605626535" stroke-width="1" stroke="#91bcc6" stroke-linecap="round"></line><line x1="732.0088412995685" x2="727.1168493663791" y1="67.57040412307593" y2="72.46239605626535" stroke-width="1" stroke="#91bcc6" stroke-linecap="round"></line>
  <animateTransform attributeName="transform" type="translate" values="0 0;-256 256" keyTimes="0;1" repeatCount="indefinite" dur="2.941176470588235s"></animateTransform>
</g><g>
  <line x1="92.61095411145855" x2="88.23740512857218" y1="198.89010841644554" y2="203.2636573993319" stroke-width="1" stroke="#91bcc6" stroke-linecap="round"></line><line x1="92.61095411145855" x2="88.23740512857218" y1="-313.1098915835545" y2="-308.7363426006681" stroke-width="1" stroke="#91bcc6" stroke-linecap="round"></line><line x1="348.61095411145857" x2="344.23740512857216" y1="-313.1098915835545" y2="-308.7363426006681" stroke-width="1" stroke="#91bcc6" stroke-linecap="round"></line><line x1="604.6109541114586" x2="600.2374051285722" y1="-313.1098915835545" y2="-308.7363426006681" stroke-width="1" stroke="#91bcc6" stroke-linecap="round"></line><line x1="92.61095411145855" x2="88.23740512857218" y1="-57.10989158355446" y2="-52.73634260066811" stroke-width="1" stroke="#91bcc6" stroke-linecap="round"></line><line x1="348.61095411145857" x2="344.23740512857216" y1="-57.10989158355446" y2="-52.73634260066811" stroke-width="1" stroke="#91bcc6" stroke-linecap="round"></line><line x1="604.6109541114586" x2="600.2374051285722" y1="-57.10989158355446" y2="-52.73634260066811" stroke-width="1" stroke="#91bcc6" stroke-linecap="round"></line><line x1="92.61095411145855" x2="88.23740512857218" y1="198.89010841644554" y2="203.2636573993319" stroke-width="1" stroke="#91bcc6" stroke-linecap="round"></line><line x1="348.61095411145857" x2="344.23740512857216" y1="198.89010841644554" y2="203.2636573993319" stroke-width="1" stroke="#91bcc6" stroke-linecap="round"></line><line x1="604.6109541114586" x2="600.2374051285722" y1="198.89010841644554" y2="203.2636573993319" stroke-width="1" stroke="#91bcc6" stroke-linecap="round"></line><line x1="141.7611827414762" x2="136.87221910348137" y1="183.49392714511185" y2="188.3828907831067" stroke-width="1" stroke="#91bcc6" stroke-linecap="round"></line><line x1="141.7611827414762" x2="136.87221910348137" y1="-328.50607285488815" y2="-323.6171092168933" stroke-width="1" stroke="#91bcc6" stroke-linecap="round"></line><line x1="397.7611827414762" x2="392.87221910348137" y1="-328.50607285488815" y2="-323.6171092168933" stroke-width="1" stroke="#91bcc6" stroke-linecap="round"></line><line x1="653.7611827414762" x2="648.8722191034814" y1="-328.50607285488815" y2="-323.6171092168933" stroke-width="1" stroke="#91bcc6" stroke-linecap="round"></line><line x1="141.7611827414762" x2="136.87221910348137" y1="-72.50607285488815" y2="-67.61710921689331" stroke-width="1" stroke="#91bcc6" stroke-linecap="round"></line><line x1="397.7611827414762" x2="392.87221910348137" y1="-72.50607285488815" y2="-67.61710921689331" stroke-width="1" stroke="#91bcc6" stroke-linecap="round"></line><line x1="653.7611827414762" x2="648.8722191034814" y1="-72.50607285488815" y2="-67.61710921689331" stroke-width="1" stroke="#91bcc6" stroke-linecap="round"></line><line x1="141.7611827414762" x2="136.87221910348137" y1="183.49392714511185" y2="188.3828907831067" stroke-width="1" stroke="#91bcc6" stroke-linecap="round"></line><line x1="397.7611827414762" x2="392.87221910348137" y1="183.49392714511185" y2="188.3828907831067" stroke-width="1" stroke="#91bcc6" stroke-linecap="round"></line><line x1="653.7611827414762" x2="648.8722191034814" y1="183.49392714511185" y2="188.3828907831067" stroke-width="1" stroke="#91bcc6" stroke-linecap="round"></line><line x1="97.33829756931267" x2="96.13343964992804" y1="121.2950363782475" y2="122.49989429763214" stroke-width="1" stroke="#91bcc6" stroke-linecap="round"></line><line x1="97.33829756931267" x2="96.13343964992804" y1="-390.7049636217525" y2="-389.5001057023679" stroke-width="1" stroke="#91bcc6" stroke-linecap="round"></line><line x1="353.33829756931266" x2="352.13343964992805" y1="-390.7049636217525" y2="-389.5001057023679" stroke-width="1" stroke="#91bcc6" stroke-linecap="round"></line><line x1="609.3382975693127" x2="608.133439649928" y1="-390.7049636217525" y2="-389.5001057023679" stroke-width="1" stroke="#91bcc6" stroke-linecap="round"></line><line x1="97.33829756931267" x2="96.13343964992804" y1="-134.70496362175248" y2="-133.50010570236788" stroke-width="1" stroke="#91bcc6" stroke-linecap="round"></line><line x1="353.33829756931266" x2="352.13343964992805" y1="-134.70496362175248" y2="-133.50010570236788" stroke-width="1" stroke="#91bcc6" stroke-linecap="round"></line><line x1="609.3382975693127" x2="608.133439649928" y1="-134.70496362175248" y2="-133.50010570236788" stroke-width="1" stroke="#91bcc6" stroke-linecap="round"></line><line x1="97.33829756931267" x2="96.13343964992804" y1="121.2950363782475" y2="122.49989429763214" stroke-width="1" stroke="#91bcc6" stroke-linecap="round"></line><line x1="353.33829756931266" x2="352.13343964992805" y1="121.2950363782475" y2="122.49989429763214" stroke-width="1" stroke="#91bcc6" stroke-linecap="round"></line><line x1="609.3382975693127" x2="608.133439649928" y1="121.2950363782475" y2="122.49989429763214" stroke-width="1" stroke="#91bcc6" stroke-linecap="round"></line><line x1="221.12949666486867" x2="217.33511230561777" y1="91.79727403103887" y2="95.59165839028974" stroke-width="1" stroke="#91bcc6" stroke-linecap="round"></line><line x1="221.12949666486867" x2="217.33511230561777" y1="-420.20272596896115" y2="-416.40834160971025" stroke-width="1" stroke="#91bcc6" stroke-linecap="round"></line><line x1="477.12949666486867" x2="473.33511230561777" y1="-420.20272596896115" y2="-416.40834160971025" stroke-width="1" stroke="#91bcc6" stroke-linecap="round"></line><line x1="733.1294966648686" x2="729.3351123056177" y1="-420.20272596896115" y2="-416.40834160971025" stroke-width="1" stroke="#91bcc6" stroke-linecap="round"></line><line x1="221.12949666486867" x2="217.33511230561777" y1="-164.20272596896115" y2="-160.40834160971025" stroke-width="1" stroke="#91bcc6" stroke-linecap="round"></line><line x1="477.12949666486867" x2="473.33511230561777" y1="-164.20272596896115" y2="-160.40834160971025" stroke-width="1" stroke="#91bcc6" stroke-linecap="round"></line><line x1="733.1294966648686" x2="729.3351123056177" y1="-164.20272596896115" y2="-160.40834160971025" stroke-width="1" stroke="#91bcc6" stroke-linecap="round"></line><line x1="221.12949666486867" x2="217.33511230561777" y1="91.79727403103887" y2="95.59165839028974" stroke-width="1" stroke="#91bcc6" stroke-linecap="round"></line><line x1="477.12949666486867" x2="473.33511230561777" y1="91.79727403103887" y2="95.59165839028974" stroke-width="1" stroke="#91bcc6" stroke-linecap="round"></line><line x1="733.1294966648686" x2="729.3351123056177" y1="91.79727403103887" y2="95.59165839028974" stroke-width="1" stroke="#91bcc6" stroke-linecap="round"></line><line x1="110.11053321235843" x2="109.24205303010748" y1="56.45063153738899" y2="57.319111719639956" stroke-width="1" stroke="#91bcc6" stroke-linecap="round"></line><line x1="110.11053321235843" x2="109.24205303010748" y1="-455.549368462611" y2="-454.68088828036" stroke-width="1" stroke="#91bcc6" stroke-linecap="round"></line><line x1="366.1105332123584" x2="365.2420530301075" y1="-455.549368462611" y2="-454.68088828036" stroke-width="1" stroke="#91bcc6" stroke-linecap="round"></line><line x1="622.1105332123584" x2="621.2420530301075" y1="-455.549368462611" y2="-454.68088828036" stroke-width="1" stroke="#91bcc6" stroke-linecap="round"></line><line x1="110.11053321235843" x2="109.24205303010748" y1="-199.549368462611" y2="-198.68088828036005" stroke-width="1" stroke="#91bcc6" stroke-linecap="round"></line><line x1="366.1105332123584" x2="365.2420530301075" y1="-199.549368462611" y2="-198.68088828036005" stroke-width="1" stroke="#91bcc6" stroke-linecap="round"></line><line x1="622.1105332123584" x2="621.2420530301075" y1="-199.549368462611" y2="-198.68088828036005" stroke-width="1" stroke="#91bcc6" stroke-linecap="round"></line><line x1="110.11053321235843" x2="109.24205303010748" y1="56.45063153738899" y2="57.319111719639956" stroke-width="1" stroke="#91bcc6" stroke-linecap="round"></line><line x1="366.1105332123584" x2="365.2420530301075" y1="56.45063153738899" y2="57.319111719639956" stroke-width="1" stroke="#91bcc6" stroke-linecap="round"></line><line x1="622.1105332123584" x2="621.2420530301075" y1="56.45063153738899" y2="57.319111719639956" stroke-width="1" stroke="#91bcc6" stroke-linecap="round"></line><line x1="59.505100506772116" x2="55.306614214542385" y1="-0.8495198690126733" y2="3.348966423217056" stroke-width="1" stroke="#91bcc6" stroke-linecap="round"></line><line x1="59.505100506772116" x2="55.306614214542385" y1="-512.8495198690126" y2="-508.65103357678294" stroke-width="1" stroke="#91bcc6" stroke-linecap="round"></line><line x1="315.5051005067721" x2="311.3066142145424" y1="-512.8495198690126" y2="-508.65103357678294" stroke-width="1" stroke="#91bcc6" stroke-linecap="round"></line><line x1="571.5051005067721" x2="567.3066142145424" y1="-512.8495198690126" y2="-508.65103357678294" stroke-width="1" stroke="#91bcc6" stroke-linecap="round"></line><line x1="59.505100506772116" x2="55.306614214542385" y1="-256.8495198690127" y2="-252.65103357678294" stroke-width="1" stroke="#91bcc6" stroke-linecap="round"></line><line x1="315.5051005067721" x2="311.3066142145424" y1="-256.8495198690127" y2="-252.65103357678294" stroke-width="1" stroke="#91bcc6" stroke-linecap="round"></line><line x1="571.5051005067721" x2="567.3066142145424" y1="-256.8495198690127" y2="-252.65103357678294" stroke-width="1" stroke="#91bcc6" stroke-linecap="round"></line><line x1="59.505100506772116" x2="55.306614214542385" y1="-0.8495198690126733" y2="3.348966423217056" stroke-width="1" stroke="#91bcc6" stroke-linecap="round"></line><line x1="315.5051005067721" x2="311.3066142145424" y1="-0.8495198690126733" y2="3.348966423217056" stroke-width="1" stroke="#91bcc6" stroke-linecap="round"></line><line x1="571.5051005067721" x2="567.3066142145424" y1="-0.8495198690126733" y2="3.348966423217056" stroke-width="1" stroke="#91bcc6" stroke-linecap="round"></line><line x1="59.505100506772116" x2="55.306614214542385" y1="255.15048013098732" y2="259.34896642321706" stroke-width="1" stroke="#91bcc6" stroke-linecap="round"></line><line x1="80.70361150209756" x2="76.37093372671488" y1="116.90186459785205" y2="121.23454237323473" stroke-width="1" stroke="#91bcc6" stroke-linecap="round"></line><line x1="80.70361150209756" x2="76.37093372671488" y1="-395.09813540214793" y2="-390.7654576267653" stroke-width="1" stroke="#91bcc6" stroke-linecap="round"></line><line x1="336.70361150209754" x2="332.3709337267149" y1="-395.09813540214793" y2="-390.7654576267653" stroke-width="1" stroke="#91bcc6" stroke-linecap="round"></line><line x1="592.7036115020976" x2="588.3709337267148" y1="-395.09813540214793" y2="-390.7654576267653" stroke-width="1" stroke="#91bcc6" stroke-linecap="round"></line><line x1="80.70361150209756" x2="76.37093372671488" y1="-139.09813540214793" y2="-134.76545762676528" stroke-width="1" stroke="#91bcc6" stroke-linecap="round"></line><line x1="336.70361150209754" x2="332.3709337267149" y1="-139.09813540214793" y2="-134.76545762676528" stroke-width="1" stroke="#91bcc6" stroke-linecap="round"></line><line x1="592.7036115020976" x2="588.3709337267148" y1="-139.09813540214793" y2="-134.76545762676528" stroke-width="1" stroke="#91bcc6" stroke-linecap="round"></line><line x1="80.70361150209756" x2="76.37093372671488" y1="116.90186459785205" y2="121.23454237323473" stroke-width="1" stroke="#91bcc6" stroke-linecap="round"></line><line x1="336.70361150209754" x2="332.3709337267149" y1="116.90186459785205" y2="121.23454237323473" stroke-width="1" stroke="#91bcc6" stroke-linecap="round"></line><line x1="592.7036115020976" x2="588.3709337267148" y1="116.90186459785205" y2="121.23454237323473" stroke-width="1" stroke="#91bcc6" stroke-linecap="round"></line><line x1="12.670048454208791" x2="8.585032645721958" y1="51.566132541201775" y2="55.651148349688604" stroke-width="1" stroke="#91bcc6" stroke-linecap="round"></line><line x1="12.670048454208791" x2="8.585032645721958" y1="-460.4338674587982" y2="-456.3488516503114" stroke-width="1" stroke="#91bcc6" stroke-linecap="round"></line><line x1="268.67004845420877" x2="264.585032645722" y1="-460.4338674587982" y2="-456.3488516503114" stroke-width="1" stroke="#91bcc6" stroke-linecap="round"></line><line x1="524.6700484542088" x2="520.585032645722" y1="-460.4338674587982" y2="-456.3488516503114" stroke-width="1" stroke="#91bcc6" stroke-linecap="round"></line><line x1="12.670048454208791" x2="8.585032645721958" y1="-204.43386745879823" y2="-200.3488516503114" stroke-width="1" stroke="#91bcc6" stroke-linecap="round"></line><line x1="268.67004845420877" x2="264.585032645722" y1="-204.43386745879823" y2="-200.3488516503114" stroke-width="1" stroke="#91bcc6" stroke-linecap="round"></line><line x1="524.6700484542088" x2="520.585032645722" y1="-204.43386745879823" y2="-200.3488516503114" stroke-width="1" stroke="#91bcc6" stroke-linecap="round"></line><line x1="12.670048454208791" x2="8.585032645721958" y1="51.566132541201775" y2="55.651148349688604" stroke-width="1" stroke="#91bcc6" stroke-linecap="round"></line><line x1="268.67004845420877" x2="264.585032645722" y1="51.566132541201775" y2="55.651148349688604" stroke-width="1" stroke="#91bcc6" stroke-linecap="round"></line><line x1="524.6700484542088" x2="520.585032645722" y1="51.566132541201775" y2="55.651148349688604" stroke-width="1" stroke="#91bcc6" stroke-linecap="round"></line>
  <animateTransform attributeName="transform" type="translate" values="0 0;-256 256" keyTimes="0;1" repeatCount="indefinite" dur="1.9607843137254901s"></animateTransform>
</g></g></svg>