<?xml version="1.0" encoding="utf-8"?>
<svg xmlns="http://www.w3.org/2000/svg" xmlns:xlink="http://www.w3.org/1999/xlink" style="background: rgb(25, 70, 69); display: block; position: relative; shape-rendering: auto;" width="360" height="360" preserveAspectRatio="xMidYMid" viewBox="0 0 360 360"><g transform="scale(1.4100000000000001)"><g>
  <line x1="199.53942913768094" x2="197.7186935138826" y1="102.53930833431656" y2="104.36004395811489" stroke-width="1" stroke="#91bcc6" stroke-linecap="round"></line><line x1="199.53942913768094" x2="197.7186935138826" y1="-409.46069166568344" y2="-407.6399560418851" stroke-width="1" stroke="#91bcc6" stroke-linecap="round"></line><line x1="455.53942913768094" x2="453.7186935138826" y1="-409.46069166568344" y2="-407.6399560418851" stroke-width="1" stroke="#91bcc6" stroke-linecap="round"></line><line x1="711.5394291376809" x2="709.7186935138826" y1="-409.46069166568344" y2="-407.6399560418851" stroke-width="1" stroke="#91bcc6" stroke-linecap="round"></line><line x1="199.53942913768094" x2="197.7186935138826" y1="-153.46069166568344" y2="-151.6399560418851" stroke-width="1" stroke="#91bcc6" stroke-linecap="round"></line><line x1="455.53942913768094" x2="453.7186935138826" y1="-153.46069166568344" y2="-151.6399560418851" stroke-width="1" stroke="#91bcc6" stroke-linecap="round"></line><line x1="711.5394291376809" x2="709.7186935138826" y1="-153.46069166568344" y2="-151.6399560418851" stroke-width="1" stroke="#91bcc6" stroke-linecap="round"></line><line x1="199.53942913768094" x2="197.7186935138826" y1="102.53930833431656" y2="104.36004395811489" stroke-width="1" stroke="#91bcc6" stroke-linecap="round"></line><line x1="455.53942913768094" x2="453.7186935138826" y1="102.53930833431656" y2="104.36004395811489" stroke-width="1" stroke="#91bcc6" stroke-linecap="round"></line><line x1="711.5394291376809" x2="709.7186935138826" y1="102.53930833431656" y2="104.36004395811489" stroke-width="1" stroke="#91bcc6" stroke-linecap="round"></line><line x1="92.17001945194" x2="89.70906356551268" y1="156.59245062048052" y2="159.05340650690783" stroke-width="1" stroke="#91bcc6" stroke-linecap="round"></line><line x1="92.17001945194" x2="89.70906356551268" y1="-355.4075493795195" y2="-352.94659349309217" stroke-width="1" stroke="#91bcc6" stroke-linecap="round"></line><line x1="348.17001945194" x2="345.7090635655127" y1="-355.4075493795195" y2="-352.94659349309217" stroke-width="1" stroke="#91bcc6" stroke-linecap="round"></line><line x1="604.17001945194" x2="601.7090635655127" y1="-355.4075493795195" y2="-352.94659349309217" stroke-width="1" stroke="#91bcc6" stroke-linecap="round"></line><line x1="92.17001945194" x2="89.70906356551268" y1="-99.40754937951948" y2="-96.94659349309217" stroke-width="1" stroke="#91bcc6" stroke-linecap="round"></line><line x1="348.17001945194" x2="345.7090635655127" y1="-99.40754937951948" y2="-96.94659349309217" stroke-width="1" stroke="#91bcc6" stroke-linecap="round"></line><line x1="604.17001945194" x2="601.7090635655127" y1="-99.40754937951948" y2="-96.94659349309217" stroke-width="1" stroke="#91bcc6" stroke-linecap="round"></line><line x1="92.17001945194" x2="89.70906356551268" y1="156.59245062048052" y2="159.05340650690783" stroke-width="1" stroke="#91bcc6" stroke-linecap="round"></line><line x1="348.17001945194" x2="345.7090635655127" y1="156.59245062048052" y2="159.05340650690783" stroke-width="1" stroke="#91bcc6" stroke-linecap="round"></line><line x1="604.17001945194" x2="601.7090635655127" y1="156.59245062048052" y2="159.05340650690783" stroke-width="1" stroke="#91bcc6" stroke-linecap="round"></line><line x1="90.16678189003112" x2="88.25814887906309" y1="53.993530680193786" y2="55.90216369116182" stroke-width="1" stroke="#91bcc6" stroke-linecap="round"></line><line x1="90.16678189003112" x2="88.25814887906309" y1="-458.00646931980623" y2="-456.09783630883817" stroke-width="1" stroke="#91bcc6" stroke-linecap="round"></line><line x1="346.16678189003113" x2="344.25814887906307" y1="-458.00646931980623" y2="-456.09783630883817" stroke-width="1" stroke="#91bcc6" stroke-linecap="round"></line><line x1="602.1667818900311" x2="600.2581488790631" y1="-458.00646931980623" y2="-456.09783630883817" stroke-width="1" stroke="#91bcc6" stroke-linecap="round"></line><line x1="90.16678189003112" x2="88.25814887906309" y1="-202.00646931980623" y2="-200.09783630883817" stroke-width="1" stroke="#91bcc6" stroke-linecap="round"></line><line x1="346.16678189003113" x2="344.25814887906307" y1="-202.00646931980623" y2="-200.09783630883817" stroke-width="1" stroke="#91bcc6" stroke-linecap="round"></line><line x1="602.1667818900311" x2="600.2581488790631" y1="-202.00646931980623" y2="-200.09783630883817" stroke-width="1" stroke="#91bcc6" stroke-linecap="round"></line><line x1="90.16678189003112" x2="88.25814887906309" y1="53.993530680193786" y2="55.90216369116182" stroke-width="1" stroke="#91bcc6" stroke-linecap="round"></line><line x1="346.16678189003113" x2="344.25814887906307" y1="53.993530680193786" y2="55.90216369116182" stroke-width="1" stroke="#91bcc6" stroke-linecap="round"></line><line x1="602.1667818900311" x2="600.2581488790631" y1="53.993530680193786" y2="55.90216369116182" stroke-width="1" stroke="#91bcc6" stroke-linecap="round"></line><line x1="202.52860556770491" x2="197.71884405440795" y1="169.50266882829038" y2="174.31243034158734" stroke-width="1" stroke="#91bcc6" stroke-linecap="round"></line><line x1="202.52860556770491" x2="197.71884405440795" y1="-342.4973311717096" y2="-337.68756965841266" stroke-width="1" stroke="#91bcc6" stroke-linecap="round"></line><line x1="458.5286055677049" x2="453.71884405440795" y1="-342.4973311717096" y2="-337.68756965841266" stroke-width="1" stroke="#91bcc6" stroke-linecap="round"></line><line x1="714.528605567705" x2="709.718844054408" y1="-342.4973311717096" y2="-337.68756965841266" stroke-width="1" stroke="#91bcc6" stroke-linecap="round"></line><line x1="202.52860556770491" x2="197.71884405440795" y1="-86.49733117170962" y2="-81.68756965841266" stroke-width="1" stroke="#91bcc6" stroke-linecap="round"></line><line x1="458.5286055677049" x2="453.71884405440795" y1="-86.49733117170962" y2="-81.68756965841266" stroke-width="1" stroke="#91bcc6" stroke-linecap="round"></line><line x1="714.528605567705" x2="709.718844054408" y1="-86.49733117170962" y2="-81.68756965841266" stroke-width="1" stroke="#91bcc6" stroke-linecap="round"></line><line x1="202.52860556770491" x2="197.71884405440795" y1="169.50266882829038" y2="174.31243034158734" stroke-width="1" stroke="#91bcc6" stroke-linecap="round"></line><line x1="458.5286055677049" x2="453.71884405440795" y1="169.50266882829038" y2="174.31243034158734" stroke-width="1" stroke="#91bcc6" stroke-linecap="round"></line><line x1="714.528605567705" x2="709.718844054408" y1="169.50266882829038" y2="174.31243034158734" stroke-width="1" stroke="#91bcc6" stroke-linecap="round"></line><line x1="3.595462924257839" x2="0.04570513817566857" y1="176.43984354465823" y2="179.9896013307404" stroke-width="1" stroke="#91bcc6" stroke-linecap="round"></line><line x1="3.595462924257839" x2="0.04570513817566857" y1="-335.56015645534177" y2="-332.0103986692596" stroke-width="1" stroke="#91bcc6" stroke-linecap="round"></line><line x1="259.59546292425784" x2="256.04570513817566" y1="-335.56015645534177" y2="-332.0103986692596" stroke-width="1" stroke="#91bcc6" stroke-linecap="round"></line><line x1="515.5954629242578" x2="512.0457051381757" y1="-335.56015645534177" y2="-332.0103986692596" stroke-width="1" stroke="#91bcc6" stroke-linecap="round"></line><line x1="3.595462924257839" x2="0.04570513817566857" y1="-79.56015645534177" y2="-76.01039866925959" stroke-width="1" stroke="#91bcc6" stroke-linecap="round"></line><line x1="259.59546292425784" x2="256.04570513817566" y1="-79.56015645534177" y2="-76.01039866925959" stroke-width="1" stroke="#91bcc6" stroke-linecap="round"></line><line x1="515.5954629242578" x2="512.0457051381757" y1="-79.56015645534177" y2="-76.01039866925959" stroke-width="1" stroke="#91bcc6" stroke-linecap="round"></line><line x1="3.595462924257839" x2="0.04570513817566857" y1="176.43984354465823" y2="179.9896013307404" stroke-width="1" stroke="#91bcc6" stroke-linecap="round"></line><line x1="259.59546292425784" x2="256.04570513817566" y1="176.43984354465823" y2="179.9896013307404" stroke-width="1" stroke="#91bcc6" stroke-linecap="round"></line><line x1="515.5954629242578" x2="512.0457051381757" y1="176.43984354465823" y2="179.9896013307404" stroke-width="1" stroke="#91bcc6" stroke-linecap="round"></line><line x1="230.07207097868115" x2="226.35428359487764" y1="150.39259430037674" y2="154.11038168418025" stroke-width="1" stroke="#91bcc6" stroke-linecap="round"></line><line x1="230.07207097868115" x2="226.35428359487764" y1="-361.60740569962326" y2="-357.88961831581975" stroke-width="1" stroke="#91bcc6" stroke-linecap="round"></line><line x1="486.07207097868115" x2="482.35428359487764" y1="-361.60740569962326" y2="-357.88961831581975" stroke-width="1" stroke="#91bcc6" stroke-linecap="round"></line><line x1="742.0720709786812" x2="738.3542835948776" y1="-361.60740569962326" y2="-357.88961831581975" stroke-width="1" stroke="#91bcc6" stroke-linecap="round"></line><line x1="230.07207097868115" x2="226.35428359487764" y1="-105.60740569962326" y2="-101.88961831581975" stroke-width="1" stroke="#91bcc6" stroke-linecap="round"></line><line x1="486.07207097868115" x2="482.35428359487764" y1="-105.60740569962326" y2="-101.88961831581975" stroke-width="1" stroke="#91bcc6" stroke-linecap="round"></line><line x1="742.0720709786812" x2="738.3542835948776" y1="-105.60740569962326" y2="-101.88961831581975" stroke-width="1" stroke="#91bcc6" stroke-linecap="round"></line><line x1="230.07207097868115" x2="226.35428359487764" y1="150.39259430037674" y2="154.11038168418025" stroke-width="1" stroke="#91bcc6" stroke-linecap="round"></line><line x1="486.07207097868115" x2="482.35428359487764" y1="150.39259430037674" y2="154.11038168418025" stroke-width="1" stroke="#91bcc6" stroke-linecap="round"></line><line x1="742.0720709786812" x2="738.3542835948776" y1="150.39259430037674" y2="154.11038168418025" stroke-width="1" stroke="#91bcc6" stroke-linecap="round"></line><line x1="130.07872346008506" x2="128.70649287360183" y1="131.98485223220987" y2="133.3570828186931" stroke-width="1" stroke="#91bcc6" stroke-linecap="round"></line><line x1="130.07872346008506" x2="128.70649287360183" y1="-380.01514776779015" y2="-378.64291718130687" stroke-width="1" stroke="#91bcc6" stroke-linecap="round"></line><line x1="386.07872346008503" x2="384.70649287360186" y1="-380.01514776779015" y2="-378.64291718130687" stroke-width="1" stroke="#91bcc6" stroke-linecap="round"></line><line x1="642.078723460085" x2="640.7064928736019" y1="-380.01514776779015" y2="-378.64291718130687" stroke-width="1" stroke="#91bcc6" stroke-linecap="round"></line><line x1="130.07872346008506" x2="128.70649287360183" y1="-124.01514776779013" y2="-122.6429171813069" stroke-width="1" stroke="#91bcc6" stroke-linecap="round"></line><line x1="386.07872346008503" x2="384.70649287360186" y1="-124.01514776779013" y2="-122.6429171813069" stroke-width="1" stroke="#91bcc6" stroke-linecap="round"></line><line x1="642.078723460085" x2="640.7064928736019" y1="-124.01514776779013" y2="-122.6429171813069" stroke-width="1" stroke="#91bcc6" stroke-linecap="round"></line><line x1="130.07872346008506" x2="128.70649287360183" y1="131.98485223220987" y2="133.3570828186931" stroke-width="1" stroke="#91bcc6" stroke-linecap="round"></line><line x1="386.07872346008503" x2="384.70649287360186" y1="131.98485223220987" y2="133.3570828186931" stroke-width="1" stroke="#91bcc6" stroke-linecap="round"></line><line x1="642.078723460085" x2="640.7064928736019" y1="131.98485223220987" y2="133.3570828186931" stroke-width="1" stroke="#91bcc6" stroke-linecap="round"></line><line x1="123.42101789441332" x2="121.34248605947155" y1="64.38478553427191" y2="66.46331736921368" stroke-width="1" stroke="#91bcc6" stroke-linecap="round"></line><line x1="123.42101789441332" x2="121.34248605947155" y1="-447.61521446572806" y2="-445.53668263078634" stroke-width="1" stroke="#91bcc6" stroke-linecap="round"></line><line x1="379.42101789441335" x2="377.3424860594715" y1="-447.61521446572806" y2="-445.53668263078634" stroke-width="1" stroke="#91bcc6" stroke-linecap="round"></line><line x1="635.4210178944134" x2="633.3424860594715" y1="-447.61521446572806" y2="-445.53668263078634" stroke-width="1" stroke="#91bcc6" stroke-linecap="round"></line><line x1="123.42101789441332" x2="121.34248605947155" y1="-191.6152144657281" y2="-189.53668263078632" stroke-width="1" stroke="#91bcc6" stroke-linecap="round"></line><line x1="379.42101789441335" x2="377.3424860594715" y1="-191.6152144657281" y2="-189.53668263078632" stroke-width="1" stroke="#91bcc6" stroke-linecap="round"></line><line x1="635.4210178944134" x2="633.3424860594715" y1="-191.6152144657281" y2="-189.53668263078632" stroke-width="1" stroke="#91bcc6" stroke-linecap="round"></line><line x1="123.42101789441332" x2="121.34248605947155" y1="64.38478553427191" y2="66.46331736921368" stroke-width="1" stroke="#91bcc6" stroke-linecap="round"></line><line x1="379.42101789441335" x2="377.3424860594715" y1="64.38478553427191" y2="66.46331736921368" stroke-width="1" stroke="#91bcc6" stroke-linecap="round"></line><line x1="635.4210178944134" x2="633.3424860594715" y1="64.38478553427191" y2="66.46331736921368" stroke-width="1" stroke="#91bcc6" stroke-linecap="round"></line>
  <animateTransform attributeName="transform" type="translate" values="0 0;-256 256" keyTimes="0;1" repeatCount="indefinite" dur="5.88235294117647s"></animateTransform>
</g><g>
  <line x1="126.16083195016235" x2="122.83994665806755" y1="94.95618672823939" y2="98.27707202033419" stroke-width="1" stroke="#91bcc6" stroke-linecap="round"></line><line x1="126.16083195016235" x2="122.83994665806755" y1="-417.0438132717606" y2="-413.7229279796658" stroke-width="1" stroke="#91bcc6" stroke-linecap="round"></line><line x1="382.16083195016233" x2="378.83994665806756" y1="-417.0438132717606" y2="-413.7229279796658" stroke-width="1" stroke="#91bcc6" stroke-linecap="round"></line><line x1="638.1608319501623" x2="634.8399466580676" y1="-417.0438132717606" y2="-413.7229279796658" stroke-width="1" stroke="#91bcc6" stroke-linecap="round"></line><line x1="126.16083195016235" x2="122.83994665806755" y1="-161.0438132717606" y2="-157.72292797966583" stroke-width="1" stroke="#91bcc6" stroke-linecap="round"></line><line x1="382.16083195016233" x2="378.83994665806756" y1="-161.0438132717606" y2="-157.72292797966583" stroke-width="1" stroke="#91bcc6" stroke-linecap="round"></line><line x1="638.1608319501623" x2="634.8399466580676" y1="-161.0438132717606" y2="-157.72292797966583" stroke-width="1" stroke="#91bcc6" stroke-linecap="round"></line><line x1="126.16083195016235" x2="122.83994665806755" y1="94.95618672823939" y2="98.27707202033419" stroke-width="1" stroke="#91bcc6" stroke-linecap="round"></line><line x1="382.16083195016233" x2="378.83994665806756" y1="94.95618672823939" y2="98.27707202033419" stroke-width="1" stroke="#91bcc6" stroke-linecap="round"></line><line x1="638.1608319501623" x2="634.8399466580676" y1="94.95618672823939" y2="98.27707202033419" stroke-width="1" stroke="#91bcc6" stroke-linecap="round"></line><line x1="69.84704621162544" x2="65.28205163670233" y1="199.497879615017" y2="204.06287418994012" stroke-width="1" stroke="#91bcc6" stroke-linecap="round"></line><line x1="69.84704621162544" x2="65.28205163670233" y1="-312.50212038498296" y2="-307.9371258100599" stroke-width="1" stroke="#91bcc6" stroke-linecap="round"></line><line x1="325.8470462116254" x2="321.28205163670236" y1="-312.50212038498296" y2="-307.9371258100599" stroke-width="1" stroke="#91bcc6" stroke-linecap="round"></line><line x1="581.8470462116254" x2="577.2820516367024" y1="-312.50212038498296" y2="-307.9371258100599" stroke-width="1" stroke="#91bcc6" stroke-linecap="round"></line><line x1="69.84704621162544" x2="65.28205163670233" y1="-56.50212038498299" y2="-51.93712581005988" stroke-width="1" stroke="#91bcc6" stroke-linecap="round"></line><line x1="325.8470462116254" x2="321.28205163670236" y1="-56.50212038498299" y2="-51.93712581005988" stroke-width="1" stroke="#91bcc6" stroke-linecap="round"></line><line x1="581.8470462116254" x2="577.2820516367024" y1="-56.50212038498299" y2="-51.93712581005988" stroke-width="1" stroke="#91bcc6" stroke-linecap="round"></line><line x1="69.84704621162544" x2="65.28205163670233" y1="199.497879615017" y2="204.06287418994012" stroke-width="1" stroke="#91bcc6" stroke-linecap="round"></line><line x1="325.8470462116254" x2="321.28205163670236" y1="199.497879615017" y2="204.06287418994012" stroke-width="1" stroke="#91bcc6" stroke-linecap="round"></line><line x1="581.8470462116254" x2="577.2820516367024" y1="199.497879615017" y2="204.06287418994012" stroke-width="1" stroke="#91bcc6" stroke-linecap="round"></line><line x1="248.23190504194164" x2="244.18632954578177" y1="114.2836179572295" y2="118.32919345338937" stroke-width="1" stroke="#91bcc6" stroke-linecap="round"></line><line x1="248.23190504194164" x2="244.18632954578177" y1="-397.71638204277053" y2="-393.6708065466106" stroke-width="1" stroke="#91bcc6" stroke-linecap="round"></line><line x1="504.2319050419417" x2="500.18632954578175" y1="-397.71638204277053" y2="-393.6708065466106" stroke-width="1" stroke="#91bcc6" stroke-linecap="round"></line><line x1="760.2319050419417" x2="756.1863295457817" y1="-397.71638204277053" y2="-393.6708065466106" stroke-width="1" stroke="#91bcc6" stroke-linecap="round"></line><line x1="248.23190504194164" x2="244.18632954578177" y1="-141.7163820427705" y2="-137.67080654661063" stroke-width="1" stroke="#91bcc6" stroke-linecap="round"></line><line x1="504.2319050419417" x2="500.18632954578175" y1="-141.7163820427705" y2="-137.67080654661063" stroke-width="1" stroke="#91bcc6" stroke-linecap="round"></line><line x1="760.2319050419417" x2="756.1863295457817" y1="-141.7163820427705" y2="-137.67080654661063" stroke-width="1" stroke="#91bcc6" stroke-linecap="round"></line><line x1="248.23190504194164" x2="244.18632954578177" y1="114.2836179572295" y2="118.32919345338937" stroke-width="1" stroke="#91bcc6" stroke-linecap="round"></line><line x1="504.2319050419417" x2="500.18632954578175" y1="114.2836179572295" y2="118.32919345338937" stroke-width="1" stroke="#91bcc6" stroke-linecap="round"></line><line x1="760.2319050419417" x2="756.1863295457817" y1="114.2836179572295" y2="118.32919345338937" stroke-width="1" stroke="#91bcc6" stroke-linecap="round"></line><line x1="167.87713787742055" x2="164.2611393457988" y1="252.28214598180423" y2="255.898144513426" stroke-width="1" stroke="#91bcc6" stroke-linecap="round"></line><line x1="167.87713787742055" x2="164.2611393457988" y1="-259.7178540181958" y2="-256.101855486574" stroke-width="1" stroke="#91bcc6" stroke-linecap="round"></line><line x1="423.8771378774205" x2="420.2611393457988" y1="-259.7178540181958" y2="-256.101855486574" stroke-width="1" stroke="#91bcc6" stroke-linecap="round"></line><line x1="679.8771378774205" x2="676.2611393457988" y1="-259.7178540181958" y2="-256.101855486574" stroke-width="1" stroke="#91bcc6" stroke-linecap="round"></line><line x1="167.87713787742055" x2="164.2611393457988" y1="-3.7178540181957658" y2="-0.10185548657401" stroke-width="1" stroke="#91bcc6" stroke-linecap="round"></line><line x1="423.8771378774205" x2="420.2611393457988" y1="-3.7178540181957658" y2="-0.10185548657401" stroke-width="1" stroke="#91bcc6" stroke-linecap="round"></line><line x1="679.8771378774205" x2="676.2611393457988" y1="-3.7178540181957658" y2="-0.10185548657401" stroke-width="1" stroke="#91bcc6" stroke-linecap="round"></line><line x1="167.87713787742055" x2="164.2611393457988" y1="252.28214598180423" y2="255.898144513426" stroke-width="1" stroke="#91bcc6" stroke-linecap="round"></line><line x1="423.8771378774205" x2="420.2611393457988" y1="252.28214598180423" y2="255.898144513426" stroke-width="1" stroke="#91bcc6" stroke-linecap="round"></line><line x1="679.8771378774205" x2="676.2611393457988" y1="252.28214598180423" y2="255.898144513426" stroke-width="1" stroke="#91bcc6" stroke-linecap="round"></line><line x1="175.69087967826152" x2="172.0083893872366" y1="51.02057573762408" y2="54.70306602864901" stroke-width="1" stroke="#91bcc6" stroke-linecap="round"></line><line x1="175.69087967826152" x2="172.0083893872366" y1="-460.9794242623759" y2="-457.296933971351" stroke-width="1" stroke="#91bcc6" stroke-linecap="round"></line><line x1="431.6908796782615" x2="428.0083893872366" y1="-460.9794242623759" y2="-457.296933971351" stroke-width="1" stroke="#91bcc6" stroke-linecap="round"></line><line x1="687.6908796782616" x2="684.0083893872365" y1="-460.9794242623759" y2="-457.296933971351" stroke-width="1" stroke="#91bcc6" stroke-linecap="round"></line><line x1="175.69087967826152" x2="172.0083893872366" y1="-204.97942426237591" y2="-201.296933971351" stroke-width="1" stroke="#91bcc6" stroke-linecap="round"></line><line x1="431.6908796782615" x2="428.0083893872366" y1="-204.97942426237591" y2="-201.296933971351" stroke-width="1" stroke="#91bcc6" stroke-linecap="round"></line><line x1="687.6908796782616" x2="684.0083893872365" y1="-204.97942426237591" y2="-201.296933971351" stroke-width="1" stroke="#91bcc6" stroke-linecap="round"></line><line x1="175.69087967826152" x2="172.0083893872366" y1="51.02057573762408" y2="54.70306602864901" stroke-width="1" stroke="#91bcc6" stroke-linecap="round"></line><line x1="431.6908796782615" x2="428.0083893872366" y1="51.02057573762408" y2="54.70306602864901" stroke-width="1" stroke="#91bcc6" stroke-linecap="round"></line><line x1="687.6908796782616" x2="684.0083893872365" y1="51.02057573762408" y2="54.70306602864901" stroke-width="1" stroke="#91bcc6" stroke-linecap="round"></line><line x1="82.8657560515999" x2="80.6810041343144" y1="206.23239035558592" y2="208.41714227287142" stroke-width="1" stroke="#91bcc6" stroke-linecap="round"></line><line x1="82.8657560515999" x2="80.6810041343144" y1="-305.76760964441405" y2="-303.5828577271286" stroke-width="1" stroke="#91bcc6" stroke-linecap="round"></line><line x1="338.8657560515999" x2="336.68100413431443" y1="-305.76760964441405" y2="-303.5828577271286" stroke-width="1" stroke="#91bcc6" stroke-linecap="round"></line><line x1="594.8657560515999" x2="592.6810041343144" y1="-305.76760964441405" y2="-303.5828577271286" stroke-width="1" stroke="#91bcc6" stroke-linecap="round"></line><line x1="82.8657560515999" x2="80.6810041343144" y1="-49.76760964441408" y2="-47.582857727128584" stroke-width="1" stroke="#91bcc6" stroke-linecap="round"></line><line x1="338.8657560515999" x2="336.68100413431443" y1="-49.76760964441408" y2="-47.582857727128584" stroke-width="1" stroke="#91bcc6" stroke-linecap="round"></line><line x1="594.8657560515999" x2="592.6810041343144" y1="-49.76760964441408" y2="-47.582857727128584" stroke-width="1" stroke="#91bcc6" stroke-linecap="round"></line><line x1="82.8657560515999" x2="80.6810041343144" y1="206.23239035558592" y2="208.41714227287142" stroke-width="1" stroke="#91bcc6" stroke-linecap="round"></line><line x1="338.8657560515999" x2="336.68100413431443" y1="206.23239035558592" y2="208.41714227287142" stroke-width="1" stroke="#91bcc6" stroke-linecap="round"></line><line x1="594.8657560515999" x2="592.6810041343144" y1="206.23239035558592" y2="208.41714227287142" stroke-width="1" stroke="#91bcc6" stroke-linecap="round"></line><line x1="234.5971664542349" x2="231.54171890658185" y1="238.027531512347" y2="241.08297906000004" stroke-width="1" stroke="#91bcc6" stroke-linecap="round"></line><line x1="234.5971664542349" x2="231.54171890658185" y1="-273.97246848765303" y2="-270.91702093999993" stroke-width="1" stroke="#91bcc6" stroke-linecap="round"></line><line x1="490.59716645423487" x2="487.5417189065819" y1="-273.97246848765303" y2="-270.91702093999993" stroke-width="1" stroke="#91bcc6" stroke-linecap="round"></line><line x1="746.5971664542349" x2="743.5417189065819" y1="-273.97246848765303" y2="-270.91702093999993" stroke-width="1" stroke="#91bcc6" stroke-linecap="round"></line><line x1="234.5971664542349" x2="231.54171890658185" y1="-17.972468487653003" y2="-14.917020939999958" stroke-width="1" stroke="#91bcc6" stroke-linecap="round"></line><line x1="490.59716645423487" x2="487.5417189065819" y1="-17.972468487653003" y2="-14.917020939999958" stroke-width="1" stroke="#91bcc6" stroke-linecap="round"></line><line x1="746.5971664542349" x2="743.5417189065819" y1="-17.972468487653003" y2="-14.917020939999958" stroke-width="1" stroke="#91bcc6" stroke-linecap="round"></line><line x1="234.5971664542349" x2="231.54171890658185" y1="238.027531512347" y2="241.08297906000004" stroke-width="1" stroke="#91bcc6" stroke-linecap="round"></line><line x1="490.59716645423487" x2="487.5417189065819" y1="238.027531512347" y2="241.08297906000004" stroke-width="1" stroke="#91bcc6" stroke-linecap="round"></line><line x1="746.5971664542349" x2="743.5417189065819" y1="238.027531512347" y2="241.08297906000004" stroke-width="1" stroke="#91bcc6" stroke-linecap="round"></line><line x1="41.93320666289448" x2="40.89786029824687" y1="184.93000885308095" y2="185.96535521772853" stroke-width="1" stroke="#91bcc6" stroke-linecap="round"></line><line x1="41.93320666289448" x2="40.89786029824687" y1="-327.06999114691905" y2="-326.03464478227147" stroke-width="1" stroke="#91bcc6" stroke-linecap="round"></line><line x1="297.93320666289446" x2="296.8978602982469" y1="-327.06999114691905" y2="-326.03464478227147" stroke-width="1" stroke="#91bcc6" stroke-linecap="round"></line><line x1="553.9332066628945" x2="552.8978602982469" y1="-327.06999114691905" y2="-326.03464478227147" stroke-width="1" stroke="#91bcc6" stroke-linecap="round"></line><line x1="41.93320666289448" x2="40.89786029824687" y1="-71.06999114691905" y2="-70.03464478227147" stroke-width="1" stroke="#91bcc6" stroke-linecap="round"></line><line x1="297.93320666289446" x2="296.8978602982469" y1="-71.06999114691905" y2="-70.03464478227147" stroke-width="1" stroke="#91bcc6" stroke-linecap="round"></line><line x1="553.9332066628945" x2="552.8978602982469" y1="-71.06999114691905" y2="-70.03464478227147" stroke-width="1" stroke="#91bcc6" stroke-linecap="round"></line><line x1="41.93320666289448" x2="40.89786029824687" y1="184.93000885308095" y2="185.96535521772853" stroke-width="1" stroke="#91bcc6" stroke-linecap="round"></line><line x1="297.93320666289446" x2="296.8978602982469" y1="184.93000885308095" y2="185.96535521772853" stroke-width="1" stroke="#91bcc6" stroke-linecap="round"></line><line x1="553.9332066628945" x2="552.8978602982469" y1="184.93000885308095" y2="185.96535521772853" stroke-width="1" stroke="#91bcc6" stroke-linecap="round"></line>
  <animateTransform attributeName="transform" type="translate" values="0 0;-256 256" keyTimes="0;1" repeatCount="indefinite" dur="2.941176470588235s"></animateTransform>
</g><g>
  <line x1="2.415700386110153" x2="0.9425837529061383" y1="162.86634425774943" y2="164.33946089095346" stroke-width="1" stroke="#91bcc6" stroke-linecap="round"></line><line x1="2.415700386110153" x2="0.9425837529061383" y1="-349.13365574225054" y2="-347.66053910904657" stroke-width="1" stroke="#91bcc6" stroke-linecap="round"></line><line x1="258.41570038611013" x2="256.94258375290616" y1="-349.13365574225054" y2="-347.66053910904657" stroke-width="1" stroke="#91bcc6" stroke-linecap="round"></line><line x1="514.4157003861102" x2="512.9425837529061" y1="-349.13365574225054" y2="-347.66053910904657" stroke-width="1" stroke="#91bcc6" stroke-linecap="round"></line><line x1="2.415700386110153" x2="0.9425837529061383" y1="-93.13365574225057" y2="-91.66053910904654" stroke-width="1" stroke="#91bcc6" stroke-linecap="round"></line><line x1="258.41570038611013" x2="256.94258375290616" y1="-93.13365574225057" y2="-91.66053910904654" stroke-width="1" stroke="#91bcc6" stroke-linecap="round"></line><line x1="514.4157003861102" x2="512.9425837529061" y1="-93.13365574225057" y2="-91.66053910904654" stroke-width="1" stroke="#91bcc6" stroke-linecap="round"></line><line x1="2.415700386110153" x2="0.9425837529061383" y1="162.86634425774943" y2="164.33946089095346" stroke-width="1" stroke="#91bcc6" stroke-linecap="round"></line><line x1="258.41570038611013" x2="256.94258375290616" y1="162.86634425774943" y2="164.33946089095346" stroke-width="1" stroke="#91bcc6" stroke-linecap="round"></line><line x1="514.4157003861102" x2="512.9425837529061" y1="162.86634425774943" y2="164.33946089095346" stroke-width="1" stroke="#91bcc6" stroke-linecap="round"></line><line x1="161.94715430256147" x2="159.98971944407216" y1="202.36118921526858" y2="204.3186240737579" stroke-width="1" stroke="#91bcc6" stroke-linecap="round"></line><line x1="161.94715430256147" x2="159.98971944407216" y1="-309.6388107847314" y2="-307.68137592624214" stroke-width="1" stroke="#91bcc6" stroke-linecap="round"></line><line x1="417.94715430256144" x2="415.9897194440722" y1="-309.6388107847314" y2="-307.68137592624214" stroke-width="1" stroke="#91bcc6" stroke-linecap="round"></line><line x1="673.9471543025614" x2="671.9897194440722" y1="-309.6388107847314" y2="-307.68137592624214" stroke-width="1" stroke="#91bcc6" stroke-linecap="round"></line><line x1="161.94715430256147" x2="159.98971944407216" y1="-53.63881078473142" y2="-51.68137592624211" stroke-width="1" stroke="#91bcc6" stroke-linecap="round"></line><line x1="417.94715430256144" x2="415.9897194440722" y1="-53.63881078473142" y2="-51.68137592624211" stroke-width="1" stroke="#91bcc6" stroke-linecap="round"></line><line x1="673.9471543025614" x2="671.9897194440722" y1="-53.63881078473142" y2="-51.68137592624211" stroke-width="1" stroke="#91bcc6" stroke-linecap="round"></line><line x1="161.94715430256147" x2="159.98971944407216" y1="202.36118921526858" y2="204.3186240737579" stroke-width="1" stroke="#91bcc6" stroke-linecap="round"></line><line x1="417.94715430256144" x2="415.9897194440722" y1="202.36118921526858" y2="204.3186240737579" stroke-width="1" stroke="#91bcc6" stroke-linecap="round"></line><line x1="673.9471543025614" x2="671.9897194440722" y1="202.36118921526858" y2="204.3186240737579" stroke-width="1" stroke="#91bcc6" stroke-linecap="round"></line><line x1="39.22220951189795" x2="37.97261545932397" y1="233.1265744328326" y2="234.37616848540657" stroke-width="1" stroke="#91bcc6" stroke-linecap="round"></line><line x1="39.22220951189795" x2="37.97261545932397" y1="-278.8734255671674" y2="-277.62383151459346" stroke-width="1" stroke="#91bcc6" stroke-linecap="round"></line><line x1="295.222209511898" x2="293.97261545932395" y1="-278.8734255671674" y2="-277.62383151459346" stroke-width="1" stroke="#91bcc6" stroke-linecap="round"></line><line x1="551.222209511898" x2="549.972615459324" y1="-278.8734255671674" y2="-277.62383151459346" stroke-width="1" stroke="#91bcc6" stroke-linecap="round"></line><line x1="39.22220951189795" x2="37.97261545932397" y1="-22.873425567167402" y2="-21.623831514593434" stroke-width="1" stroke="#91bcc6" stroke-linecap="round"></line><line x1="295.222209511898" x2="293.97261545932395" y1="-22.873425567167402" y2="-21.623831514593434" stroke-width="1" stroke="#91bcc6" stroke-linecap="round"></line><line x1="551.222209511898" x2="549.972615459324" y1="-22.873425567167402" y2="-21.623831514593434" stroke-width="1" stroke="#91bcc6" stroke-linecap="round"></line><line x1="39.22220951189795" x2="37.97261545932397" y1="233.1265744328326" y2="234.37616848540657" stroke-width="1" stroke="#91bcc6" stroke-linecap="round"></line><line x1="295.222209511898" x2="293.97261545932395" y1="233.1265744328326" y2="234.37616848540657" stroke-width="1" stroke="#91bcc6" stroke-linecap="round"></line><line x1="551.222209511898" x2="549.972615459324" y1="233.1265744328326" y2="234.37616848540657" stroke-width="1" stroke="#91bcc6" stroke-linecap="round"></line><line x1="134.12166388866314" x2="129.58419129525583" y1="186.60470245856982" y2="191.14217505197712" stroke-width="1" stroke="#91bcc6" stroke-linecap="round"></line><line x1="134.12166388866314" x2="129.58419129525583" y1="-325.3952975414302" y2="-320.8578249480229" stroke-width="1" stroke="#91bcc6" stroke-linecap="round"></line><line x1="390.12166388866314" x2="385.58419129525583" y1="-325.3952975414302" y2="-320.8578249480229" stroke-width="1" stroke="#91bcc6" stroke-linecap="round"></line><line x1="646.1216638886631" x2="641.5841912952558" y1="-325.3952975414302" y2="-320.8578249480229" stroke-width="1" stroke="#91bcc6" stroke-linecap="round"></line><line x1="134.12166388866314" x2="129.58419129525583" y1="-69.39529754143018" y2="-64.85782494802288" stroke-width="1" stroke="#91bcc6" stroke-linecap="round"></line><line x1="390.12166388866314" x2="385.58419129525583" y1="-69.39529754143018" y2="-64.85782494802288" stroke-width="1" stroke="#91bcc6" stroke-linecap="round"></line><line x1="646.1216638886631" x2="641.5841912952558" y1="-69.39529754143018" y2="-64.85782494802288" stroke-width="1" stroke="#91bcc6" stroke-linecap="round"></line><line x1="134.12166388866314" x2="129.58419129525583" y1="186.60470245856982" y2="191.14217505197712" stroke-width="1" stroke="#91bcc6" stroke-linecap="round"></line><line x1="390.12166388866314" x2="385.58419129525583" y1="186.60470245856982" y2="191.14217505197712" stroke-width="1" stroke="#91bcc6" stroke-linecap="round"></line><line x1="646.1216638886631" x2="641.5841912952558" y1="186.60470245856982" y2="191.14217505197712" stroke-width="1" stroke="#91bcc6" stroke-linecap="round"></line><line x1="131.48771973288822" x2="128.8793148271976" y1="-0.9962181096911147" y2="1.6121867959995209" stroke-width="1" stroke="#91bcc6" stroke-linecap="round"></line><line x1="131.48771973288822" x2="128.8793148271976" y1="-512.9962181096911" y2="-510.38781320400045" stroke-width="1" stroke="#91bcc6" stroke-linecap="round"></line><line x1="387.4877197328882" x2="384.8793148271976" y1="-512.9962181096911" y2="-510.38781320400045" stroke-width="1" stroke="#91bcc6" stroke-linecap="round"></line><line x1="643.4877197328882" x2="640.8793148271976" y1="-512.9962181096911" y2="-510.38781320400045" stroke-width="1" stroke="#91bcc6" stroke-linecap="round"></line><line x1="131.48771973288822" x2="128.8793148271976" y1="-256.99621810969114" y2="-254.38781320400048" stroke-width="1" stroke="#91bcc6" stroke-linecap="round"></line><line x1="387.4877197328882" x2="384.8793148271976" y1="-256.99621810969114" y2="-254.38781320400048" stroke-width="1" stroke="#91bcc6" stroke-linecap="round"></line><line x1="643.4877197328882" x2="640.8793148271976" y1="-256.99621810969114" y2="-254.38781320400048" stroke-width="1" stroke="#91bcc6" stroke-linecap="round"></line><line x1="131.48771973288822" x2="128.8793148271976" y1="-0.9962181096911147" y2="1.6121867959995209" stroke-width="1" stroke="#91bcc6" stroke-linecap="round"></line><line x1="387.4877197328882" x2="384.8793148271976" y1="-0.9962181096911147" y2="1.6121867959995209" stroke-width="1" stroke="#91bcc6" stroke-linecap="round"></line><line x1="643.4877197328882" x2="640.8793148271976" y1="-0.9962181096911147" y2="1.6121867959995209" stroke-width="1" stroke="#91bcc6" stroke-linecap="round"></line><line x1="131.48771973288822" x2="128.8793148271976" y1="255.0037818903089" y2="257.61218679599955" stroke-width="1" stroke="#91bcc6" stroke-linecap="round"></line><line x1="64.75955222654794" x2="63.09660801593646" y1="10.303213639843825" y2="11.96615785045531" stroke-width="1" stroke="#91bcc6" stroke-linecap="round"></line><line x1="64.75955222654794" x2="63.09660801593646" y1="-501.6967863601562" y2="-500.0338421495447" stroke-width="1" stroke="#91bcc6" stroke-linecap="round"></line><line x1="320.75955222654795" x2="319.09660801593645" y1="-501.6967863601562" y2="-500.0338421495447" stroke-width="1" stroke="#91bcc6" stroke-linecap="round"></line><line x1="576.759552226548" x2="575.0966080159365" y1="-501.6967863601562" y2="-500.0338421495447" stroke-width="1" stroke="#91bcc6" stroke-linecap="round"></line><line x1="64.75955222654794" x2="63.09660801593646" y1="-245.69678636015618" y2="-244.03384214954468" stroke-width="1" stroke="#91bcc6" stroke-linecap="round"></line><line x1="320.75955222654795" x2="319.09660801593645" y1="-245.69678636015618" y2="-244.03384214954468" stroke-width="1" stroke="#91bcc6" stroke-linecap="round"></line><line x1="576.759552226548" x2="575.0966080159365" y1="-245.69678636015618" y2="-244.03384214954468" stroke-width="1" stroke="#91bcc6" stroke-linecap="round"></line><line x1="64.75955222654794" x2="63.09660801593646" y1="10.303213639843825" y2="11.96615785045531" stroke-width="1" stroke="#91bcc6" stroke-linecap="round"></line><line x1="320.75955222654795" x2="319.09660801593645" y1="10.303213639843825" y2="11.96615785045531" stroke-width="1" stroke="#91bcc6" stroke-linecap="round"></line><line x1="576.759552226548" x2="575.0966080159365" y1="10.303213639843825" y2="11.96615785045531" stroke-width="1" stroke="#91bcc6" stroke-linecap="round"></line><line x1="157.51660208469153" x2="152.62492210094214" y1="79.74126939371658" y2="84.63294937746596" stroke-width="1" stroke="#91bcc6" stroke-linecap="round"></line><line x1="157.51660208469153" x2="152.62492210094214" y1="-432.2587306062834" y2="-427.36705062253407" stroke-width="1" stroke="#91bcc6" stroke-linecap="round"></line><line x1="413.5166020846915" x2="408.6249221009422" y1="-432.2587306062834" y2="-427.36705062253407" stroke-width="1" stroke="#91bcc6" stroke-linecap="round"></line><line x1="669.5166020846915" x2="664.6249221009422" y1="-432.2587306062834" y2="-427.36705062253407" stroke-width="1" stroke="#91bcc6" stroke-linecap="round"></line><line x1="157.51660208469153" x2="152.62492210094214" y1="-176.25873060628342" y2="-171.36705062253404" stroke-width="1" stroke="#91bcc6" stroke-linecap="round"></line><line x1="413.5166020846915" x2="408.6249221009422" y1="-176.25873060628342" y2="-171.36705062253404" stroke-width="1" stroke="#91bcc6" stroke-linecap="round"></line><line x1="669.5166020846915" x2="664.6249221009422" y1="-176.25873060628342" y2="-171.36705062253404" stroke-width="1" stroke="#91bcc6" stroke-linecap="round"></line><line x1="157.51660208469153" x2="152.62492210094214" y1="79.74126939371658" y2="84.63294937746596" stroke-width="1" stroke="#91bcc6" stroke-linecap="round"></line><line x1="413.5166020846915" x2="408.6249221009422" y1="79.74126939371658" y2="84.63294937746596" stroke-width="1" stroke="#91bcc6" stroke-linecap="round"></line><line x1="669.5166020846915" x2="664.6249221009422" y1="79.74126939371658" y2="84.63294937746596" stroke-width="1" stroke="#91bcc6" stroke-linecap="round"></line><line x1="109.27536701692294" x2="104.9797000591136" y1="135.97039862907934" y2="140.26606558688866" stroke-width="1" stroke="#91bcc6" stroke-linecap="round"></line><line x1="109.27536701692294" x2="104.9797000591136" y1="-376.02960137092066" y2="-371.73393441311134" stroke-width="1" stroke="#91bcc6" stroke-linecap="round"></line><line x1="365.2753670169229" x2="360.9797000591136" y1="-376.02960137092066" y2="-371.73393441311134" stroke-width="1" stroke="#91bcc6" stroke-linecap="round"></line><line x1="621.2753670169229" x2="616.9797000591136" y1="-376.02960137092066" y2="-371.73393441311134" stroke-width="1" stroke="#91bcc6" stroke-linecap="round"></line><line x1="109.27536701692294" x2="104.9797000591136" y1="-120.02960137092066" y2="-115.73393441311134" stroke-width="1" stroke="#91bcc6" stroke-linecap="round"></line><line x1="365.2753670169229" x2="360.9797000591136" y1="-120.02960137092066" y2="-115.73393441311134" stroke-width="1" stroke="#91bcc6" stroke-linecap="round"></line><line x1="621.2753670169229" x2="616.9797000591136" y1="-120.02960137092066" y2="-115.73393441311134" stroke-width="1" stroke="#91bcc6" stroke-linecap="round"></line><line x1="109.27536701692294" x2="104.9797000591136" y1="135.97039862907934" y2="140.26606558688866" stroke-width="1" stroke="#91bcc6" stroke-linecap="round"></line><line x1="365.2753670169229" x2="360.9797000591136" y1="135.97039862907934" y2="140.26606558688866" stroke-width="1" stroke="#91bcc6" stroke-linecap="round"></line><line x1="621.2753670169229" x2="616.9797000591136" y1="135.97039862907934" y2="140.26606558688866" stroke-width="1" stroke="#91bcc6" stroke-linecap="round"></line>
  <animateTransform attributeName="transform" type="translate" values="0 0;-256 256" keyTimes="0;1" repeatCount="indefinite" dur="1.9607843137254901s"></animateTransform>
</g></g></svg>